<?xml version="1.0" encoding="UTF-8" standalone="no"?>
<svg
   xmlns:dc="http://purl.org/dc/elements/1.1/"
   xmlns:cc="http://creativecommons.org/ns#"
   xmlns:rdf="http://www.w3.org/1999/02/22-rdf-syntax-ns#"
   xmlns:svg="http://www.w3.org/2000/svg"
   xmlns="http://www.w3.org/2000/svg"
   id="svg5022"
   version="1.1"
   viewBox="0 0 31.91909 28.348869"
   height="28.348869mm"
   width="31.91909mm">
  <defs
     id="defs5016" />
  <metadata
     id="metadata5019">
    <rdf:RDF>
      <cc:Work
         rdf:about="">
        <dc:format>image/svg+xml</dc:format>
        <dc:type
           rdf:resource="http://purl.org/dc/dcmitype/StillImage" />
        <dc:title></dc:title>
      </cc:Work>
    </rdf:RDF>
  </metadata>
  <g
     transform="translate(772.66788,-69.646994)"
     id="layer1">
    <path
       d="m -752.97335,76.793215 -0.50574,0.6223 -0.45174,0.555977 1.19091,0.968023 0.95758,-1.177925 -1.19101,-0.968375"
       style="fill:#203763;fill-opacity:1;fill-rule:nonzero;stroke:none;stroke-width:0.03527778"
       id="path16" />
    <path
       d="m -751.78234,77.76159 -0.95758,1.177925 1.19101,0.968021 0.45174,-0.555625 0.50588,-0.6223 -1.19105,-0.968021"
       style="fill:#17314a;fill-opacity:1;fill-rule:nonzero;stroke:none;stroke-width:0.03527778"
       id="path18" />
    <path
       d="m -747.84816,73.2799 -0.17544,-0.142523 -3.68307,4.53108 0.1754,0.14252 3.68311,-4.531077"
       style="fill:#dededc;fill-opacity:1;fill-rule:nonzero;stroke:none;stroke-width:0.03527778"
       id="path20" />
    <path
       d="m -748.199,72.994857 -3.6831,4.531077 0.17543,0.142523 3.68307,-4.53108 -0.1754,-0.14252"
       style="fill:#ffffff;fill-opacity:1;fill-rule:nonzero;stroke:none;stroke-width:0.03527778"
       id="path22" />
    <path
       d="m -762.96815,85.662752 -1.92482,1.195917 3.44177,2.797527 1.35117,-1.662287 -2.86812,-2.331157"
       style="fill:#ef2f3f;fill-opacity:1;fill-rule:nonzero;stroke:none;stroke-width:0.03527778"
       id="path24" />
    <path
       d="m -757.23191,90.325417 -2.86812,-2.331508 -1.35117,1.662287 3.44166,2.797881 0.77763,-2.12866"
       style="fill:#ce1f25;fill-opacity:1;fill-rule:nonzero;stroke:none;stroke-width:0.03527778"
       id="path26" />
    <path
       d="m -760.33113,83.619817 -1.76731,-1.43651 -0.37042,0.455787 1.76731,1.436513 0.37042,-0.45579"
       style="fill:#23437d;fill-opacity:1;fill-rule:nonzero;stroke:none;stroke-width:0.03527778"
       id="path28" />
    <path
       d="m -762.46886,82.639094 -0.37042,0.45579 1.76718,1.43651 0.37055,-0.455787 -1.76731,-1.436513"
       style="fill:#203763;fill-opacity:1;fill-rule:nonzero;stroke:none;stroke-width:0.03527778"
       id="path30" />
    <path
       d="m -756.90478,79.404827 -1.76731,-1.43651 -0.37041,0.455435 1.76731,1.436513 0.37041,-0.455438"
       style="fill:#23437d;fill-opacity:1;fill-rule:nonzero;stroke:none;stroke-width:0.03527778"
       id="path32" />
    <path
       d="m -759.0425,78.423752 -0.37042,0.45579 1.76717,1.43651 0.37056,-0.455787 -1.76731,-1.436513"
       style="fill:#203763;fill-opacity:1;fill-rule:nonzero;stroke:none;stroke-width:0.03527778"
       id="path34" />
    <path
       d="m -769.78889,73.188532 -2.87899,3.541887 9.52515,7.742415 2.87884,-3.541535 -9.525,-7.742767"
       style="fill:#dededc;fill-opacity:1;fill-rule:nonzero;stroke:none;stroke-width:0.03527778"
       id="path36" />
    <path
       d="m -757.38501,77.389409 -9.525,-7.742415 -2.87888,3.541538 9.525,7.742767 2.87888,-3.54189"
       style="fill:#ffffff;fill-opacity:1;fill-rule:nonzero;stroke:none;stroke-width:0.03527778"
       id="path38" />
    <path
       d="m -758.35018,77.489244 -8.46021,-6.87705 -2.44616,3.009196 8.46021,6.87705 2.44616,-3.009196"
       style="fill:#23437d;fill-opacity:1;fill-rule:nonzero;stroke:none;stroke-width:0.03527778"
       id="path40" />
    <path
       d="m -769.25655,73.62139 -2.44602,3.009194 8.46021,6.87705 2.44602,-3.009194 -8.46021,-6.87705"
       style="fill:#203763;fill-opacity:1;fill-rule:nonzero;stroke:none;stroke-width:0.03527778"
       id="path42" />
    <path
       d="m -769.94528,78.516534 0.25316,0.205668 2.66992,-3.284712 -0.25315,-0.205671 -2.66993,3.284715"
       style="fill:#dededc;fill-opacity:1;fill-rule:nonzero;stroke:none;stroke-width:0.03527778"
       id="path44" />
    <path
       d="m -764.72734,72.09739 -2.54801,3.134429 0.25315,0.205671 2.54801,-3.134431 -0.25315,-0.205669"
       style="fill:#ffffff;fill-opacity:1;fill-rule:nonzero;stroke:none;stroke-width:0.03527778"
       id="path46" />
    <path
       d="m -762.60503,73.822474 -2.54797,3.134428 0.25312,0.206023 2.548,-3.134783 -0.25315,-0.205668"
       style="fill:#ffffff;fill-opacity:1;fill-rule:nonzero;stroke:none;stroke-width:0.03527778"
       id="path48" />
    <path
       d="m -767.82297,80.241617 0.25316,0.205669 2.66993,-3.284361 -0.25312,-0.206023 -2.66997,3.284715"
       style="fill:#dededc;fill-opacity:1;fill-rule:nonzero;stroke:none;stroke-width:0.03527778"
       id="path50" />
    <path
       d="m -763.03055,78.68234 -2.67011,3.28436 0.25316,0.206024 2.66996,-3.284715 -0.25301,-0.205669"
       style="fill:#dededc;fill-opacity:1;fill-rule:nonzero;stroke:none;stroke-width:0.03527778"
       id="path52" />
    <path
       d="m -760.22957,75.753577 -0.25315,-0.20602 -2.54783,3.134783 0.25301,0.205669 2.54797,-3.134432"
       style="fill:#ffffff;fill-opacity:1;fill-rule:nonzero;stroke:none;stroke-width:0.03527778"
       id="path54" />
    <path
       d="m -768.61728,72.293182 8.76614,7.125758 -0.20588,0.252942 -8.766,-7.125758 0.20574,-0.252942"
       style="fill:#ffffff;fill-opacity:1;fill-rule:nonzero;stroke:none;stroke-width:0.03527778"
       id="path56" />
    <path
       d="m -770.34244,74.415492 8.76597,7.125758 -0.20574,0.252942 -8.76597,-7.125406 0.20574,-0.253294"
       style="fill:#dededc;fill-opacity:1;fill-rule:nonzero;stroke:none;stroke-width:0.03527778"
       id="path58" />
    <path
       d="m -755.77091,87.326804 1.76731,1.436513 -0.37052,0.455787 -1.76721,-1.43651 0.37042,-0.45579"
       style="fill:#23437d;fill-opacity:1;fill-rule:nonzero;stroke:none;stroke-width:0.03527778"
       id="path60" />
    <path
       d="m -754.37412,89.219104 -0.37042,0.45579 -1.76721,-1.436865 0.37042,-0.455435 1.76721,1.43651"
       style="fill:#203763;fill-opacity:1;fill-rule:nonzero;stroke:none;stroke-width:0.03527778"
       id="path62" />
    <path
       d="m -752.34456,83.111465 1.76731,1.436862 -0.37042,0.455438 -1.76731,-1.436513 0.37042,-0.455787"
       style="fill:#23437d;fill-opacity:1;fill-rule:nonzero;stroke:none;stroke-width:0.03527778"
       id="path64" />
    <path
       d="m -750.94767,85.003765 -0.37052,0.455787 -1.7672,-1.43651 0.37041,-0.45579 1.76731,1.436513"
       style="fill:#203763;fill-opacity:1;fill-rule:nonzero;stroke:none;stroke-width:0.03527778"
       id="path66" />
    <path
       d="m -743.62763,94.454327 -2.87888,3.541536 -9.52514,-7.742413 2.87902,-3.541889 9.525,7.742766"
       style="fill:#dededc;fill-opacity:1;fill-rule:nonzero;stroke:none;stroke-width:0.03527778"
       id="path68" />
    <path
       d="m -750.27379,83.170025 9.525,7.742767 -2.87884,3.541535 -9.525,-7.742766 2.87884,-3.541536"
       style="fill:#ffffff;fill-opacity:1;fill-rule:nonzero;stroke:none;stroke-width:0.03527778"
       id="path70" />
    <path
       d="m -750.17417,84.135225 8.46018,6.87705 -2.44613,3.009194 -8.46021,-6.87705 2.44616,-3.009194"
       style="fill:#23437d;fill-opacity:1;fill-rule:nonzero;stroke:none;stroke-width:0.03527778"
       id="path72" />
    <path
       d="m -744.16012,94.021469 -2.44602,3.009194 -8.46021,-6.87705 2.44602,-3.009194 8.46021,6.87705"
       style="fill:#203763;fill-opacity:1;fill-rule:nonzero;stroke:none;stroke-width:0.03527778"
       id="path74" />
    <path
       d="m -748.81114,95.695752 -0.25315,-0.205668 2.66996,-3.284715 0.25301,0.205669 -2.66982,3.284714"
       style="fill:#dededc;fill-opacity:1;fill-rule:nonzero;stroke:none;stroke-width:0.03527778"
       id="path76" />
    <path
       d="m -743.59334,89.276609 -2.54798,3.134429 -0.25301,-0.205669 2.54783,-3.134431 0.25316,0.205671"
       style="fill:#ffffff;fill-opacity:1;fill-rule:nonzero;stroke:none;stroke-width:0.03527778"
       id="path78" />
    <path
       d="m -745.71565,87.551525 -2.54801,3.134429 -0.25298,-0.205668 2.54783,-3.134784 0.25316,0.206023"
       style="fill:#ffffff;fill-opacity:1;fill-rule:nonzero;stroke:none;stroke-width:0.03527778"
       id="path80" />
    <path
       d="m -750.93359,93.970669 -0.25315,-0.206023 2.6701,-3.28436 0.25298,0.205668 -2.66993,3.284715"
       style="fill:#dededc;fill-opacity:1;fill-rule:nonzero;stroke:none;stroke-width:0.03527778"
       id="path82" />
    <path
       d="m -750.38597,88.960871 -2.66993,3.284363 -0.25315,-0.205671 2.66996,-3.284713 0.25312,0.206021"
       style="fill:#dededc;fill-opacity:1;fill-rule:nonzero;stroke:none;stroke-width:0.03527778"
       id="path84" />
    <path
       d="m -748.09112,85.620419 0.25315,0.205669 -2.548,3.134783 -0.25312,-0.206021 2.54797,-3.134431"
       style="fill:#ffffff;fill-opacity:1;fill-rule:nonzero;stroke:none;stroke-width:0.03527778"
       id="path86" />
    <path
       d="m -742.99034,93.124354 -8.76607,-7.125404 -0.20574,0.252942 8.76614,7.125758 0.20567,-0.253296"
       style="fill:#ffffff;fill-opacity:1;fill-rule:nonzero;stroke:none;stroke-width:0.03527778"
       id="path88" />
    <path
       d="m -744.7156,95.246667 -8.766,-7.125406 -0.20588,0.252941 8.76614,7.125759 0.20574,-0.253294"
       style="fill:#dededc;fill-opacity:1;fill-rule:nonzero;stroke:none;stroke-width:0.03527778"
       id="path90" />
    <path
       d="m -754.70612,76.670449 -1.4785,0.646993 2.86812,2.331508 0.90495,-1.113366 -2.29457,-1.865135"
       style="fill:#ef2f3f;fill-opacity:1;fill-rule:nonzero;stroke:none;stroke-width:0.03527778"
       id="path92" />
    <path
       d="m -750.11712,80.400719 -2.29443,-1.865135 -0.90495,1.113366 2.86812,2.331157 0.33126,-1.579388"
       style="fill:#ce1f25;fill-opacity:1;fill-rule:nonzero;stroke:none;stroke-width:0.03527778"
       id="path94" />
    <path
       d="m -753.3165,79.64895 -6.78353,8.344959 2.86812,2.331508 3.20008,-3.936648 3.58345,-4.408662 -2.86812,-2.331157"
       style="fill:#dededc;fill-opacity:1;fill-rule:nonzero;stroke:none;stroke-width:0.03527778"
       id="path96" />
    <path
       d="m -756.18462,77.317442 -3.58358,4.40831 -3.19995,3.937 2.86812,2.331157 6.78353,-8.344959 -2.86812,-2.331508"
       style="fill:#ffffff;fill-opacity:1;fill-rule:nonzero;stroke:none;stroke-width:0.03527778"
       id="path98" />
    <path
       d="m -762.02252,84.499292 -0.28043,0.345017 -0.25054,0.308327 2.86812,2.331156 0.53097,-0.652992 -2.86812,-2.331508"
       style="fill:#ef2f3f;fill-opacity:1;fill-rule:nonzero;stroke:none;stroke-width:0.03527778"
       id="path100" />
    <path
       d="m -759.1544,86.8308 -0.53097,0.652992 2.86812,2.331508 0.2505,-0.307975 0.28043,-0.345371 -2.86808,-2.331154"
       style="fill:#ce1f25;fill-opacity:1;fill-rule:nonzero;stroke:none;stroke-width:0.03527778"
       id="path102" />
    <path
       d="m -753.75348,72.438525 c -0.24183,0.352777 -0.39399,0.753182 -0.46179,1.180394 l 3.49264,2.838805 0.76151,-0.936625 -3.79236,-3.082574"
       style="fill:#ef2f3f;fill-opacity:1;fill-rule:nonzero;stroke:none;stroke-width:0.03527778"
       id="path104" />
    <path
       d="m -746.16876,78.603669 -3.79236,-3.08257 -0.76151,0.936625 3.49264,2.839153 c 0.40418,-0.153458 0.76511,-0.384175 1.06123,-0.693208"
       style="fill:#ce1f25;fill-opacity:1;fill-rule:nonzero;stroke:none;stroke-width:0.03527778"
       id="path106" />
    <path
       d="m -754.21527,73.618919 c -0.23396,1.475317 0.53993,3.270956 2.10633,4.544131 l 1.38631,-1.705326 -3.49264,-2.838805"
       style="fill:#ffffff;fill-opacity:1;fill-rule:nonzero;stroke:none;stroke-width:0.03527778"
       id="path108" />
    <path
       d="m -750.72263,76.457724 -1.38631,1.705326 c 1.56644,1.273527 3.4823,1.664407 4.87895,1.133827 l -3.49264,-2.839153"
       style="fill:#dededc;fill-opacity:1;fill-rule:nonzero;stroke:none;stroke-width:0.03527778"
       id="path110" />
    <path
       d="m -747.58661,72.600099 -0.87397,1.074912 c 0.29686,0.2413 0.73314,0.196146 0.97455,-0.100542 0.2413,-0.297037 0.19625,-0.73307 -0.10058,-0.97437"
       style="fill:#ce1f25;fill-opacity:1;fill-rule:nonzero;stroke:none;stroke-width:0.03527778"
       id="path112" />
    <path
       d="m -748.56116,72.70064 c -0.2413,0.296685 -0.19625,0.733071 0.10058,0.974371 l 0.87397,-1.074912 c -0.29683,-0.2413 -0.73311,-0.196499 -0.97455,0.100541"
       style="fill:#ef2f3f;fill-opacity:1;fill-rule:nonzero;stroke:none;stroke-width:0.03527778"
       id="path114" />
  </g>
</svg>
