<?xml version="1.0" encoding="UTF-8" standalone="no"?>
<svg
   xmlns:dc="http://purl.org/dc/elements/1.1/"
   xmlns:cc="http://creativecommons.org/ns#"
   xmlns:rdf="http://www.w3.org/1999/02/22-rdf-syntax-ns#"
   xmlns:svg="http://www.w3.org/2000/svg"
   xmlns="http://www.w3.org/2000/svg"
   version="1.1"
   id="svg2"
   xml:space="preserve"
   width="125.6388"
   height="153.15601"
   viewBox="0 0 125.6388 153.15601"><metadata
     id="metadata8"><rdf:RDF><cc:Work
         rdf:about=""><dc:format>image/svg+xml</dc:format><dc:type
           rdf:resource="http://purl.org/dc/dcmitype/StillImage" /><dc:title></dc:title></cc:Work></rdf:RDF></metadata><defs
     id="defs6" /><path
     d="m 103.27138,135.25866 c -0.088,-5.65466 4.24267,-10.60266 9.85733,-11.268 6.336,-0.752 11.98534,3.936 12.476,10.236 0.23067,2.96 -0.72266,5.73734 -2.456,7.88 -0.63866,0.78934 -1.89866,0.6 -2.31866,-0.32666 -0.212,-0.46934 -0.148,-1.01867 0.17466,-1.42 1.26667,-1.57334 1.97867,-3.596 1.85067,-5.75734 -0.26667,-4.532 -4.26933,-8.13333 -8.804,-7.912 -4.74933,0.23067 -8.352,4.34934 -7.98533,9.05734 0.17333,2.228 1.208,4.18266 2.74666,5.57466 0.37734,0.34 0.51334,0.87467 0.37734,1.364 -0.27067,0.97734 -1.484,1.36267 -2.23734,0.68267 -2.20533,-1.99467 -3.62933,-4.86 -3.68133,-8.11067"
     style="fill:#f1f1f1;fill-opacity:1;fill-rule:nonzero;stroke:none;stroke-width:0.13333333"
     id="path260" /><path
     d="m 119.57138,125.16133 -0.88667,2.70533 c -0.296,-0.184 -0.60933,-0.35066 -0.932,-0.488 v -2.964 c 0.62667,0.19334 1.23734,0.444 1.81867,0.74667"
     style="fill:#bcbbb9;fill-opacity:1;fill-rule:nonzero;stroke:none;stroke-width:0.13333333"
     id="path262" /><path
     d="m 114.91138,125.54 -2.38667,0.18533 -5.8,-74.536 2.38667,-0.18533 5.8,74.536"
     style="fill:#6e6f71;fill-opacity:1;fill-rule:nonzero;stroke:none;stroke-width:0.13333333"
     id="path264" /><path
     d="m 108.10338,68.904 2.38667,-0.18667 -0.0627,-0.8 -2.38667,0.18667 0.0627,0.8"
     style="fill:#595a5c;fill-opacity:1;fill-rule:nonzero;stroke:none;stroke-width:0.13333333"
     id="path266" /><path
     d="m 108.45538,73.432 2.38667,-0.18667 -0.0627,-0.8 -2.38667,0.18533 0.0627,0.80134"
     style="fill:#595a5c;fill-opacity:1;fill-rule:nonzero;stroke:none;stroke-width:0.13333333"
     id="path268" /><path
     d="m 108.80738,77.96 2.38667,-0.18667 -0.0613,-0.8 -2.38666,0.18533 0.0613,0.80134"
     style="fill:#595a5c;fill-opacity:1;fill-rule:nonzero;stroke:none;stroke-width:0.13333333"
     id="path270" /><path
     d="m 109.15938,82.488 2.388,-0.18667 -0.0627,-0.8 -2.38666,0.18533 0.0613,0.80134"
     style="fill:#595a5c;fill-opacity:1;fill-rule:nonzero;stroke:none;stroke-width:0.13333333"
     id="path272" /><path
     d="m 109.51271,87.016 2.38667,-0.18667 -0.0627,-0.8 -2.38666,0.18533 0.0627,0.80134"
     style="fill:#595a5c;fill-opacity:1;fill-rule:nonzero;stroke:none;stroke-width:0.13333333"
     id="path274" /><path
     d="m 109.86471,91.544 2.38667,-0.18667 -0.0627,-0.8 -2.38666,0.18533 0.0627,0.80134"
     style="fill:#595a5c;fill-opacity:1;fill-rule:nonzero;stroke:none;stroke-width:0.13333333"
     id="path276" /><path
     d="m 110.21671,96.07066 2.38667,-0.18533 -0.0613,-0.8 -2.38667,0.18533 0.0613,0.8"
     style="fill:#595a5c;fill-opacity:1;fill-rule:nonzero;stroke:none;stroke-width:0.13333333"
     id="path278" /><path
     d="m 110.57005,100.6 2.38666,-0.18667 -0.0627,-0.8 -2.38667,0.18533 0.0627,0.80134"
     style="fill:#595a5c;fill-opacity:1;fill-rule:nonzero;stroke:none;stroke-width:0.13333333"
     id="path280" /><path
     d="m 110.92205,105.12666 2.38666,-0.18533 -0.0627,-0.8 -2.38667,0.18533 0.0627,0.8"
     style="fill:#595a5c;fill-opacity:1;fill-rule:nonzero;stroke:none;stroke-width:0.13333333"
     id="path282" /><path
     d="m 111.27405,109.656 2.38666,-0.18667 -0.0613,-0.8 -2.38667,0.18533 0.0613,0.80134"
     style="fill:#595a5c;fill-opacity:1;fill-rule:nonzero;stroke:none;stroke-width:0.13333333"
     id="path284" /><path
     d="m 111.62738,114.18266 2.38667,-0.18533 -0.0627,-0.8 -2.38667,0.18533 0.0627,0.8"
     style="fill:#595a5c;fill-opacity:1;fill-rule:nonzero;stroke:none;stroke-width:0.13333333"
     id="path286" /><path
     d="m 111.97938,118.712 2.38667,-0.18667 -0.0627,-0.8 -2.38667,0.18533 0.0627,0.80134"
     style="fill:#595a5c;fill-opacity:1;fill-rule:nonzero;stroke:none;stroke-width:0.13333333"
     id="path288" /><path
     d="m 110.72338,122.55866 5.47867,-0.42533 c 0.79333,-0.0627 1.488,0.53067 1.54933,1.32533 l 0.28533,3.65867 c 0.0613,0.79467 -0.532,1.488 -1.32533,1.54933 l -5.47867,0.428 c -0.79466,0.0613 -1.488,-0.53333 -1.54933,-1.32533 l -0.28533,-3.66133 c -0.0627,-0.79334 0.532,-1.488 1.32533,-1.54934"
     style="fill:#ffffff;fill-opacity:1;fill-rule:nonzero;stroke:none;stroke-width:0.13333333"
     id="path290" /><path
     d="m 22.367382,135.25866 c 0.0893,-5.65466 -4.24266,-10.60266 -9.85733,-11.268 -6.3359997,-0.752 -11.98532967,3.936 -12.47599967,10.236 -0.23067,2.96 0.724,5.73734 2.45599997,7.88 0.63867,0.78934 1.9,0.6 2.31867,-0.32666 v 0 c 0.212,-0.46934 0.14933,-1.01867 -0.17467,-1.42 -1.26667,-1.57334 -1.97733,-3.596 -1.85067,-5.75734 0.26667,-4.532 4.27067,-8.13333 8.8039997,-7.912 4.74934,0.23067 8.352,4.34934 7.98534,9.05734 -0.172,2.228 -1.20667,4.18266 -2.74667,5.57466 -0.37733,0.34 -0.51333,0.87467 -0.37733,1.364 0.27066,0.97734 1.48533,1.36267 2.23733,0.68267 2.20667,-1.99467 3.62933,-4.86 3.68133,-8.11067"
     style="fill:#f1f1f1;fill-opacity:1;fill-rule:nonzero;stroke:none;stroke-width:0.13333333"
     id="path292" /><path
     d="m 10.727382,125.54 2.38667,0.18533 5.8,-74.536 -2.38667,-0.18533 -5.8,74.536"
     style="fill:#6e6f71;fill-opacity:1;fill-rule:nonzero;stroke:none;stroke-width:0.13333333"
     id="path294" /><path
     d="m 17.536722,68.904 -2.388,-0.18667 0.0627,-0.8 2.38667,0.18667 -0.0613,0.8"
     style="fill:#595a5c;fill-opacity:1;fill-rule:nonzero;stroke:none;stroke-width:0.13333333"
     id="path296" /><path
     d="m 17.183382,73.432 -2.38666,-0.18667 0.0627,-0.8 2.38667,0.18533 -0.0627,0.80134"
     style="fill:#595a5c;fill-opacity:1;fill-rule:nonzero;stroke:none;stroke-width:0.13333333"
     id="path298" /><path
     d="m 16.831382,77.96 -2.38666,-0.18667 0.0627,-0.8 2.38667,0.18533 -0.0627,0.80134"
     style="fill:#595a5c;fill-opacity:1;fill-rule:nonzero;stroke:none;stroke-width:0.13333333"
     id="path300" /><path
     d="m 16.479382,82.488 -2.38666,-0.18667 0.0613,-0.8 2.388,0.18533 -0.0627,0.80134"
     style="fill:#595a5c;fill-opacity:1;fill-rule:nonzero;stroke:none;stroke-width:0.13333333"
     id="path302" /><path
     d="m 16.127382,87.016 -2.388,-0.18667 0.0627,-0.8 2.38667,0.18533 -0.0613,0.80134"
     style="fill:#595a5c;fill-opacity:1;fill-rule:nonzero;stroke:none;stroke-width:0.13333333"
     id="path304" /><path
     d="m 15.774052,91.544 -2.38667,-0.18667 0.0627,-0.8 2.38667,0.18533 -0.0627,0.80134"
     style="fill:#595a5c;fill-opacity:1;fill-rule:nonzero;stroke:none;stroke-width:0.13333333"
     id="path306" /><path
     d="m 15.422052,96.07066 -2.38667,-0.18533 0.0627,-0.8 2.38667,0.18533 -0.0627,0.8"
     style="fill:#595a5c;fill-opacity:1;fill-rule:nonzero;stroke:none;stroke-width:0.13333333"
     id="path308" /><path
     d="m 15.070052,100.6 -2.38667,-0.18667 0.0613,-0.8 2.38666,0.18533 -0.0613,0.80134"
     style="fill:#595a5c;fill-opacity:1;fill-rule:nonzero;stroke:none;stroke-width:0.13333333"
     id="path310" /><path
     d="m 14.716722,105.12666 -2.38667,-0.18533 0.0627,-0.8 2.38666,0.18533 -0.0627,0.8"
     style="fill:#595a5c;fill-opacity:1;fill-rule:nonzero;stroke:none;stroke-width:0.13333333"
     id="path312" /><path
     d="m 14.364722,109.656 -2.38667,-0.18667 0.0627,-0.8 2.38666,0.18533 -0.0627,0.80134"
     style="fill:#595a5c;fill-opacity:1;fill-rule:nonzero;stroke:none;stroke-width:0.13333333"
     id="path314" /><path
     d="m 14.012722,114.18266 -2.38667,-0.18533 0.0613,-0.8 2.38667,0.18533 -0.0613,0.8"
     style="fill:#595a5c;fill-opacity:1;fill-rule:nonzero;stroke:none;stroke-width:0.13333333"
     id="path316" /><path
     d="m 13.659382,118.712 -2.38666,-0.18667 0.0627,-0.8 2.38667,0.18533 -0.0627,0.80134"
     style="fill:#595a5c;fill-opacity:1;fill-rule:nonzero;stroke:none;stroke-width:0.13333333"
     id="path318" /><path
     d="m 14.915382,122.55866 -5.4786597,-0.42533 c -0.79334,-0.0627 -1.48667,0.53067 -1.54934,1.32533 l -0.28533,3.65867 c -0.0613,0.79467 0.532,1.488 1.32667,1.54933 l 5.4786597,0.428 c 0.79334,0.0613 1.488,-0.53333 1.54934,-1.32533 l 0.284,-3.66133 c 0.0627,-0.79334 -0.53067,-1.488 -1.32534,-1.54934"
     style="fill:#ffffff;fill-opacity:1;fill-rule:nonzero;stroke:none;stroke-width:0.13333333"
     id="path320" /><path
     d="m 15.926052,128.15866 c 0.196,0.13334 0.38533,0.27334 0.56667,0.42267 l 0.85066,-2.792 c -0.37733,-0.252 -0.77333,-0.476 -1.18,-0.68267 l -0.23733,3.052"
     style="fill:#bcbbb9;fill-opacity:1;fill-rule:nonzero;stroke:none;stroke-width:0.13333333"
     id="path322" /><path
     d="m 62.826052,0 c -23.44,0 -42.44133,19.00133 -42.44133,42.44133 v 68.27333 c 0,23.44 19.00133,42.44134 42.44133,42.44134 23.44,0 42.441328,-19.00134 42.441328,-42.44134 V 42.44133 C 105.26738,19.00133 86.266052,0 62.826052,0"
     style="fill:#ffffff;fill-opacity:1;fill-rule:nonzero;stroke:none;stroke-width:0.13333333"
     id="path324" /><path
     d="m 10.488722,55.38267 c 0,5.46666 4.43066,9.89733 9.896,9.89733 V 45.48667 c -5.46534,0 -9.896,4.43066 -9.896,9.896"
     style="fill:#e3e2e0;fill-opacity:1;fill-rule:nonzero;stroke:none;stroke-width:0.13333333"
     id="path326" /><path
     d="m 115.16471,55.38267 c 0,-5.46534 -4.43066,-9.896 -9.89733,-9.896 V 65.28 c 5.46667,0 9.89733,-4.43067 9.89733,-9.89733"
     style="fill:#e3e2e0;fill-opacity:1;fill-rule:nonzero;stroke:none;stroke-width:0.13333333"
     id="path328" /><path
     d="m 93.899382,38.14 c 0,9.52267 -13.912,17.24267 -31.07333,17.24267 -17.16134,0 -31.07334,-7.72 -31.07334,-17.24267 0,-9.524 13.912,-17.244 31.07334,-17.244 17.16133,0 31.07333,7.72 31.07333,17.244"
     style="fill:#3c3c3d;fill-opacity:1;fill-rule:nonzero;stroke:none;stroke-width:0.13333333"
     id="path330" /><path
     d="m 51.359382,25.48133 c -0.456,-1.09866 -5.296,-0.60666 -9.85333,2.11867 -4.576,2.70667 -6.776,6.22 -5.95467,7.02 0.84133,0.83867 4.13733,-1.06267 8.35733,-3.48133 4.19334,-2.448 7.94,-4.55067 7.45067,-5.65734"
     style="fill:#595a5c;fill-opacity:1;fill-rule:nonzero;stroke:none;stroke-width:0.13333333"
     id="path358" /><path
     d="m 61.144712,23.36267 c -0.21333,-0.79067 -2.26133,-1.23734 -4.44933,-0.79467 -2.19067,0.43867 -3.59733,1.54533 -3.27467,2.28533 0.32534,0.74534 2.17334,0.88934 4.256,0.50134 2.07734,-0.392 3.68534,-1.196 3.468,-1.992"
     style="fill:#595a5c;fill-opacity:1;fill-rule:nonzero;stroke:none;stroke-width:0.13333333"
     id="path360" /><path
     d="m 76.324712,2.192 -4.11733,8.87333 c -0.40133,0.884 -1.29867,1.45067 -2.26667,1.45067 h -14.22933 c -0.968,0 -1.864,-0.56667 -2.27733,-1.45067 L 49.327382,2.192 c -0.28267,0.0947 -0.56667,0.18933 -0.83733,0.29467 l 4.14133,8.944 c 0.55467,1.204 1.77067,1.97066 3.08,1.97066 h 14.22933 c 1.31067,0 2.52534,-0.76666 3.068,-1.97066 l 4.15334,-8.944 c -0.27067,-0.10534 -0.55467,-0.2 -0.83734,-0.29467"
     style="fill:#f1f1f1;fill-opacity:1;fill-rule:nonzero;stroke:none;stroke-width:0.13333333"
     id="path362" /><path
     d="m 55.711382,13.40133 h 14.22933 c 0.42934,0 0.84534,-0.0893 1.23334,-0.24266 0.69333,-0.784 1.044,-2.09334 1.044,-2.09334 h -0.0107 c -0.40133,0.884 -1.29867,1.45067 -2.26667,1.45067 h -14.22933 c -0.968,0 -1.864,-0.56667 -2.27733,-1.45067 0,0 0.35066,1.31067 1.04533,2.09334 0.388,0.15333 0.80267,0.24266 1.232,0.24266"
     style="fill:#e3e2e0;fill-opacity:1;fill-rule:nonzero;stroke:none;stroke-width:0.13333333"
     id="path364" /><path
     d="m 109.93005,64.116 c -1.392,0.744 -2.97334,1.168 -4.66134,1.168 v -19.8 c 0.64934,0 1.27467,0.06 1.888,0.18933 l 2.77334,18.44267"
     style="fill:#bcbbb9;fill-opacity:1;fill-rule:nonzero;stroke:none;stroke-width:0.13333333"
     id="path366" /><path
     d="m 84.306052,87.68266 c 0,11.86267 -9.61734,21.47867 -21.48,21.47867 -11.86267,0 -21.48,-9.616 -21.48,-21.47867 0,-11.86266 9.61733,-21.48 21.48,-21.48 11.86266,0 21.48,9.61734 21.48,21.48"
     style="fill:#f8f8f8;fill-opacity:1;fill-rule:nonzero;stroke:none;stroke-width:0.13333333"
     id="path368" /><path
     d="m 82.686052,87.68266 c 0,10.968 -8.892,19.86 -19.86,19.86 -10.968,0 -19.86,-8.892 -19.86,-19.86 0,-10.968 8.892,-19.86 19.86,-19.86 10.968,0 19.86,8.892 19.86,19.86"
     style="fill:#ffffff;fill-opacity:1;fill-rule:nonzero;stroke:none;stroke-width:0.13333333"
     id="path370" /><path
     d="m 68.694052,85.90133 h -11.736 c -0.984,0 -1.78134,0.79733 -1.78134,1.78133 0,0.98267 0.79734,1.78134 1.78134,1.78134 h 11.736 c 0.984,0 1.78133,-0.79867 1.78133,-1.78134 0,-0.984 -0.79733,-1.78133 -1.78133,-1.78133"
     style="fill:#bcbbb9;fill-opacity:1;fill-rule:nonzero;stroke:none;stroke-width:0.13333333"
     id="path372" /></svg>