<?xml version="1.0" encoding="UTF-8" standalone="no"?>
<svg
   xmlns:dc="http://purl.org/dc/elements/1.1/"
   xmlns:cc="http://creativecommons.org/ns#"
   xmlns:rdf="http://www.w3.org/1999/02/22-rdf-syntax-ns#"
   xmlns:svg="http://www.w3.org/2000/svg"
   xmlns="http://www.w3.org/2000/svg"
   width="26.382177mm"
   height="26.527187mm"
   viewBox="0 0 26.382177 26.527187"
   version="1.1"
   id="svg4999">
  <defs
     id="defs4993" />
  <metadata
     id="metadata4996">
    <rdf:RDF>
      <cc:Work
         rdf:about="">
        <dc:format>image/svg+xml</dc:format>
        <dc:type
           rdf:resource="http://purl.org/dc/dcmitype/StillImage" />
        <dc:title></dc:title>
      </cc:Work>
    </rdf:RDF>
  </metadata>
  <path
     d="M 6.23884,20.51886 6.10756,20.126323 4.91498,20.477491 c -0.19763,0.08517 -0.29483,0.306588 -0.2292,0.507277 l 1.55308,-0.465916"
     style="fill:#ce1f25;fill-opacity:1;fill-rule:nonzero;stroke:none;stroke-width:0.03527778"
     id="path836" />
  <path
     d="m 26.37554,14.475738 -0.0173,-0.0525 c -0.0634,-0.146683 -0.23331,-0.214277 -0.38,-0.150852 l -19.871,5.854058 0.13127,0.392537 20.1367,-6.043123"
     style="fill:#17314a;fill-opacity:1;fill-rule:nonzero;stroke:none;stroke-width:0.03527778"
     id="path838" />
  <path
     d="m 26.20738,14.803269 c 0.12952,-0.056 0.19712,-0.194775 0.16816,-0.327531 l -20.1367,6.043122 0.12443,0.373201 19.84408,-6.08878"
     style="fill:#23437d;fill-opacity:1;fill-rule:nonzero;stroke:none;stroke-width:0.03527778"
     id="path840" />
  <path
     d="M 5.24222,21.23613 6.3633,20.892049 6.23886,20.518848 4.6858,20.98476 4.6991,21.02052 c 0.0905,0.209179 0.3333,0.305951 0.54294,0.215686"
     style="fill:#ef2f3f;fill-opacity:1;fill-rule:nonzero;stroke:none;stroke-width:0.03527778"
     id="path842" />
  <path
     d="m 0.37383,21.908362 c -0.95012,-2.197332 -0.0267,-4.733583 2.06354,-5.823015 0.0975,-0.05098 0.19827,-0.09878 0.30092,-0.14317 0.35326,-0.152748 0.71554,-0.257123 1.07893,-0.316247 2.00263,-0.324 4.0457,0.733525 4.88745,2.680232 C 9.54669,20.25352 8.9176,22.466092 7.3098,23.70322 7.01782,23.927483 6.69362,24.119932 6.34036,24.27268 6.23738,24.31721 6.13384,24.35773 6.0296,24.393987 3.80447,25.170486 1.32409,24.106036 0.37384,21.908376"
     style="fill:#ffffff;fill-opacity:1;fill-rule:nonzero;stroke:none;stroke-width:0.03527778"
     id="path844" />
  <path
     d="m 1.58066,16.664869 -2.4e-4,1.04e-4 2.4e-4,-1.04e-4 m -0.0106,0.0092 v 0 0 m -0.0106,0.0092 v 0 0 M 1.4457,16.785495 c -2.5e-4,1.07e-4 -2.5e-4,1.07e-4 -1.4e-4,3.5e-4 l 1.4e-4,-3.5e-4 m -0.01,0.0093 c -6.3e-4,5.6e-4 -0.002,0.0015 -10e-4,0.0018 6.2e-4,-5.57e-4 0.002,-0.0015 10e-4,-0.0018 m -0.01,0.0093 c -8.2e-4,6.39e-4 -0.002,0.0015 -0.002,0.0022 8.1e-4,-6.39e-4 0.002,-0.0015 0.002,-0.0022 m -0.01,0.0093 c -8.2e-4,6.4e-4 -0.002,0.0022 -0.003,0.0028 8.1e-4,-6.4e-4 0.002,-0.0015 0.003,-0.0028 m -0.01,0.0095 c -8.1e-4,6.39e-4 -0.002,0.0019 -0.003,0.0028 6e-4,-0.0011 10e-4,-0.0018 0.003,-0.0028 m -0.01,0.0093 c -8.1e-4,6.4e-4 -0.002,0.0022 -0.003,0.0028 8.1e-4,-6.4e-4 0.002,-0.0022 0.003,-0.0028 m -0.01,0.0097 c -8.2e-4,6.39e-4 -0.002,0.0022 -0.003,0.0028 8.1e-4,-6.4e-4 0.002,-0.0022 0.003,-0.0028 m -0.01,0.0091 c -0.002,0.0015 -0.002,0.0022 -0.004,0.0037 0.002,-0.0015 0.002,-0.0022 0.004,-0.0037 m -0.01,0.0093 c -6e-4,0.0011 -0.002,0.0024 -0.004,0.0039 6.1e-4,-0.0011 0.002,-0.0024 0.004,-0.0039 m -0.009,0.0094 c -0.002,0.0015 -0.003,0.0028 -0.005,0.0043 0.002,-0.0015 0.003,-0.0028 0.005,-0.0043 m -0.009,0.0094 c -0.002,0.0015 -0.003,0.0028 -0.005,0.0043 0.002,-0.0015 0.003,-0.0028 0.005,-0.0043 m -0.01,0.0091 c -10e-4,0.0018 -0.003,0.0033 -0.004,0.005 10e-4,-0.0018 0.003,-0.0033 0.004,-0.005 m -0.01,0.0099 c -0.002,0.0015 -0.003,0.0028 -0.005,0.0046 0.001,-0.0018 0.003,-0.0033 0.005,-0.0046 m -0.009,0.0094 c -0.002,0.0015 -0.004,0.0037 -0.005,0.0046 10e-4,-0.0018 0.003,-0.0033 0.005,-0.0046 m -0.01,0.0095 c -10e-4,0.0018 -0.003,0.0033 -0.005,0.0046 0.002,-0.0015 0.003,-0.0028 0.005,-0.0046 m -0.009,0.0093 c -0.002,0.0015 -0.004,0.0037 -0.005,0.0053 0.001,-0.0018 0.004,-0.0039 0.005,-0.0053 m -0.009,0.0088 c -0.002,0.0022 -0.004,0.0039 -0.006,0.0064 0.002,-0.0024 0.004,-0.0042 0.006,-0.0064 m -0.009,0.0091 c -0.0137,0.01442 -0.0278,0.02894 -0.0419,0.04348 0.0141,-0.01458 0.028,-0.02942 0.0419,-0.04348 m -0.0434,0.04528 c -0.002,0.0024 -0.004,0.005 -0.008,0.0078 0.002,-0.0024 0.004,-0.005 0.008,-0.0078 m -0.009,0.0096 c -0.002,0.0024 -0.004,0.005 -0.007,0.0074 0.002,-0.0024 0.004,-0.005 0.007,-0.0074 m -0.009,0.0098 c -0.002,0.0024 -0.004,0.005 -0.007,0.0072 0.002,-0.0022 0.005,-0.0046 0.007,-0.0072 m -0.009,0.0098 c -0.002,0.0024 -0.004,0.005 -0.007,0.0072 0.002,-0.0022 0.005,-0.0046 0.007,-0.0072 m -0.009,0.01006 c -0.002,0.0022 -0.005,0.0046 -0.007,0.0072 0.002,-0.0024 0.004,-0.005 0.007,-0.0072 m -0.009,0.0096 c -0.002,0.0024 -0.004,0.005 -0.007,0.0072 0.002,-0.0022 0.005,-0.0046 0.007,-0.0072 m -0.009,0.0098 c -0.002,0.0024 -0.004,0.005 -0.007,0.0074 0.002,-0.0024 0.004,-0.005 0.007,-0.0074 m -0.009,0.0099 c -0.002,0.0024 -0.004,0.005 -0.007,0.0072 0.002,-0.0022 0.005,-0.0046 0.007,-0.0072 m -0.009,0.01006 c -0.002,0.0024 -0.004,0.005 -0.007,0.0072 0.002,-0.0022 0.005,-0.0046 0.007,-0.0072 m -0.009,0.0096 c -0.002,0.0029 -0.004,0.005 -0.007,0.0074 0.002,-0.0024 0.005,-0.0046 0.007,-0.0074 m -0.008,0.0097 c -0.002,0.0024 -0.004,0.005 -0.007,0.0082 0.002,-0.0024 0.004,-0.0053 0.007,-0.0082 m -0.009,0.0099 c -0.002,0.0024 -0.004,0.005 -0.007,0.0082 0.002,-0.0029 0.004,-0.0053 0.007,-0.0082 m -0.009,0.0099 c -0.002,0.0024 -0.005,0.0057 -0.007,0.0082 0.002,-0.0024 0.005,-0.0057 0.007,-0.0082 m -0.008,0.0093 c -0.002,0.0029 -0.005,0.006 -0.008,0.0087 0.003,-0.0028 0.005,-0.0057 0.008,-0.0087 m -0.008,0.0097 c -0.0345,0.03949 -0.0679,0.07932 -0.1007,0.120022 0.0327,-0.04068 0.0663,-0.08055 0.1007,-0.120022 m -0.1007,0.120022 c -0.003,0.0035 -0.006,0.0068 -0.008,0.01011 0.003,-0.0035 0.006,-0.007 0.008,-0.01011 m -0.009,0.01027 c -0.002,0.0031 -0.005,0.0064 -0.008,0.0093 0.003,-0.0033 0.005,-0.0064 0.008,-0.0093 m -0.008,0.01048 c -0.003,0.0033 -0.005,0.0064 -0.008,0.0095 0.002,-0.0029 0.005,-0.0064 0.008,-0.0095 m -0.008,0.01011 c -0.002,0.0031 -0.005,0.0064 -0.007,0.0097 0.003,-0.0035 0.005,-0.0064 0.007,-0.0097 m -0.008,0.01048 c -0.002,0.0031 -0.005,0.0064 -0.008,0.0098 0.002,-0.0031 0.005,-0.0064 0.008,-0.0098 m -0.008,0.01 c -0.002,0.0031 -0.005,0.0066 -0.008,0.0098 0.002,-0.0031 0.005,-0.0064 0.008,-0.0098 m -0.008,0.01048 c -0.003,0.0035 -0.005,0.0066 -0.008,0.0098 0.002,-0.0029 0.005,-0.0064 0.008,-0.0098 m -0.008,0.01027 c -0.11537,0.148275 -0.22067,0.302963 -0.3165,0.463547 0.0955,-0.160445 0.20114,-0.31527 0.3165,-0.463547 m -0.3165,0.463547 c -0.0423,0.07095 -0.0824,0.142844 -0.12053,0.215463 0.0382,-0.07263 0.0785,-0.14464 0.12053,-0.215463 m -0.1209,0.21639 c -0.002,0.0034 -0.004,0.0069 -0.005,0.01036 0.002,-0.0034 0.004,-0.0069 0.005,-0.01036 m -0.006,0.01148 c -0.002,0.0034 -0.004,0.0069 -0.005,0.01073 0.002,-0.0034 0.003,-0.0072 0.005,-0.01073 m -0.006,0.0114 c -0.002,0.0038 -0.003,0.0072 -0.006,0.01113 0.002,-0.0034 0.004,-0.0069 0.006,-0.01113 m -0.006,0.01185 c -0.002,0.0034 -0.003,0.0072 -0.006,0.01113 0.002,-0.0038 0.003,-0.0072 0.006,-0.01113 m -0.006,0.0114 c -0.002,0.0038 -0.003,0.0072 -0.006,0.01113 0.002,-0.0034 0.003,-0.0072 0.006,-0.01113 m -0.006,0.01185 c -0.002,0.0038 -0.003,0.0072 -0.006,0.01113 0.002,-0.0034 0.004,-0.0069 0.006,-0.01113 m -0.006,0.0114 c -0.003,0.0042 -0.004,0.0079 -0.006,0.0114 0.002,-0.0038 0.003,-0.0072 0.006,-0.0114 m -0.006,0.01185 c -0.0231,0.04611 -0.0455,0.09308 -0.067,0.140065 0.0215,-0.04697 0.0439,-0.09394 0.067,-0.140065 M 0.411,18.220001 c -0.002,0.0038 -0.003,0.0075 -0.005,0.01137 0.002,-0.0038 0.003,-0.0075 0.005,-0.01137 m -0.006,0.01205 c -0.002,0.0038 -0.003,0.0072 -0.005,0.01073 0.002,-0.0034 0.003,-0.0072 0.005,-0.01073 m -0.006,0.01241 c -0.002,0.0034 -0.004,0.0069 -0.004,0.01 0.002,-0.0034 0.004,-0.0069 0.004,-0.01 m -0.006,0.01205 c -8.8e-4,0.003 -0.003,0.0065 -0.004,0.01 0.002,-0.0034 0.003,-0.0065 0.004,-0.01 m -0.006,0.01205 c -8.8e-4,0.003 -0.003,0.0065 -0.004,0.01 0.002,-0.0034 0.003,-0.0065 0.004,-0.01 m -0.006,0.01241 c -0.001,0.0027 -0.003,0.0062 -0.005,0.0097 0.002,-0.0034 0.003,-0.0065 0.005,-0.0097 m -0.006,0.01205 c -8.8e-4,0.003 -0.003,0.0065 -0.004,0.0093 0.001,-0.0027 0.003,-0.0062 0.004,-0.0093 m -0.005,0.01202 c -0.002,0.0031 -0.003,0.0062 -0.005,0.0097 8.9e-4,-0.003 0.003,-0.0065 0.005,-0.0097 m -0.006,0.01205 c -8.8e-4,0.003 -0.003,0.0065 -0.003,0.0096 8.8e-4,-0.003 0.003,-0.0065 0.003,-0.0096 m -0.005,0.01202 c -0.002,0.0031 -0.003,0.0062 -0.005,0.0097 8.8e-4,-0.003 0.003,-0.0062 0.005,-0.0097 m -0.006,0.01205 c -0.002,0.0034 -0.003,0.0065 -0.004,0.01 8.9e-4,-0.003 0.003,-0.0065 0.004,-0.01 m -0.006,0.01241 c -8.8e-4,0.003 -0.003,0.0065 -0.004,0.01 8.9e-4,-0.003 0.003,-0.0065 0.004,-0.01 m -0.006,0.01241 c -8.8e-4,0.003 -0.003,0.0065 -0.004,0.01 0.002,-0.0034 0.003,-0.0065 0.004,-0.01 m -0.005,0.01165 c -8.8e-4,0.003 -0.002,0.0068 -0.004,0.01033 8.8e-4,-0.003 0.002,-0.0068 0.004,-0.01033 m -0.005,0.01165 c -0.011,0.02703 -0.0217,0.05395 -0.0324,0.08164 0.0105,-0.02725 0.0214,-0.0546 0.0324,-0.08164 m -0.0331,0.08349 c -0.001,0.0027 -0.003,0.0062 -0.004,0.0093 8.8e-4,-0.003 0.003,-0.0065 0.004,-0.0093 m -0.005,0.01269 c -0.001,0.0027 -0.002,0.0054 -0.003,0.0083 0.001,-0.0027 0.002,-0.0054 0.003,-0.0083 m -0.004,0.01229 c -0.001,0.0027 -0.002,0.0054 -0.003,0.0079 0.001,-0.0025 0.002,-0.0052 0.003,-0.0079 m -0.005,0.01229 c -0.001,0.0027 -0.002,0.0054 -0.003,0.0083 0.001,-0.0027 0.002,-0.0054 0.003,-0.0083 m -0.004,0.01229 c -0.001,0.0027 -0.002,0.0054 -0.003,0.0079 0.001,-0.0025 0.002,-0.0052 0.003,-0.0079 m -0.005,0.01306 c -0.001,0.0025 -0.001,0.0048 -0.002,0.0071 0.001,-0.0025 0.001,-0.0048 0.002,-0.0071 m -0.004,0.01229 c -0.001,0.0027 -0.001,0.0044 -0.002,0.0071 0.001,-0.0025 0.001,-0.0048 0.002,-0.0071 m -0.004,0.01266 c -1.6e-4,0.0021 -0.002,0.0048 -0.002,0.0068 0.001,-0.0025 0.001,-0.0044 0.002,-0.0068 m -0.004,0.01229 c -1.6e-4,0.0021 -0.001,0.0044 -0.002,0.0068 0.001,-0.0025 0.001,-0.0044 0.002,-0.0068 m -0.004,0.01266 c -1.6e-4,0.0021 -0.001,0.0044 -0.002,0.0068 0.001,-0.0025 0.001,-0.0044 0.002,-0.0068 m -0.004,0.01229 c -0.001,0.0027 -0.001,0.0044 -0.002,0.0071 0.001,-0.0027 0.001,-0.0048 0.002,-0.0071 m -0.004,0.01266 c -1.7e-4,0.0021 -0.001,0.0044 -0.002,0.0068 0.001,-0.0025 0.001,-0.0044 0.002,-0.0068 m -0.004,0.01297 c -4e-4,0.0016 -0.001,0.0041 -0.003,0.0065 1.6e-4,-0.0021 0.001,-0.0044 0.003,-0.0065 m -0.004,0.01229 c -0.001,0.0025 -0.001,0.0044 -0.002,0.0069 0.001,-0.0025 0.001,-0.0044 0.002,-0.0069 m -0.004,0.01266 c -1.6e-4,0.0021 -0.001,0.0044 -0.002,0.0068 0.001,-0.0025 0.001,-0.0044 0.002,-0.0068 m -0.004,0.01266 c -1.7e-4,0.0021 -0.001,0.0044 -0.002,0.0068 1.7e-4,-0.0021 0.001,-0.0044 0.002,-0.0068 m -0.005,0.01368 c -4e-4,0.0016 -7.3e-4,0.0034 -0.002,0.0054 4.1e-4,-0.0016 0.002,-0.0038 0.002,-0.0054 m -0.004,0.01328 c -4.1e-4,0.0016 -8.9e-4,0.003 -0.001,0.0048 4e-4,-0.0016 8.8e-4,-0.003 0.001,-0.0048 m -0.0101,0.0301 c -2.9e-4,0.0013 -8.9e-4,0.003 -0.001,0.0044 4e-4,-0.0016 0.001,-0.0027 0.001,-0.0044 m -0.004,0.01297 c -4e-4,0.0016 -8.8e-4,0.003 -0.001,0.0048 4.8e-4,-0.0014 8.9e-4,-0.003 0.001,-0.0048 m -0.003,0.01226 c -4.1e-4,0.0016 -7.3e-4,0.0034 -0.002,0.0054 4e-4,-0.0016 7.3e-4,-0.0034 0.002,-0.0054 m -0.004,0.01297 c -4e-4,0.0016 -8.8e-4,0.003 -0.001,0.0048 2.1e-4,-0.0015 8.9e-4,-0.003 0.001,-0.0048 m -0.004,0.01297 c -4.8e-4,0.0014 -8.8e-4,0.003 -0.001,0.0044 4.8e-4,-0.0014 8.8e-4,-0.003 0.001,-0.0044 m -0.004,0.01297 c -4.8e-4,0.0014 -8.8e-4,0.003 -0.001,0.0048 4e-4,-0.0016 8.8e-4,-0.003 0.001,-0.0048 m -0.003,0.01226 c -4e-4,0.0016 -5.6e-4,0.0037 -0.002,0.0054 4e-4,-0.0016 7.2e-4,-0.0034 0.002,-0.0054 m -0.004,0.01328 c -4.8e-4,0.0014 -7.3e-4,0.0034 -0.001,0.0048 4.1e-4,-0.0016 8.9e-4,-0.003 0.001,-0.0048 m -0.004,0.01266 c -4e-4,0.0016 -7.3e-4,0.0034 -0.001,0.005 4e-4,-0.0016 7.3e-4,-0.0034 0.001,-0.005 m -0.004,0.01328 c -4.1e-4,0.0016 -8.9e-4,0.003 -0.001,0.0048 4.8e-4,-0.0014 8.8e-4,-0.003 0.001,-0.0048 m -0.003,0.01257 c -4e-4,0.0016 -7.3e-4,0.0034 -0.002,0.0054 4e-4,-0.0016 7.3e-4,-0.0034 0.002,-0.0054 m -0.004,0.01328 c -4.9e-4,0.0014 -8.9e-4,0.003 -0.001,0.0048 4e-4,-0.0016 7.2e-4,-0.0034 0.001,-0.0048 m -0.004,0.01297 c -4e-4,0.0016 -8.8e-4,0.003 -0.001,0.0048 4e-4,-0.0016 8.9e-4,-0.003 0.001,-0.0048 m -0.004,0.0136 c -2.9e-4,0.0013 -0.001,0.0027 -5.7e-4,0.0037 2.9e-4,-0.0013 0.001,-0.0027 5.7e-4,-0.0037 m -0.003,0.01257 c -4.1e-4,0.0016 -0.001,0.0027 -4.5e-4,0.004 2.1e-4,-0.0015 8.8e-4,-0.003 4.5e-4,-0.004 m -0.004,0.01328 c -2.8e-4,0.0013 -0.001,0.0027 -5.6e-4,0.0037 2.9e-4,-0.0013 0.001,-0.0027 5.6e-4,-0.0037 m -0.004,0.01394 c -4.1e-4,0.001 -4e-4,0.0016 -0.001,0.0027 -7e-5,-8.36e-4 4e-4,-0.0016 0.001,-0.0027 m -0.004,0.0136 c 7e-5,8.32e-4 -4.9e-4,0.0014 -1.7e-4,0.0021 1.4e-4,-3.47e-4 4.8e-4,-0.0014 1.7e-4,-0.0021 m -0.004,0.01394 c 1e-4,2.42e-4 8e-5,8.31e-4 -2.9e-4,0.0013 1.3e-4,-3.46e-4 4.1e-4,-10e-4 2.9e-4,-0.0013 m -0.0169,0.06686 -1.3e-4,3.46e-4 1.3e-4,-3.46e-4 m -0.003,0.01321 c -1.4e-4,3.46e-4 -4.1e-4,10e-4 -4.9e-4,0.0014 -6e-5,-8.36e-4 4.1e-4,-0.001 4.9e-4,-0.0014 m -0.003,0.01289 c -1.3e-4,3.46e-4 -4e-4,0.0016 -1.6e-4,0.0021 -8e-5,-8.32e-4 4e-4,-0.0016 1.6e-4,-0.0021 m -0.003,0.01289 c -2.9e-4,0.0013 -4e-4,0.0016 -8.9e-4,0.003 2.9e-4,-0.0013 1.7e-4,-0.0021 8.9e-4,-0.003 m -0.003,0.01321 c 8e-5,8.31e-4 -4e-4,0.0016 -8e-5,0.0023 -7e-5,-8.36e-4 4e-4,-0.0016 8e-5,-0.0023 m -0.003,0.01321 c 7e-5,8.32e-4 -4e-4,0.0016 -9e-5,0.0023 -7e-5,-8.32e-4 4.1e-4,-0.0016 9e-5,-0.0023 m -0.003,0.01289 c -2.8e-4,0.0013 -1.6e-4,0.0021 -8.8e-4,0.003 4.1e-4,-10e-4 4e-4,-0.0016 8.8e-4,-0.003 m -0.003,0.01321 c -4.1e-4,0.001 -1.6e-4,0.0021 -8.8e-4,0.003 4.1e-4,-0.001 4e-4,-0.0016 8.8e-4,-0.003 m -0.003,0.01355 c 8e-5,8.32e-4 -4e-4,0.0016 -1.6e-4,0.0021 -8e-5,-8.31e-4 4.8e-4,-0.0014 1.6e-4,-0.0021 m -0.003,0.01321 c -4.1e-4,0.001 -4.1e-4,0.0016 -1.7e-4,0.0021 1.4e-4,-3.46e-4 2.9e-4,-0.0013 1.7e-4,-0.0021 m -0.003,0.01355 c -1.4e-4,3.47e-4 -2.9e-4,0.0013 -4e-4,0.0016 6.2e-4,-5.56e-4 4.8e-4,-0.0014 4e-4,-0.0016 m -0.003,0.01321 c -6.2e-4,5.56e-4 -4.8e-4,0.0014 -1.6e-4,0.0021 -8e-5,-8.32e-4 2.1e-4,-0.0015 1.6e-4,-0.0021 m -0.004,0.01426 c -1.3e-4,3.46e-4 -1.3e-4,3.46e-4 -4.1e-4,0.001 1.3e-4,-3.47e-4 1.3e-4,-3.47e-4 4.1e-4,-0.001 m -0.003,0.01355 c 1.1e-4,2.42e-4 1.1e-4,2.42e-4 1.1e-4,2.42e-4 0,0 0,0 -1.1e-4,-2.42e-4 m -0.0346,0.18832 v 0 0 m -0.004,0.02693 c 1e-4,2.42e-4 0,0 1e-4,2.42e-4 l -1e-4,-2.42e-4 m -0.002,0.01346 v 0 0 m -0.002,0.01346 v 0 0 M 0.19158,21.4198 v 0 0 m 0.004,0.01408 c 0,0 0,0 10e-5,2.43e-4 l -10e-5,-2.43e-4 m 0.005,0.01303 c 10e-5,2.42e-4 3.2e-4,7.29e-4 4.4e-4,0.001 -1.1e-4,-2.43e-4 -3.2e-4,-7.29e-4 -4.4e-4,-0.001 m 0.005,0.01334 c 10e-5,2.43e-4 3.1e-4,7.29e-4 2.8e-4,0.0013 1.3e-4,-3.46e-4 -2e-4,-0.0011 -2.8e-4,-0.0013 m 0.005,0.01334 c 1e-4,2.43e-4 1.9e-4,0.0011 5.1e-4,0.0018 -3.1e-4,-7.28e-4 -2e-4,-0.0011 -5.1e-4,-0.0018 m 0.005,0.01368 c -1.3e-4,3.47e-4 8e-5,8.32e-4 2e-4,0.0011 -1.1e-4,-2.42e-4 -8e-5,-8.31e-4 -2e-4,-0.0011 m 0.005,0.01368 c 0,0 7e-5,8.32e-4 1.9e-4,0.0011 -10e-5,-2.42e-4 -1.9e-4,-0.0011 -1.9e-4,-0.0011 m 0.005,0.01334 c 1.1e-4,2.44e-4 3.2e-4,7.29e-4 4.4e-4,0.001 -10e-5,-2.42e-4 -3.1e-4,-7.28e-4 -4.4e-4,-0.001 m 0.005,0.01334 c 3.2e-4,7.29e-4 4.4e-4,0.001 5.2e-4,0.0012 -1.1e-4,-2.42e-4 -3.2e-4,-7.27e-4 -5.2e-4,-0.0012 m 0.005,0.01431 c -2.4e-4,1.03e-4 0,0 -1.3e-4,3.46e-4 l 1.3e-4,-3.46e-4 m 0.0423,0.123129 c 10e-5,2.44e-4 3.1e-4,7.29e-4 3.1e-4,7.29e-4 l -3.1e-4,-7.29e-4 m 0.005,0.01326 c 3.1e-4,7.29e-4 5.1e-4,0.0012 8.3e-4,0.0019 -3.1e-4,-7.28e-4 -5.1e-4,-0.0012 -8.3e-4,-0.0019 m 0.005,0.01325 c 4.4e-4,10e-4 8.3e-4,0.0019 0.001,0.0026 -4.4e-4,-10e-4 -7.5e-4,-0.0017 -0.001,-0.0026 m 0.005,0.0136 c 4.3e-4,10e-4 8.3e-4,0.0019 0.001,0.0029 -4.4e-4,-0.001 -8.4e-4,-0.0019 -0.001,-0.0029 m 0.005,0.01326 c 5.1e-4,0.0012 9.5e-4,0.0022 0.002,0.0036 -5.2e-4,-0.0012 -9.6e-4,-0.0022 -0.002,-0.0036 m 0.005,0.01359 c 4.3e-4,10e-4 9.5e-4,0.0022 0.002,0.0036 -4.3e-4,-10e-4 -0.001,-0.0026 -0.002,-0.0036 m 0.005,0.01305 c 5.2e-4,0.0012 8.8e-4,0.0027 0.001,0.004 -5.1e-4,-0.0012 -8.7e-4,-0.0027 -0.001,-0.004 m 0.005,0.01326 c 7.5e-4,0.0017 0.001,0.0029 0.002,0.0042 -5.1e-4,-0.0012 -0.001,-0.0026 -0.002,-0.0042 m 0.005,0.01339 c 5.2e-4,0.0012 0.001,0.0029 0.002,0.0043 -2.8e-4,-0.0013 -0.001,-0.003 -0.002,-0.0043 m 0.006,0.01338 c 2.6e-4,0.0013 0.001,0.003 0.002,0.0043 -7.5e-4,-0.0017 -0.001,-0.0029 -0.002,-0.0043 m 0.005,0.01305 c 2.8e-4,0.0013 0.001,0.003 0.002,0.0046 -7.5e-4,-0.0017 -0.001,-0.0029 -0.002,-0.0046 m 0.006,0.01338 c 2.7e-4,0.0013 0.001,0.003 0.002,0.0046 -7.5e-4,-0.0017 -0.001,-0.0029 -0.002,-0.0046 m 0.005,0.01305 c 7.5e-4,0.0017 0.001,0.0033 0.002,0.005 -7.5e-4,-0.0017 -0.001,-0.0033 -0.002,-0.005 m 0.005,0.01338 c 7.5e-4,0.0017 0.001,0.0032 0.002,0.0049 -8.3e-4,-0.0019 -0.001,-0.0032 -0.002,-0.0049 m 0.005,0.01305 c 7.5e-4,0.0017 0.002,0.0036 0.002,0.0049 -7.5e-4,-0.0017 -0.001,-0.0032 -0.002,-0.0049 m 0.006,0.0136 c 7.5e-4,0.0017 0.001,0.0032 0.002,0.0045 -7.5e-4,-0.0017 -0.001,-0.0029 -0.002,-0.0045 m 0.006,0.01371 c 5.2e-4,0.0012 0.001,0.0029 0.002,0.0042 -7.6e-4,-0.0017 -0.001,-0.0029 -0.002,-0.0042 m 0.006,0.0136 c 5.1e-4,0.0012 0.001,0.0026 0.002,0.0039 -5.1e-4,-0.0012 -0.001,-0.0026 -0.002,-0.0039 m 0.007,0.01683 c 0.002,0.0039 0.003,0.0078 0.005,0.01166 -0.002,-0.0039 -0.003,-0.0078 -0.005,-0.01134 v 0 m 0.006,0.01458 c 0.001,0.0029 0.003,0.0062 0.004,0.0094 -0.001,-0.0032 -0.003,-0.0065 -0.004,-0.0094 m 0.005,0.01166 c 0.002,0.0039 0.004,0.0077 0.005,0.01155 -0.002,-0.0036 -0.004,-0.0077 -0.005,-0.01155 m 0.006,0.01318 c 0.001,0.0032 0.003,0.0068 0.004,0.01037 -0.002,-0.0036 -0.003,-0.0072 -0.004,-0.01037 m 0.006,0.01294 c 0.003,0.0078 0.007,0.01575 0.0105,0.02352 -0.003,-0.0078 -0.007,-0.01575 -0.0105,-0.02352 m 0.0113,0.02547 c 0.002,0.0036 0.003,0.0071 0.005,0.01058 -0.002,-0.0036 -0.003,-0.0072 -0.005,-0.01058 m 0.006,0.01221 c 0.002,0.0039 0.004,0.0077 0.005,0.01186 -0.002,-0.0042 -0.004,-0.008 -0.005,-0.01186 m 0.006,0.01317 c 0.002,0.0036 0.003,0.0067 0.005,0.01058 -0.002,-0.0036 -0.003,-0.0071 -0.005,-0.01058 m 0.006,0.01253 c 0.004,0.008 0.007,0.01575 0.0111,0.02366 -0.004,-0.0077 -0.007,-0.01575 -0.0111,-0.02366 m 0.0118,0.02526 c 0.002,0.0035 0.003,0.0073 0.005,0.01069 -0.002,-0.0035 -0.003,-0.0073 -0.005,-0.01069 m 0.006,0.012 c 0.002,0.0039 0.004,0.008 0.006,0.0122 -0.002,-0.0042 -0.004,-0.008 -0.006,-0.0122 m 0.006,0.0122 c 0.002,0.0041 0.004,0.0077 0.006,0.01166 -0.002,-0.0037 -0.004,-0.008 -0.006,-0.01166 m 0.007,0.01329 c 0.004,0.008 0.008,0.01555 0.0113,0.02357 -0.004,-0.008 -0.008,-0.01554 -0.0113,-0.02357 m 0.012,0.02518 c 0.002,0.0038 0.004,0.0071 0.006,0.01103 -0.002,-0.0039 -0.004,-0.0077 -0.006,-0.01103 m 0.006,0.01165 c 0.004,0.0078 0.008,0.01612 0.0116,0.02421 -0.004,-0.0083 -0.008,-0.01589 -0.0116,-0.02421 m 0.013,0.02511 c 0.004,0.0077 0.008,0.0158 0.0114,0.02389 -0.004,-0.008 -0.008,-0.0158 -0.0114,-0.02389 m 0.0118,0.02486 c 0.002,0.0037 0.004,0.0071 0.006,0.01126 -0.002,-0.0038 -0.004,-0.0078 -0.006,-0.01126 m 0.006,0.01191 c 0.004,0.0078 0.008,0.0158 0.0123,0.02349 -0.004,-0.0078 -0.008,-0.0158 -0.0123,-0.02349 m 0.013,0.02511 c 0.004,0.0075 0.008,0.0158 0.0123,0.02349 -0.004,-0.0078 -0.008,-0.0158 -0.0123,-0.02349 m 0.0126,0.02414 c 0.002,0.0037 0.004,0.0075 0.006,0.01126 -0.002,-0.0038 -0.004,-0.0075 -0.006,-0.01126 m 0.006,0.01191 c 0.004,0.0078 0.009,0.01572 0.0123,0.02349 -0.004,-0.0078 -0.009,-0.01541 -0.0123,-0.02349 m 0.0129,0.02479 c 0.004,0.0078 0.009,0.01541 0.0123,0.02349 -0.004,-0.0078 -0.009,-0.01541 -0.0123,-0.02349 m 0.0127,0.02447 c 0.002,0.0035 0.004,0.0068 0.006,0.01029 -0.002,-0.0035 -0.004,-0.0068 -0.006,-0.01029 m 0.006,0.01223 c 0.004,0.0075 0.009,0.01475 0.0119,0.02252 -0.004,-0.0075 -0.009,-0.01475 -0.0119,-0.02252 m 0.0137,0.02407 c 0.002,0.0037 0.004,0.0071 0.006,0.0106 -0.002,-0.0035 -0.004,-0.0068 -0.006,-0.0106 m 0.006,0.01126 c 0.002,0.0037 0.004,0.0075 0.006,0.01157 -0.002,-0.0041 -0.004,-0.0078 -0.006,-0.01157 m 0.007,0.01352 c 0.002,0.0031 0.004,0.0062 0.005,0.0093 -0.002,-0.0029 -0.004,-0.0061 -0.005,-0.0093 m 0.006,0.01126 c 0.004,0.0074 0.009,0.01475 0.0128,0.02212 -0.004,-0.0075 -0.009,-0.01475 -0.0128,-0.02212 m 0.0138,0.02439 c 0.002,0.0033 0.004,0.0064 0.005,0.01 -0.002,-0.0035 -0.004,-0.0068 -0.005,-0.01 m 0.007,0.01086 c 0.002,0.0037 0.004,0.0071 0.006,0.01095 -0.002,-0.0035 -0.004,-0.007 -0.006,-0.01095 m 0.008,0.01281 c 0.002,0.0031 0.003,0.0058 0.005,0.009 -0.002,-0.0031 -0.003,-0.0058 -0.005,-0.009 m 0.006,0.01157 c 0.002,0.0035 0.004,0.007 0.007,0.01055 -0.002,-0.0035 -0.004,-0.007 -0.007,-0.01055 m 0.007,0.01086 c 0.002,0.0033 0.004,0.0068 0.006,0.0099 -0.002,-0.0033 -0.004,-0.0068 -0.006,-0.0099 m 0.008,0.01312 c 0.002,0.0028 0.003,0.0056 0.005,0.0083 -0.002,-0.0028 -0.003,-0.0055 -0.005,-0.0083 m 0.007,0.01055 c 0.002,0.0035 0.004,0.0068 0.006,0.01061 -0.002,-0.0038 -0.004,-0.007 -0.006,-0.01061 m 0.008,0.01312 c 0.002,0.0023 0.003,0.0047 0.004,0.0077 -0.002,-0.0028 -0.003,-0.0052 -0.004,-0.0077 m 0.007,0.01086 c 0.002,0.0031 0.003,0.0058 0.005,0.0087 -0.002,-0.0026 -0.003,-0.0054 -0.005,-0.0087 m 0.008,0.01249 c 0.001,0.0025 0.003,0.0052 0.004,0.0077 -0.001,-0.0025 -0.003,-0.0052 -0.004,-0.0077 m 0.007,0.01152 c 0.001,0.0025 0.003,0.0045 0.004,0.0068 -0.001,-0.0021 -0.003,-0.0046 -0.004,-0.0068 m 0.007,0.01055 c 0.002,0.0029 0.004,0.0061 0.006,0.0089 -0.002,-0.0031 -0.004,-0.0061 -0.006,-0.0089 m 0.008,0.01346 c 0.001,0.0018 0.003,0.0039 0.004,0.0058 -0.001,-0.0018 -0.002,-0.0035 -0.004,-0.0058 m 0.007,0.01055 c 0.001,0.0021 0.003,0.0039 0.004,0.0058 -0.001,-0.0018 -0.002,-0.0035 -0.004,-0.0058 m 0.008,0.01346 c 0.001,0.0018 0.002,0.0035 0.003,0.0055 -0.001,-0.0018 -0.002,-0.0035 -0.003,-0.0055 m 0.007,0.01086 c 5.2e-4,0.0012 0.002,0.0031 0.003,0.0042 -7.6e-4,-0.0011 -0.002,-0.0029 -0.003,-0.0042 m 0.006,0.0099 c 0,0 10e-5,2.42e-4 3.1e-4,7.28e-4 -1e-4,-2.42e-4 -3.1e-4,-7.28e-4 -3.1e-4,-7.28e-4 m 0.009,0.01404 c 7.6e-4,0.0011 0.002,0.0023 0.002,0.0035 -5.2e-4,-0.0012 -0.001,-0.0025 -0.002,-0.0035 m 0.006,0.0096 c 4.3e-4,0.001 0.001,0.0021 0.002,0.0033 -7.6e-4,-0.0011 -0.002,-0.0019 -0.002,-0.0033 m 0.01,0.01564 c 3.2e-4,7.29e-4 7.6e-4,0.0011 0.001,0.0018 -3.1e-4,-7.28e-4 -7.6e-4,-0.0011 -0.001,-0.0018 m 0.006,0.0086 c 3.2e-4,7.29e-4 0.001,0.0016 0.001,0.0021 -4.4e-4,-0.001 -7.5e-4,-0.0017 -0.001,-0.0021 m 0.0158,0.02392 c 3.1e-4,7.29e-4 7.6e-4,0.0011 0.001,0.0018 -3.1e-4,-7.28e-4 -7.6e-4,-0.0011 -0.001,-0.0018"
     style="fill:#1d456c;fill-opacity:1;fill-rule:nonzero;stroke:none;stroke-width:0.03527778"
     id="path848" />
  <path
     d="m 2.43737,16.085347 c -0.1687,0.948483 -0.16763,1.8985 -0.0124,2.813004 -0.51929,1.129667 -0.57515,2.467126 -0.0428,3.698228 0.37523,0.867796 0.98924,1.558932 1.73197,2.029532 -1.32629,-0.126027 -2.5632,-0.833775 -3.33347,-1.974293 -3.1e-4,-7.28e-4 -7.6e-4,-0.0011 -0.001,-0.0018 -0.005,-0.007 -0.01,-0.01467 -0.0148,-0.02164 -3.2e-4,-7.29e-4 -9.9e-4,-0.0016 -0.001,-0.0021 -0.001,-0.0025 -0.003,-0.0047 -0.004,-0.007 -3.1e-4,-7.29e-4 -7.5e-4,-0.0011 -0.001,-0.0018 -0.003,-0.0041 -0.006,-0.0083 -0.008,-0.01249 -7.6e-4,-0.0011 -0.002,-0.0023 -0.002,-0.0033 -0.001,-0.0021 -0.003,-0.0038 -0.004,-0.0061 -5.2e-4,-0.0012 -0.001,-0.0025 -0.002,-0.0035 -0.003,-0.0045 -0.006,-0.0089 -0.009,-0.01338 -1.1e-4,-2.43e-4 -3.2e-4,-7.29e-4 -3.2e-4,-7.29e-4 -0.001,-0.0018 -0.002,-0.0035 -0.004,-0.0058 -7.7e-4,-0.0011 -0.002,-0.0029 -0.003,-0.0042 -0.001,-0.0018 -0.002,-0.0035 -0.003,-0.0055 -0.001,-0.0018 -0.002,-0.0035 -0.003,-0.0055 -0.001,-0.0025 -0.003,-0.0051 -0.004,-0.0077 -0.001,-0.0018 -0.002,-0.0035 -0.004,-0.0058 -9.9e-4,-0.0016 -0.002,-0.0029 -0.003,-0.0047 -0.001,-0.0018 -0.003,-0.0039 -0.004,-0.0058 -5.2e-4,-0.0012 -0.002,-0.0028 -0.003,-0.0042 -0.002,-0.0029 -0.004,-0.0061 -0.006,-0.0089 -7.5e-4,-0.0017 -0.002,-0.0028 -0.003,-0.0039 -0.001,-0.0021 -0.003,-0.0042 -0.004,-0.0068 -5.2e-4,-0.0012 -0.002,-0.0028 -0.003,-0.0039 -0.001,-0.0025 -0.003,-0.0052 -0.004,-0.0077 -7.6e-4,-0.0011 -0.002,-0.0026 -0.003,-0.0039 -0.002,-0.0026 -0.003,-0.0054 -0.005,-0.0087 -7.7e-4,-0.0011 -0.001,-0.0021 -0.002,-0.0033 -0.002,-0.0028 -0.003,-0.0052 -0.004,-0.0077 -5.2e-4,-0.0012 -8.4e-4,-0.0019 -0.002,-0.0028 -0.002,-0.0037 -0.004,-0.007 -0.006,-0.0106 -5.6e-4,-6.22e-4 -0.001,-0.0018 -0.002,-0.0023 -0.002,-0.0028 -0.003,-0.0055 -0.005,-0.0083 -6.8e-4,-9.03e-4 -0.001,-0.0021 -0.002,-0.0031 -0.002,-0.0033 -0.004,-0.0068 -0.006,-0.0099 l -1.1e-4,-2.43e-4 c -0.002,-0.0035 -0.004,-0.007 -0.007,-0.01055 -4.4e-4,-0.001 -8.3e-4,-0.0019 -0.001,-0.0025 -0.002,-0.0031 -0.003,-0.0058 -0.005,-0.009 -3.2e-4,-7.29e-4 -0.001,-0.0016 -0.001,-0.0021 -0.002,-0.0035 -0.004,-0.007 -0.006,-0.01095 -5.6e-4,-6.25e-4 -6.8e-4,-9.06e-4 -7.6e-4,-0.0011 -0.002,-0.0035 -0.004,-0.0065 -0.005,-0.01 -3.2e-4,-7.29e-4 -7.6e-4,-0.0017 -0.001,-0.0021 -0.004,-0.0075 -0.009,-0.01474 -0.0128,-0.02212 -3.1e-4,-7.29e-4 -5.1e-4,-0.0012 -8.3e-4,-0.0019 -0.002,-0.0029 -0.004,-0.0061 -0.005,-0.0093 -3.1e-4,-7.28e-4 -5.1e-4,-0.0012 -0.001,-0.0018 -0.002,-0.0041 -0.004,-0.0078 -0.006,-0.01157 0,0 -3.5e-4,-1.35e-4 -5.6e-4,-6.22e-4 -0.002,-0.0035 -0.004,-0.0068 -0.006,-0.0106 -3.1e-4,-7.29e-4 -7.5e-4,-0.0011 -0.001,-0.0018 -0.004,-0.0075 -0.009,-0.01475 -0.0119,-0.02252 -3.1e-4,-7.29e-4 -5.1e-4,-0.0012 -0.001,-0.0018 -0.002,-0.0035 -0.004,-0.0068 -0.006,-0.01029 -1.1e-4,-2.43e-4 -3.2e-4,-7.29e-4 -4.4e-4,-0.001 -0.004,-0.0078 -0.009,-0.01541 -0.0123,-0.02349 -10e-5,-2.42e-4 -3.1e-4,-7.28e-4 -5.1e-4,-0.0012 -0.004,-0.0075 -0.009,-0.01541 -0.0123,-0.02349 l -3.2e-4,-7.29e-4 c -0.002,-0.0038 -0.004,-0.0075 -0.006,-0.01126 -10e-5,-2.42e-4 -3.1e-4,-7.29e-4 -3.1e-4,-7.29e-4 -0.004,-0.0078 -0.008,-0.01611 -0.0123,-0.02349 -3.1e-4,-7.28e-4 -4.3e-4,-10e-4 -7.5e-4,-0.0017 -0.004,-0.0078 -0.008,-0.0158 -0.0123,-0.02349 -10e-5,-2.43e-4 -10e-5,-2.43e-4 -3.1e-4,-7.28e-4 -0.002,-0.0041 -0.004,-0.0075 -0.006,-0.01126 -1.1e-4,-2.44e-4 -3.2e-4,-7.29e-4 -4.4e-4,-0.001 -0.004,-0.008 -0.008,-0.01612 -0.0114,-0.02389 -3.1e-4,-7.28e-4 -4.3e-4,-10e-4 -7.5e-4,-0.0011 -0.004,-0.008 -0.008,-0.0162 -0.0116,-0.02421 -1.1e-4,-2.43e-4 -3.2e-4,-7.29e-4 -3.2e-4,-7.29e-4 -0.002,-0.0039 -0.003,-0.0073 -0.006,-0.01103 -3.1e-4,-7.28e-4 -4.3e-4,-0.001 -7.5e-4,-0.0017 -0.004,-0.008 -0.008,-0.01554 -0.0113,-0.02357 -3.2e-4,-7.29e-4 -5.2e-4,-0.0012 -7.6e-4,-0.0017 -0.002,-0.0041 -0.004,-0.0077 -0.006,-0.01165 v 0 c -0.002,-0.0042 -0.004,-0.0083 -0.006,-0.0122 -10e-5,-2.42e-4 -4.3e-4,-0.001 -5.1e-4,-0.0012 -0.002,-0.0035 -0.003,-0.0073 -0.005,-0.01069 -3.2e-4,-7.29e-4 -4.4e-4,-0.001 -7.6e-4,-0.0017 -0.004,-0.008 -0.007,-0.01576 -0.0111,-0.02365 -3.1e-4,-7.28e-4 -5.1e-4,-0.0012 -8.3e-4,-0.0019 -0.002,-0.0039 -0.003,-0.0071 -0.005,-0.01058 -3.1e-4,-7.29e-4 -4.3e-4,-0.001 -5.1e-4,-0.0012 -0.002,-0.0042 -0.004,-0.008 -0.005,-0.01186 -3.1e-4,-7.28e-4 -5.1e-4,-0.0012 -7.5e-4,-0.0017 -0.002,-0.0036 -0.003,-0.0071 -0.005,-0.01058 -3.1e-4,-7.29e-4 -5.2e-4,-0.0012 -8.3e-4,-0.0019 -0.003,-0.0078 -0.007,-0.01575 -0.0105,-0.02352 -4.3e-4,-0.001 -7.5e-4,-0.0017 -0.001,-0.0026 -0.002,-0.0036 -0.003,-0.0072 -0.004,-0.01037 -3.2e-4,-7.29e-4 -4.4e-4,-0.001 -7.6e-4,-0.0017 -0.002,-0.0039 -0.004,-0.0077 -0.005,-0.01155 -3.1e-4,-7.29e-4 -7.5e-4,-0.0017 -9.5e-4,-0.0022 -0.001,-0.0032 -0.003,-0.0065 -0.004,-0.0094 -5.2e-4,-0.0012 -9.6e-4,-0.0022 -0.001,-0.0032 -0.002,-0.0039 -0.003,-0.0078 -0.005,-0.01166 -0.002,-0.0042 -0.004,-0.0087 -0.006,-0.01294 -5.1e-4,-0.0012 -0.001,-0.0026 -0.002,-0.0039 -0.001,-0.0032 -0.003,-0.0062 -0.004,-0.0094 -5.2e-4,-0.0012 -0.001,-0.0029 -0.002,-0.0042 -0.001,-0.0029 -0.002,-0.0063 -0.004,-0.0092 -5.1e-4,-0.0012 -0.001,-0.0029 -0.002,-0.0045 -0.001,-0.0029 -0.003,-0.0059 -0.004,-0.0087 -5.2e-4,-0.0012 -0.001,-0.0032 -0.002,-0.0049 -0.001,-0.0026 -0.002,-0.0056 -0.003,-0.0082 -7.5e-4,-0.0017 -0.001,-0.0032 -0.002,-0.0049 -0.001,-0.0029 -0.002,-0.0058 -0.004,-0.0084 -7.6e-4,-0.0017 -0.001,-0.0033 -0.002,-0.005 -0.001,-0.0026 -0.003,-0.0059 -0.004,-0.0084 -7.5e-4,-0.0017 -0.001,-0.0032 -0.002,-0.0046 -0.001,-0.0029 -0.003,-0.0059 -0.004,-0.0087 -7.5e-4,-0.0017 -0.001,-0.0032 -0.002,-0.0046 -0.001,-0.0029 -0.003,-0.0059 -0.004,-0.0087 -5.2e-4,-0.0012 -0.001,-0.0029 -0.002,-0.0043 -0.001,-0.0029 -0.003,-0.0061 -0.004,-0.0091 -2.8e-4,-0.0013 -0.001,-0.003 -0.002,-0.0043 -0.001,-0.0032 -0.003,-0.0059 -0.004,-0.0092 -5.1e-4,-0.0012 -0.001,-0.0026 -0.002,-0.0042 -0.001,-0.003 -0.002,-0.006 -0.004,-0.0092 -5.2e-4,-0.0012 -8.8e-4,-0.0027 -0.001,-0.004 -0.001,-0.0032 -0.003,-0.0061 -0.004,-0.0095 -5.2e-4,-0.0012 -0.001,-0.0026 -0.002,-0.0036 -0.001,-0.0037 -0.003,-0.0066 -0.003,-0.01002 -5.2e-4,-0.0012 -9.5e-4,-0.0022 -0.002,-0.0036 -0.001,-0.0033 -0.003,-0.0069 -0.004,-0.01035 -4.4e-4,-0.001 -8.4e-4,-0.0019 -0.001,-0.0029 -0.001,-0.0032 -0.003,-0.0073 -0.004,-0.011 -3.1e-4,-7.29e-4 -7.5e-4,-0.0017 -0.001,-0.0026 -0.001,-0.0037 -0.003,-0.0075 -0.004,-0.01132 -3.2e-4,-7.29e-4 -5.2e-4,-0.0012 -8.4e-4,-0.0019 -0.001,-0.004 -0.003,-0.0082 -0.005,-0.01263 0,0 -1.1e-4,-2.42e-4 -3.2e-4,-7.29e-4 -0.0154,-0.04062 -0.0288,-0.08171 -0.0431,-0.122409 1.3e-4,-3.46e-4 -1.1e-4,-2.43e-4 1.3e-4,-3.46e-4 -0.002,-0.0043 -0.003,-0.0088 -0.005,-0.01303 -1.1e-4,-2.43e-4 -3.2e-4,-7.28e-4 -5.2e-4,-0.0012 -0.001,-0.004 -0.003,-0.0084 -0.004,-0.01237 -1e-4,-2.42e-4 -3.1e-4,-7.27e-4 -4.3e-4,-10e-4 -0.001,-0.004 -0.003,-0.0081 -0.004,-0.01237 -10e-5,-2.42e-4 -1.9e-4,-0.0011 -1.9e-4,-0.0011 -0.002,-0.0043 -0.003,-0.0084 -0.004,-0.0127 -1.1e-4,-2.43e-4 -3.2e-4,-7.28e-4 -2e-4,-0.0011 -0.001,-0.004 -0.003,-0.0081 -0.004,-0.01205 -3.2e-4,-7.29e-4 -2.7e-4,-0.0013 -5.1e-4,-0.0019 -0.001,-0.004 -0.003,-0.0081 -0.004,-0.01205 -8e-5,-8.32e-4 -2e-4,-0.0011 -2.8e-4,-0.0013 -0.001,-0.004 -0.003,-0.0084 -0.004,-0.01237 -10e-5,-2.43e-4 -3.1e-4,-7.29e-4 -4.3e-4,-10e-4 -0.001,-0.0045 -0.003,-0.0085 -0.004,-0.01271 -10e-5,-2.42e-4 -10e-5,-2.42e-4 -10e-5,-2.42e-4 -0.001,-0.0048 -0.003,-0.0091 -0.004,-0.01407 v 0 C -0.00533,20.757995 -0.04733,20.081264 0.05086,19.431924 v 0 c 2.9e-4,-0.0044 0.001,-0.0091 0.002,-0.01346 v 0 c 2.9e-4,-0.0044 0.002,-0.0088 0.002,-0.01315 -1.1e-4,-2.43e-4 0,0 -1.1e-4,-2.43e-4 0.001,-0.0091 0.003,-0.01788 0.004,-0.02693 v 0 c 0.0101,-0.06279 0.0219,-0.125532 0.0348,-0.187996 0,0 0,0 -10e-5,-2.42e-4 4.5e-4,-0.004 0.002,-0.0085 0.002,-0.01249 1.3e-4,-3.46e-4 1.3e-4,-3.46e-4 4.1e-4,-0.001 5.6e-4,-0.0037 0.002,-0.0081 0.002,-0.01187 -7e-5,-8.35e-4 2.1e-4,-0.0015 1.7e-4,-0.0021 5.6e-4,-0.0037 0.001,-0.0075 0.002,-0.0111 6.2e-4,-5.56e-4 4.8e-4,-0.0014 4e-4,-0.0016 5.7e-4,-0.0037 0.001,-0.0075 0.003,-0.0115 1.3e-4,-3.45e-4 2.9e-4,-0.0013 1.6e-4,-0.0021 7.3e-4,-0.0034 0.001,-0.0071 0.002,-0.01083 1.3e-4,-3.46e-4 4.8e-4,-0.0014 1.6e-4,-0.0021 7.3e-4,-0.0034 0.001,-0.0071 0.002,-0.01046 4.1e-4,-0.001 1.6e-4,-0.0021 8.8e-4,-0.003 7.2e-4,-0.0034 0.001,-0.0067 0.002,-0.01018 -7e-5,-8.32e-4 4.1e-4,-0.0016 8.9e-4,-0.003 7.2e-4,-0.0034 0.001,-0.0067 0.002,-0.01018 -8e-5,-8.32e-4 4e-4,-0.0016 9e-5,-0.0023 5.6e-4,-0.0037 0.001,-0.0071 0.003,-0.01085 -8e-5,-8.32e-4 4e-4,-0.0016 8e-5,-0.0023 7.3e-4,-0.0034 0.001,-0.0067 0.002,-0.01018 2.8e-4,-0.0013 4e-4,-0.0016 8.8e-4,-0.003 7.2e-4,-0.0034 0.002,-0.0075 0.003,-0.01086 1.4e-4,-3.45e-4 4e-4,-0.0016 1.7e-4,-0.0021 5.6e-4,-0.0037 0.002,-0.0079 0.003,-0.0115 1.3e-4,-3.45e-4 4.1e-4,-0.001 4.8e-4,-0.0014 4.5e-4,-0.004 0.002,-0.0085 0.003,-0.01289 l 1.4e-4,-3.51e-4 c 0.006,-0.02199 0.0111,-0.04362 0.0166,-0.06561 1.3e-4,-3.46e-4 4.1e-4,-0.001 2.8e-4,-0.0013 0.001,-0.0041 0.002,-0.0079 0.004,-0.0119 -8e-5,-8.32e-4 4.8e-4,-0.0014 1.6e-4,-0.0021 7.2e-4,-0.0034 0.002,-0.0071 0.003,-0.01086 -7e-5,-8.31e-4 4e-4,-0.0016 0.001,-0.0027 7.2e-4,-0.0034 0.002,-0.0065 0.002,-0.0098 2.9e-4,-0.0013 0.001,-0.0027 5.6e-4,-0.0037 8.9e-4,-0.003 0.002,-0.0061 0.003,-0.0089 2.1e-4,-0.0015 9e-5,-0.0023 4.5e-4,-0.004 8.8e-4,-0.003 0.002,-0.0058 0.003,-0.0089 2.9e-4,-0.0013 0.001,-0.0027 5.6e-4,-0.0037 8.9e-4,-0.003 0.002,-0.0058 0.003,-0.0089 4.1e-4,-0.0016 8.9e-4,-0.003 0.001,-0.0048 0.001,-0.0027 0.001,-0.005 0.002,-0.0079 4e-4,-0.0016 7.2e-4,-0.0034 0.001,-0.0048 0.001,-0.0027 0.001,-0.005 0.002,-0.0079 4.1e-4,-0.0016 7.3e-4,-0.0034 0.001,-0.005 10e-4,-0.0027 10e-4,-0.005 0.002,-0.0079 4e-4,-0.0016 8.8e-4,-0.003 0.001,-0.0048 0.001,-0.0027 0.002,-0.0054 0.002,-0.0078 4.1e-4,-0.0016 7.3e-4,-0.0034 0.001,-0.005 0.001,-0.0025 0.002,-0.0052 0.002,-0.0075 4.8e-4,-0.0014 7.2e-4,-0.0034 0.001,-0.0048 0.001,-0.0027 0.001,-0.005 0.002,-0.0079 4.9e-4,-0.0014 7.3e-4,-0.0034 0.001,-0.005 0.001,-0.0025 0.002,-0.0052 0.002,-0.0075 4e-4,-0.0016 7.2e-4,-0.0034 0.001,-0.0048 0.001,-0.0027 0.002,-0.0054 0.003,-0.0085 4.8e-4,-0.0014 8.9e-4,-0.003 0.001,-0.0044 0.001,-0.0027 0.001,-0.005 0.003,-0.0082 4.1e-4,-0.0016 8.9e-4,-0.003 0.001,-0.0048 0.001,-0.0027 0.001,-0.0048 0.002,-0.0075 4e-4,-0.0016 7.2e-4,-0.0034 0.002,-0.0054 0.001,-0.0027 0.001,-0.0048 0.002,-0.0075 4e-4,-0.0016 8.8e-4,-0.003 0.002,-0.0052 10e-4,-0.0027 0.002,-0.0058 0.003,-0.0085 4.8e-4,-0.0014 8.9e-4,-0.003 0.001,-0.0044 0.003,-0.0083 0.005,-0.01657 0.008,-0.02512 4e-4,-0.0016 8.8e-4,-0.003 0.002,-0.0052 0.001,-0.0027 0.001,-0.005 0.002,-0.0079 4e-4,-0.0016 0.002,-0.0038 0.002,-0.0054 0.001,-0.0025 0.001,-0.0044 0.002,-0.0068 1.7e-4,-0.0021 0.001,-0.0044 0.002,-0.0068 4e-4,-0.0016 0.001,-0.0041 0.002,-0.0058 0.001,-0.0025 0.001,-0.0044 0.002,-0.0068 4e-4,-0.0016 0.001,-0.0041 0.002,-0.0058 0.001,-0.0025 0.001,-0.0044 0.002,-0.0068 4e-4,-0.0016 0.001,-0.0041 0.002,-0.0058 0.001,-0.0025 0.001,-0.0044 0.003,-0.0065 1.7e-4,-0.0021 0.001,-0.0041 0.002,-0.0061 0.001,-0.0025 0.001,-0.0044 0.002,-0.0068 4e-4,-0.0016 0.002,-0.0038 0.002,-0.0054 0.001,-0.0027 0.001,-0.0044 0.002,-0.0071 4e-4,-0.0016 7.2e-4,-0.0034 0.002,-0.0054 0.001,-0.0025 0.001,-0.0044 0.002,-0.0069 4e-4,-0.0016 10e-4,-0.0041 0.002,-0.0058 0.001,-0.0025 0.002,-0.0048 0.002,-0.0068 4e-4,-0.0016 0.002,-0.0038 0.002,-0.0054 1.7e-4,-0.0021 0.002,-0.0048 0.002,-0.0068 4e-4,-0.0016 0.002,-0.0038 0.002,-0.0054 0.001,-0.0027 0.002,-0.0048 0.002,-0.0071 4e-4,-0.0016 8.8e-4,-0.003 0.002,-0.0052 0.001,-0.0025 0.001,-0.0048 0.002,-0.0071 4e-4,-0.0016 8.8e-4,-0.003 0.002,-0.0052 0.001,-0.0025 0.002,-0.0052 0.003,-0.0079 4.8e-4,-0.0014 0.001,-0.0027 0.001,-0.0041 0.001,-0.0027 0.002,-0.0054 0.003,-0.0083 4.8e-4,-0.0014 0.001,-0.0027 0.001,-0.0044 0.001,-0.0025 0.002,-0.0052 0.003,-0.0079 4.8e-4,-0.0014 0.001,-0.0025 0.001,-0.0041 0.001,-0.0027 0.002,-0.0054 0.003,-0.0083 6.1e-4,-0.0011 0.001,-0.0025 0.002,-0.0034 8.9e-4,-0.003 0.003,-0.0065 0.004,-0.0093 -8e-5,-8.31e-4 4.8e-4,-0.0014 4e-4,-0.0016 0.0107,-0.02769 0.0214,-0.0546 0.0324,-0.08164 1.3e-4,-3.46e-4 6e-4,-0.0011 4.8e-4,-0.0014 8.8e-4,-0.003 0.002,-0.0069 0.004,-0.01033 1.3e-4,-3.45e-4 4.8e-4,-0.0014 4e-4,-0.0016 0.002,-0.0034 0.003,-0.0065 0.004,-0.01 4.1e-4,-10e-4 4e-4,-0.0016 0.001,-0.0025 0.002,-0.0034 0.003,-0.0065 0.004,-0.01 4.1e-4,-0.001 4.9e-4,-0.0014 0.001,-0.0025 8.8e-4,-0.003 0.003,-0.0065 0.004,-0.01 1.4e-4,-3.47e-4 4.8e-4,-0.0014 0.001,-0.0025 8.9e-4,-0.003 0.003,-0.0065 0.005,-0.0097 -8e-5,-8.32e-4 4e-4,-0.0016 0.001,-0.0025 8.8e-4,-0.003 0.003,-0.0065 0.003,-0.0096 6.2e-4,-5.56e-4 4.8e-4,-0.0014 0.001,-0.0025 8.8e-4,-0.003 0.003,-0.0065 0.005,-0.0097 -8e-5,-8.32e-4 4e-4,-0.0016 0.001,-0.0027 0.001,-0.0027 0.003,-0.0062 0.004,-0.0093 6.2e-4,-5.57e-4 4.9e-4,-0.0014 0.001,-0.0025 8.8e-4,-0.003 0.003,-0.0065 0.005,-0.0097 4.1e-4,-0.001 4e-4,-0.0016 0.001,-0.0025 0.002,-0.0034 0.003,-0.0065 0.004,-0.01 6.2e-4,-5.57e-4 4.8e-4,-0.0014 0.001,-0.002 0.002,-0.0034 0.004,-0.0069 0.004,-0.01 1.4e-4,-3.46e-4 4.9e-4,-0.0014 4.1e-4,-0.0016 0.002,-0.0034 0.004,-0.0069 0.004,-0.01 -7e-5,-8.32e-4 4.1e-4,-10e-4 4e-4,-0.0016 0.002,-0.0034 0.004,-0.0069 0.005,-0.01073 0,0 -10e-5,-2.42e-4 1.3e-4,-3.45e-4 0.002,-0.0038 0.003,-0.0075 0.005,-0.01137 0,0 2.5e-4,-1.07e-4 1.4e-4,-3.51e-4 0.0216,-0.04701 0.0439,-0.09394 0.067,-0.140061 2.5e-4,-1.07e-4 1.4e-4,-3.5e-4 1.4e-4,-3.5e-4 0.002,-0.0034 0.003,-0.0072 0.006,-0.0114 0,0 0,0 -1.1e-4,-2.43e-4 0.002,-0.0034 0.004,-0.0069 0.006,-0.01113 2.4e-4,-1.03e-4 6.2e-4,-5.55e-4 4.1e-4,-10e-4 0.002,-0.0034 0.004,-0.0069 0.006,-0.01113 l 1.3e-4,-3.46e-4 c 0.002,-0.0034 0.003,-0.0072 0.006,-0.01113 1.4e-4,-3.49e-4 1.4e-4,-3.49e-4 4.2e-4,-0.001 0.002,-0.0034 0.004,-0.0069 0.006,-0.01113 0,0 1.3e-4,-3.46e-4 6.2e-4,-5.56e-4 0.002,-0.0038 0.003,-0.0072 0.005,-0.01073 1.5e-4,-3.49e-4 6.3e-4,-5.59e-4 6.1e-4,-0.0011 0.002,-0.0034 0.004,-0.0069 0.005,-0.01037 1.4e-4,-3.49e-4 1.4e-4,-3.49e-4 4.2e-4,-0.001 0.0382,-0.07263 0.0782,-0.144497 0.12053,-0.21546 v 0 C 0.7207,17.622086 0.82603,17.4674 0.94141,17.319119 l 1.3e-4,-3.47e-4 c 0.002,-0.0029 0.005,-0.0064 0.008,-0.0098 0,0 1.5e-4,-3.5e-4 6.3e-4,-5.6e-4 0.002,-0.0029 0.005,-0.0064 0.008,-0.0098 l 2.4e-4,-1.03e-4 c 0.002,-0.0031 0.005,-0.0064 0.008,-0.0098 2.4e-4,-1.03e-4 6.2e-4,-5.56e-4 8.1e-4,-6.4e-4 0.003,-0.0035 0.005,-0.0064 0.007,-0.0097 2.5e-4,-1.07e-4 2.5e-4,-1.07e-4 6.2e-4,-5.57e-4 0.003,-0.0033 0.005,-0.0064 0.008,-0.0095 1.5e-4,-3.5e-4 6.3e-4,-5.6e-4 6.1e-4,-0.0011 0.002,-0.0029 0.005,-0.006 0.008,-0.0093 2.5e-4,-1.08e-4 2.5e-4,-1.08e-4 2.5e-4,-1.08e-4 0.003,-0.0035 0.006,-0.0068 0.008,-0.01011 v 0 c 0.0327,-0.04068 0.0663,-0.08055 0.10068,-0.120017 1.5e-4,-3.5e-4 6.3e-4,-5.6e-4 6.1e-4,-0.0011 0.002,-0.0024 0.005,-0.0057 0.008,-0.0087 1.4e-4,-3.5e-4 8.1e-4,-6.4e-4 6e-4,-0.0011 0.002,-0.0024 0.005,-0.0057 0.007,-0.0082 6.3e-4,-5.61e-4 0.002,-0.0015 0.001,-0.0018 0.002,-0.0029 0.004,-0.0053 0.007,-0.0082 6.3e-4,-5.6e-4 6e-4,-0.0011 0.001,-0.0018 0.002,-0.0029 0.004,-0.0053 0.007,-0.0082 6.3e-4,-5.61e-4 0.002,-0.0015 0.001,-0.002 0.002,-0.0024 0.005,-0.0046 0.007,-0.0074 8.2e-4,-6.4e-4 0.002,-0.0015 0.002,-0.0024 0.002,-0.0022 0.005,-0.0046 0.007,-0.0072 6.1e-4,-0.0011 0.001,-0.0018 0.003,-0.0033 0.002,-0.0022 0.005,-0.0046 0.007,-0.0072 8.1e-4,-6.4e-4 0.001,-0.0018 0.002,-0.0024 0.002,-0.0024 0.004,-0.005 0.007,-0.0074 8.1e-4,-6.39e-4 0.002,-0.0015 0.002,-0.0024 0.002,-0.0022 0.005,-0.0046 0.007,-0.0072 8.1e-4,-6.4e-4 0.001,-0.0018 0.002,-0.0024 0.002,-0.0024 0.004,-0.005 0.007,-0.0072 6e-4,-0.0011 10e-4,-0.0018 0.002,-0.0029 0.002,-0.0022 0.005,-0.0046 0.007,-0.0072 8.1e-4,-6.39e-4 0.002,-0.0015 0.002,-0.0024 0.002,-0.0022 0.005,-0.0046 0.007,-0.0072 8.1e-4,-6.39e-4 0.002,-0.0015 0.002,-0.0022 0.002,-0.0024 0.004,-0.005 0.008,-0.0078 6.3e-4,-5.6e-4 6e-4,-0.0011 10e-4,-0.0018 0.002,-0.0024 0.004,-0.005 0.007,-0.0074 8.2e-4,-6.4e-4 6.1e-4,-0.0011 10e-4,-0.0018 0.0141,-0.01458 0.0282,-0.0291 0.0419,-0.04347 6e-4,-0.0011 10e-4,-0.0018 0.002,-0.0024 0.002,-0.0024 0.004,-0.0042 0.006,-0.0064 6e-4,-0.0011 0.002,-0.0022 0.004,-0.0037 10e-4,-0.0018 0.004,-0.0039 0.005,-0.0053 0.002,-0.0015 0.003,-0.0033 0.005,-0.0046 0.002,-0.0015 0.003,-0.0028 0.005,-0.0046 0.002,-0.0015 0.003,-0.0033 0.005,-0.0046 0.002,-0.0015 0.003,-0.0033 0.005,-0.0046 0.001,-0.0018 0.003,-0.0033 0.005,-0.0046 10e-4,-0.0018 0.003,-0.0033 0.005,-0.0046 0.001,-0.0018 0.003,-0.0033 0.005,-0.0046 10e-4,-0.0018 0.003,-0.0033 0.004,-0.005 0.002,-0.0015 0.003,-0.0028 0.005,-0.0046 0.002,-0.0015 0.003,-0.0028 0.005,-0.0043 10e-4,-0.0018 0.004,-0.0037 0.005,-0.0053 0.002,-0.0015 0.003,-0.0028 0.005,-0.0043 10e-4,-0.0018 0.004,-0.0037 0.005,-0.0053 6e-4,-0.0011 0.003,-0.0028 0.004,-0.0039 0.002,-0.0015 0.004,-0.0037 0.006,-0.0057 0.002,-0.0015 0.002,-0.0022 0.004,-0.0037 0.002,-0.0022 0.004,-0.0039 0.006,-0.0061 8.2e-4,-6.41e-4 0.002,-0.0022 0.003,-0.0028 0.002,-0.0024 0.005,-0.0046 0.007,-0.0068 8.1e-4,-6.4e-4 0.002,-0.0022 0.003,-0.0028 0.002,-0.0022 0.005,-0.0043 0.007,-0.0065 6e-4,-0.0011 10e-4,-0.0018 0.003,-0.0028 0.002,-0.0024 0.005,-0.0046 0.007,-0.0068 8.2e-4,-6.39e-4 0.002,-0.0022 0.003,-0.0028 0.002,-0.0022 0.005,-0.0043 0.008,-0.0072 8.1e-4,-6.39e-4 0.002,-0.0015 0.002,-0.0022 0.002,-0.0022 0.005,-0.005 0.008,-0.0073 6.3e-4,-5.61e-4 0.002,-0.0015 0.001,-0.0018 0.003,-0.0028 0.006,-0.0057 0.01,-0.0088 -10e-5,-2.42e-4 -10e-5,-2.42e-4 1.5e-4,-3.49e-4 0.0373,-0.03459 0.0752,-0.06866 0.11376,-0.102226 v 0 c 0.004,-0.0032 0.007,-0.0061 0.0106,-0.0092 v 0 c 0.003,-0.0028 0.007,-0.0061 0.0103,-0.009 l 2.4e-4,-1.07e-4 C 1.82139,16.446807 2.1075,16.251608 2.42025,16.088702 m 1.37999,-0.459103 c 1.10958,-0.179604 2.23192,0.06497 3.15535,0.650376 -0.73625,-0.06984 -1.49965,0.03926 -2.22627,0.353443 -0.44588,0.192794 -0.84533,0.448532 -1.19199,0.752548 0.0129,-0.582495 0.0988,-1.171528 0.26277,-1.756692"
     style="fill:#dededc;fill-opacity:1;fill-rule:nonzero;stroke:none;stroke-width:0.03527778"
     id="path850" />
  <path
     d="m 26.30098,26.286203 0.004,-0.05509 c -0.004,-0.159488 -0.13624,-0.285849 -0.29607,-0.282078 l -20.61868,-1.994961 -0.0253,0.413368 20.93623,1.918759"
     style="fill:#17314a;fill-opacity:1;fill-rule:nonzero;stroke:none;stroke-width:0.03527778"
     id="path856" />
  <path
     d="m 26.02276,26.527188 c 0.14113,-0.0034 0.2559,-0.106835 0.27822,-0.240985 l -20.93624,-1.91876 -0.0239,0.392749 20.68191,1.766996"
     style="fill:#23437d;fill-opacity:1;fill-rule:nonzero;stroke:none;stroke-width:0.03527778"
     id="path858" />
  <path
     d="m 14.58972,0.086006 c 0.0993,-0.100197 0.25324,-0.112985 0.36614,-0.03764 L 2.01315,16.616223 1.71064,16.364602 14.58972,0.086004"
     style="fill:#23437d;fill-opacity:1;fill-rule:nonzero;stroke:none;stroke-width:0.03527778"
     id="path866" />
  <path
     d="m 24.03357,9.05947 0.0264,0.04853 c 0.0634,0.146683 -0.004,0.316759 -0.15025,0.380508 L 6.0336,19.956126 5.83753,19.591609 24.03325,9.059594"
     style="fill:#17314a;fill-opacity:1;fill-rule:nonzero;stroke:none;stroke-width:0.03527778"
     id="path872" />
  <path
     d="m 23.67975,8.957639 c 0.12952,-0.056 0.27694,-0.01021 0.35382,0.101831 L 5.83784,19.591485 5.65104,19.244871 23.67973,8.95765"
     style="fill:#23437d;fill-opacity:1;fill-rule:nonzero;stroke:none;stroke-width:0.03527778"
     id="path874" />
  <path
     d="m 2.43735,16.085355 c 0.0975,-0.05098 0.19827,-0.09878 0.30092,-0.14317 0.35326,-0.152748 0.71554,-0.257123 1.07893,-0.316247 -0.89768,3.201168 0.54542,6.538614 3.49258,8.07729 -0.29198,0.224263 -0.61618,0.416712 -0.96944,0.56946 -0.10298,0.04453 -0.20652,0.08505 -0.31076,0.121307 -2.75856,-1.802019 -4.16917,-5.064344 -3.5923,-8.308593"
     style="fill:#666666;fill-opacity:1;fill-rule:nonzero;stroke:none;stroke-width:0.03527778"
     id="path846" />
  <path
     d="m 1.58064,16.664877 -2.4e-4,1.04e-4 2.4e-4,-1.04e-4 m -0.0106,0.0092 v 0 0 m -0.0106,0.0092 v 0 0 m -0.11376,0.102226 c -2.5e-4,1.07e-4 -2.5e-4,1.07e-4 -1.4e-4,3.5e-4 l 1.4e-4,-3.5e-4 m -0.01,0.0093 c -6.3e-4,5.6e-4 -0.002,0.0015 -0.001,0.0018 6.2e-4,-5.57e-4 0.002,-0.0015 0.001,-0.0018 m -0.01,0.0093 c -8.2e-4,6.39e-4 -0.002,0.0015 -0.002,0.0022 8.1e-4,-6.39e-4 0.002,-0.0015 0.002,-0.0022 m -0.01,0.0093 c -8.2e-4,6.4e-4 -0.002,0.0022 -0.003,0.0028 8.1e-4,-6.4e-4 0.002,-0.0015 0.003,-0.0028 m -0.01,0.0095 c -8.1e-4,6.39e-4 -0.002,0.0019 -0.003,0.0028 6e-4,-0.0011 0.001,-0.0018 0.003,-0.0028 m -0.01,0.0093 c -8.1e-4,6.4e-4 -0.002,0.0022 -0.003,0.0028 8.1e-4,-6.4e-4 0.002,-0.0022 0.003,-0.0028 m -0.01,0.0097 c -8.2e-4,6.39e-4 -0.002,0.0022 -0.003,0.0028 8.1e-4,-6.4e-4 0.002,-0.0022 0.003,-0.0028 m -0.01,0.0091 c -0.002,0.0015 -0.002,0.0022 -0.004,0.0037 0.002,-0.0015 0.002,-0.0022 0.004,-0.0037 m -0.01,0.0093 c -6e-4,0.0011 -0.002,0.0024 -0.004,0.0039 6.1e-4,-0.0011 0.002,-0.0024 0.004,-0.0039 m -0.009,0.0094 c -0.002,0.0015 -0.003,0.0028 -0.005,0.0043 0.002,-0.0015 0.003,-0.0028 0.005,-0.0043 m -0.009,0.0094 c -0.002,0.0015 -0.003,0.0028 -0.005,0.0043 0.002,-0.0015 0.003,-0.0028 0.005,-0.0043 m -0.01,0.0091 c -10e-4,0.0018 -0.003,0.0033 -0.004,0.005 0.001,-0.0018 0.003,-0.0033 0.004,-0.005 m -0.01,0.0099 c -0.002,0.0015 -0.003,0.0028 -0.005,0.0046 10e-4,-0.0018 0.003,-0.0033 0.005,-0.0046 m -0.009,0.0094 c -0.002,0.0015 -0.004,0.0037 -0.005,0.0046 0.001,-0.0018 0.003,-0.0033 0.005,-0.0046 m -0.01,0.0095 c -0.001,0.0018 -0.003,0.0033 -0.005,0.0046 0.002,-0.0015 0.003,-0.0028 0.005,-0.0046 m -0.009,0.0093 c -0.002,0.0015 -0.004,0.0037 -0.005,0.0053 10e-4,-0.0018 0.004,-0.0039 0.005,-0.0053 m -0.009,0.0088 c -0.002,0.0022 -0.004,0.0039 -0.006,0.0064 0.002,-0.0024 0.004,-0.0042 0.006,-0.0064 m -0.009,0.0091 c -0.0137,0.01442 -0.0278,0.02894 -0.0419,0.04348 0.0141,-0.01458 0.028,-0.02942 0.0419,-0.04348 m -0.0434,0.04528 c -0.002,0.0024 -0.004,0.005 -0.008,0.0078 0.002,-0.0024 0.004,-0.005 0.008,-0.0078 m -0.009,0.0096 c -0.002,0.0024 -0.004,0.005 -0.007,0.0074 0.002,-0.0024 0.004,-0.005 0.007,-0.0074 m -0.009,0.0098 c -0.002,0.0024 -0.004,0.005 -0.007,0.0072 0.002,-0.0022 0.005,-0.0046 0.007,-0.0072 m -0.009,0.0098 c -0.002,0.0024 -0.004,0.005 -0.007,0.0072 0.002,-0.0022 0.005,-0.0046 0.007,-0.0072 m -0.009,0.01006 c -0.002,0.0022 -0.005,0.0046 -0.007,0.0072 0.002,-0.0024 0.004,-0.005 0.007,-0.0072 m -0.009,0.0096 c -0.002,0.0024 -0.004,0.005 -0.007,0.0072 0.002,-0.0022 0.005,-0.0046 0.007,-0.0072 m -0.009,0.0098 c -0.002,0.0024 -0.004,0.005 -0.007,0.0074 0.002,-0.0024 0.004,-0.005 0.007,-0.0074 m -0.009,0.0099 c -0.002,0.0024 -0.004,0.005 -0.007,0.0072 0.002,-0.0022 0.005,-0.0046 0.007,-0.0072 m -0.009,0.01006 c -0.002,0.0024 -0.004,0.005 -0.007,0.0072 0.002,-0.0022 0.005,-0.0046 0.007,-0.0072 m -0.009,0.0096 c -0.002,0.0029 -0.004,0.005 -0.007,0.0074 0.002,-0.0024 0.005,-0.0046 0.007,-0.0074 m -0.008,0.0097 c -0.002,0.0024 -0.004,0.005 -0.007,0.0082 0.002,-0.0024 0.004,-0.0053 0.007,-0.0082 m -0.009,0.0099 c -0.002,0.0024 -0.004,0.005 -0.007,0.0082 0.002,-0.0029 0.004,-0.0053 0.007,-0.0082 m -0.009,0.0099 c -0.002,0.0024 -0.005,0.0057 -0.007,0.0082 0.002,-0.0024 0.005,-0.0057 0.007,-0.0082 m -0.008,0.0093 c -0.002,0.0029 -0.005,0.006 -0.008,0.0087 0.003,-0.0028 0.005,-0.0057 0.008,-0.0087 m -0.008,0.0097 c -0.0345,0.03949 -0.0679,0.07932 -0.1007,0.120022 0.0327,-0.04068 0.0663,-0.08055 0.1007,-0.120022 m -0.1007,0.120022 c -0.003,0.0035 -0.006,0.0068 -0.008,0.01011 0.003,-0.0035 0.006,-0.007 0.008,-0.01011 m -0.009,0.01027 c -0.002,0.0031 -0.005,0.0064 -0.008,0.0093 0.003,-0.0033 0.005,-0.0064 0.008,-0.0093 m -0.008,0.01048 c -0.003,0.0033 -0.005,0.0064 -0.008,0.0095 0.002,-0.0029 0.005,-0.0064 0.008,-0.0095 m -0.008,0.01011 c -0.002,0.0031 -0.005,0.0064 -0.007,0.0097 0.003,-0.0035 0.005,-0.0064 0.007,-0.0097 m -0.008,0.01048 c -0.002,0.0031 -0.005,0.0064 -0.008,0.0098 0.002,-0.0031 0.005,-0.0064 0.008,-0.0098 m -0.008,0.01 c -0.002,0.0031 -0.005,0.0066 -0.008,0.0098 0.002,-0.0031 0.005,-0.0064 0.008,-0.0098 m -0.008,0.01048 c -0.003,0.0035 -0.005,0.0066 -0.008,0.0098 0.002,-0.0029 0.005,-0.0064 0.008,-0.0098 m -0.008,0.01027 c -0.11537,0.148275 -0.22067,0.302963 -0.3165,0.463547 0.0955,-0.160445 0.20114,-0.31527 0.3165,-0.463547 m -0.3165,0.463547 c -0.0423,0.07095 -0.0824,0.142844 -0.12053,0.215463 0.0382,-0.07263 0.0785,-0.14464 0.12053,-0.215463 m -0.1209,0.21639 c -0.002,0.0034 -0.004,0.0069 -0.005,0.01036 0.002,-0.0034 0.004,-0.0069 0.005,-0.01036 m -0.006,0.01148 c -0.002,0.0034 -0.004,0.0069 -0.005,0.01073 0.002,-0.0034 0.003,-0.0072 0.005,-0.01073 m -0.006,0.0114 c -0.002,0.0038 -0.003,0.0072 -0.006,0.01113 0.002,-0.0034 0.004,-0.0069 0.006,-0.01113 m -0.006,0.01185 c -0.002,0.0034 -0.003,0.0072 -0.006,0.01113 0.002,-0.0038 0.003,-0.0072 0.006,-0.01113 m -0.006,0.0114 c -0.002,0.0038 -0.003,0.0072 -0.006,0.01113 0.002,-0.0034 0.003,-0.0072 0.006,-0.01113 m -0.006,0.01185 c -0.002,0.0038 -0.003,0.0072 -0.006,0.01113 0.002,-0.0034 0.004,-0.0069 0.006,-0.01113 m -0.006,0.0114 c -0.003,0.0042 -0.004,0.0079 -0.006,0.0114 0.002,-0.0038 0.003,-0.0072 0.006,-0.0114 m -0.006,0.01185 c -0.0231,0.04611 -0.0455,0.09308 -0.067,0.140065 0.0215,-0.04697 0.0439,-0.09394 0.067,-0.140065 m -0.0672,0.140527 c -0.002,0.0038 -0.003,0.0075 -0.005,0.01137 0.002,-0.0038 0.003,-0.0075 0.005,-0.01137 m -0.006,0.01205 c -0.002,0.0038 -0.003,0.0072 -0.005,0.01073 0.002,-0.0034 0.003,-0.0072 0.005,-0.01073 m -0.006,0.01241 c -0.002,0.0034 -0.004,0.0069 -0.004,0.01 0.002,-0.0034 0.004,-0.0069 0.004,-0.01 m -0.006,0.01205 c -8.8e-4,0.003 -0.003,0.0065 -0.004,0.01 0.002,-0.0034 0.003,-0.0065 0.004,-0.01 m -0.006,0.01205 c -8.8e-4,0.003 -0.003,0.0065 -0.004,0.01 0.002,-0.0034 0.003,-0.0065 0.004,-0.01 m -0.006,0.01241 c -0.001,0.0027 -0.003,0.0062 -0.005,0.0097 0.002,-0.0034 0.003,-0.0065 0.005,-0.0097 m -0.006,0.01205 c -8.8e-4,0.003 -0.003,0.0065 -0.004,0.0093 0.001,-0.0027 0.003,-0.0062 0.004,-0.0093 m -0.005,0.01202 c -0.002,0.0031 -0.003,0.0062 -0.005,0.0097 8.9e-4,-0.003 0.003,-0.0065 0.005,-0.0097 m -0.006,0.01205 c -8.8e-4,0.003 -0.003,0.0065 -0.003,0.0096 8.8e-4,-0.003 0.003,-0.0065 0.003,-0.0096 m -0.005,0.01202 c -0.002,0.0031 -0.003,0.0062 -0.005,0.0097 8.8e-4,-0.003 0.003,-0.0062 0.005,-0.0097 m -0.006,0.01205 c -0.002,0.0034 -0.003,0.0065 -0.004,0.01 8.9e-4,-0.003 0.003,-0.0065 0.004,-0.01 m -0.006,0.01241 c -8.8e-4,0.003 -0.003,0.0065 -0.004,0.01 8.9e-4,-0.003 0.003,-0.0065 0.004,-0.01 m -0.006,0.01241 c -8.8e-4,0.003 -0.003,0.0065 -0.004,0.01 0.002,-0.0034 0.003,-0.0065 0.004,-0.01 m -0.005,0.01165 c -8.8e-4,0.003 -0.002,0.0068 -0.004,0.01033 8.8e-4,-0.003 0.002,-0.0068 0.004,-0.01033 m -0.005,0.01165 c -0.011,0.02703 -0.0217,0.05395 -0.0324,0.08164 0.0105,-0.02725 0.0214,-0.0546 0.0324,-0.08164 m -0.0331,0.08349 c -0.001,0.0027 -0.003,0.0062 -0.004,0.0093 8.8e-4,-0.003 0.003,-0.0065 0.004,-0.0093 m -0.005,0.01269 c -0.001,0.0027 -0.002,0.0054 -0.003,0.0083 0.001,-0.0027 0.002,-0.0054 0.003,-0.0083 m -0.004,0.01229 c -0.001,0.0027 -0.002,0.0054 -0.003,0.0079 0.001,-0.0025 0.002,-0.0052 0.003,-0.0079 m -0.005,0.01229 c -0.001,0.0027 -0.002,0.0054 -0.003,0.0083 0.001,-0.0027 0.002,-0.0054 0.003,-0.0083 m -0.004,0.01229 c -0.001,0.0027 -0.002,0.0054 -0.003,0.0079 0.001,-0.0025 0.002,-0.0052 0.003,-0.0079 m -0.005,0.01306 c -0.001,0.0025 -0.001,0.0048 -0.002,0.0071 0.001,-0.0025 0.001,-0.0048 0.002,-0.0071 m -0.004,0.01229 c -0.001,0.0027 -0.001,0.0044 -0.002,0.0071 0.001,-0.0025 0.001,-0.0048 0.002,-0.0071 m -0.004,0.01266 c -1.6e-4,0.0021 -0.002,0.0048 -0.002,0.0068 0.001,-0.0025 0.001,-0.0044 0.002,-0.0068 m -0.004,0.01229 c -1.6e-4,0.0021 -0.001,0.0044 -0.002,0.0068 0.001,-0.0025 0.001,-0.0044 0.002,-0.0068 m -0.004,0.01266 c -1.6e-4,0.0021 -0.001,0.0044 -0.002,0.0068 0.001,-0.0025 0.001,-0.0044 0.002,-0.0068 m -0.004,0.01229 c -0.001,0.0027 -0.001,0.0044 -0.002,0.0071 0.001,-0.0027 0.001,-0.0048 0.002,-0.0071 m -0.004,0.01266 c -1.7e-4,0.0021 -0.001,0.0044 -0.002,0.0068 0.001,-0.0025 0.001,-0.0044 0.002,-0.0068 m -0.004,0.01297 c -4e-4,0.0016 -0.001,0.0041 -0.003,0.0065 1.6e-4,-0.0021 10e-4,-0.0044 0.003,-0.0065 m -0.004,0.01229 c -0.001,0.0025 -0.001,0.0044 -0.002,0.0069 0.001,-0.0025 0.001,-0.0044 0.002,-0.0069 m -0.004,0.01266 c -1.6e-4,0.0021 -0.001,0.0044 -0.002,0.0068 0.001,-0.0025 0.001,-0.0044 0.002,-0.0068 m -0.004,0.01266 c -1.7e-4,0.0021 -0.001,0.0044 -0.002,0.0068 1.7e-4,-0.0021 0.001,-0.0044 0.002,-0.0068 m -0.005,0.01368 c -4e-4,0.0016 -7.3e-4,0.0034 -0.002,0.0054 4.1e-4,-0.0016 0.002,-0.0038 0.002,-0.0054 m -0.004,0.01328 c -4.1e-4,0.0016 -8.9e-4,0.003 -0.001,0.0048 4e-4,-0.0016 8.8e-4,-0.003 0.001,-0.0048 m -0.0101,0.0301 c -2.9e-4,0.0013 -8.9e-4,0.003 -0.001,0.0044 4e-4,-0.0016 0.001,-0.0027 0.001,-0.0044 m -0.004,0.01297 c -4e-4,0.0016 -8.8e-4,0.003 -0.001,0.0048 4.8e-4,-0.0014 8.9e-4,-0.003 0.001,-0.0048 m -0.003,0.01226 c -4.1e-4,0.0016 -7.3e-4,0.0034 -0.002,0.0054 4e-4,-0.0016 7.3e-4,-0.0034 0.002,-0.0054 m -0.004,0.01297 c -4e-4,0.0016 -8.8e-4,0.003 -0.001,0.0048 2.1e-4,-0.0015 8.9e-4,-0.003 0.001,-0.0048 m -0.004,0.01297 c -4.8e-4,0.0014 -8.8e-4,0.003 -10e-4,0.0044 4.8e-4,-0.0014 8.8e-4,-0.003 10e-4,-0.0044 m -0.004,0.01297 c -4.8e-4,0.0014 -8.8e-4,0.003 -0.001,0.0048 4e-4,-0.0016 8.8e-4,-0.003 0.001,-0.0048 m -0.003,0.01226 c -4e-4,0.0016 -5.6e-4,0.0037 -0.002,0.0054 4e-4,-0.0016 7.2e-4,-0.0034 0.002,-0.0054 m -0.004,0.01328 c -4.8e-4,0.0014 -7.3e-4,0.0034 -0.001,0.0048 4.1e-4,-0.0016 8.9e-4,-0.003 0.001,-0.0048 m -0.004,0.01266 c -4e-4,0.0016 -7.3e-4,0.0034 -0.001,0.005 4e-4,-0.0016 7.3e-4,-0.0034 0.001,-0.005 m -0.004,0.01328 c -4.1e-4,0.0016 -8.9e-4,0.003 -0.001,0.0048 4.8e-4,-0.0014 8.8e-4,-0.003 0.001,-0.0048 m -0.003,0.01257 c -4e-4,0.0016 -7.3e-4,0.0034 -0.002,0.0054 4e-4,-0.0016 7.3e-4,-0.0034 0.002,-0.0054 m -0.004,0.01328 c -4.9e-4,0.0014 -8.9e-4,0.003 -0.001,0.0048 4e-4,-0.0016 7.2e-4,-0.0034 0.001,-0.0048 m -0.004,0.01297 c -4e-4,0.0016 -8.8e-4,0.003 -0.001,0.0048 4e-4,-0.0016 8.9e-4,-0.003 0.001,-0.0048 m -0.004,0.0136 c -2.9e-4,0.0013 -0.001,0.0027 -5.7e-4,0.0037 2.9e-4,-0.0013 0.001,-0.0027 5.7e-4,-0.0037 m -0.003,0.01257 c -4.1e-4,0.0016 -0.001,0.0027 -4.5e-4,0.004 2.1e-4,-0.0015 8.8e-4,-0.003 4.5e-4,-0.004 m -0.004,0.01328 c -2.8e-4,0.0013 -0.001,0.0027 -5.6e-4,0.0037 2.9e-4,-0.0013 0.001,-0.0027 5.6e-4,-0.0037 m -0.004,0.01394 c -4.1e-4,10e-4 -4e-4,0.0016 -0.001,0.0027 -7e-5,-8.36e-4 4e-4,-0.0016 0.001,-0.0027 m -0.004,0.0136 c 7e-5,8.32e-4 -4.9e-4,0.0014 -1.7e-4,0.0021 1.4e-4,-3.47e-4 4.8e-4,-0.0014 1.7e-4,-0.0021 m -0.004,0.01394 c 1e-4,2.42e-4 8e-5,8.31e-4 -2.9e-4,0.0013 1.3e-4,-3.46e-4 4.1e-4,-0.001 2.9e-4,-0.0013 m -0.0169,0.06686 -1.3e-4,3.46e-4 1.3e-4,-3.46e-4 m -0.003,0.01321 c -1.4e-4,3.46e-4 -4.1e-4,0.001 -4.9e-4,0.0014 -6e-5,-8.36e-4 4.1e-4,-10e-4 4.9e-4,-0.0014 m -0.003,0.01289 c -1.3e-4,3.46e-4 -4e-4,0.0016 -1.6e-4,0.0021 -8e-5,-8.32e-4 4e-4,-0.0016 1.6e-4,-0.0021 m -0.003,0.01289 c -2.9e-4,0.0013 -4e-4,0.0016 -8.9e-4,0.003 2.9e-4,-0.0013 1.7e-4,-0.0021 8.9e-4,-0.003 m -0.003,0.01321 c 8e-5,8.31e-4 -4e-4,0.0016 -8e-5,0.0023 -7e-5,-8.36e-4 4e-4,-0.0016 8e-5,-0.0023 m -0.003,0.01321 c 7e-5,8.32e-4 -4e-4,0.0016 -9e-5,0.0023 -7e-5,-8.32e-4 4.1e-4,-0.0016 9e-5,-0.0023 m -0.003,0.01289 c -2.8e-4,0.0013 -1.6e-4,0.0021 -8.8e-4,0.003 4.1e-4,-0.001 4e-4,-0.0016 8.8e-4,-0.003 m -0.003,0.01321 c -4.1e-4,10e-4 -1.6e-4,0.0021 -8.8e-4,0.003 4.1e-4,-0.001 4e-4,-0.0016 8.8e-4,-0.003 m -0.003,0.01355 c 8e-5,8.32e-4 -4e-4,0.0016 -1.6e-4,0.0021 -8e-5,-8.31e-4 4.8e-4,-0.0014 1.6e-4,-0.0021 m -0.003,0.01321 c -4.1e-4,0.001 -4.1e-4,0.0016 -1.7e-4,0.0021 1.4e-4,-3.46e-4 2.9e-4,-0.0013 1.7e-4,-0.0021 m -0.003,0.01355 c -1.4e-4,3.47e-4 -2.9e-4,0.0013 -4e-4,0.0016 6.2e-4,-5.56e-4 4.8e-4,-0.0014 4e-4,-0.0016 m -0.003,0.01321 c -6.2e-4,5.56e-4 -4.8e-4,0.0014 -1.6e-4,0.0021 -8e-5,-8.32e-4 2.1e-4,-0.0015 1.6e-4,-0.0021 m -0.004,0.01426 c -1.3e-4,3.46e-4 -1.3e-4,3.46e-4 -4.1e-4,0.001 1.3e-4,-3.47e-4 1.3e-4,-3.47e-4 4.1e-4,-0.001 m -0.003,0.01355 c 1.1e-4,2.42e-4 1.1e-4,2.42e-4 1.1e-4,2.42e-4 0,0 0,0 -1.1e-4,-2.42e-4 m -0.0346,0.18832 v 0 0 m -0.004,0.02693 c 1e-4,2.42e-4 0,0 1e-4,2.42e-4 l -1e-4,-2.42e-4 m -0.002,0.01346 v 0 0 m -0.002,0.01346 v 0 0 m 0.14328,1.984679 v 0 0 m 0.004,0.01408 c 0,0 0,0 10e-5,2.43e-4 l -10e-5,-2.43e-4 m 0.005,0.01303 c 1e-4,2.42e-4 3.2e-4,7.29e-4 4.4e-4,0.001 -1.1e-4,-2.43e-4 -3.2e-4,-7.29e-4 -4.4e-4,-0.001 m 0.005,0.01334 c 1e-4,2.43e-4 3.1e-4,7.29e-4 2.8e-4,0.0013 1.3e-4,-3.46e-4 -2e-4,-0.0011 -2.8e-4,-0.0013 m 0.005,0.01334 c 10e-5,2.43e-4 1.9e-4,0.0011 5.1e-4,0.0018 -3.1e-4,-7.28e-4 -2e-4,-0.0011 -5.1e-4,-0.0018 m 0.005,0.01368 c -1.3e-4,3.47e-4 8e-5,8.32e-4 2e-4,0.0011 -1.1e-4,-2.42e-4 -8e-5,-8.31e-4 -2e-4,-0.0011 m 0.005,0.01368 c 0,0 7e-5,8.32e-4 1.9e-4,0.0011 -10e-5,-2.42e-4 -1.9e-4,-0.0011 -1.9e-4,-0.0011 m 0.005,0.01334 c 1.1e-4,2.44e-4 3.2e-4,7.29e-4 4.4e-4,0.001 -1e-4,-2.42e-4 -3.1e-4,-7.28e-4 -4.4e-4,-0.001 m 0.005,0.01334 c 3.2e-4,7.29e-4 4.4e-4,0.001 5.2e-4,0.0012 -1.1e-4,-2.42e-4 -3.2e-4,-7.27e-4 -5.2e-4,-0.0012 m 0.005,0.01431 c -2.4e-4,1.03e-4 0,0 -1.3e-4,3.46e-4 l 1.3e-4,-3.46e-4 m 0.0423,0.123129 c 10e-5,2.44e-4 3.1e-4,7.29e-4 3.1e-4,7.29e-4 l -3.1e-4,-7.29e-4 m 0.005,0.01326 c 3.1e-4,7.29e-4 5.1e-4,0.0012 8.3e-4,0.0019 -3.1e-4,-7.28e-4 -5.1e-4,-0.0012 -8.3e-4,-0.0019 m 0.005,0.01325 c 4.4e-4,0.001 8.3e-4,0.0019 0.001,0.0026 -4.4e-4,-10e-4 -7.5e-4,-0.0017 -0.001,-0.0026 m 0.005,0.0136 c 4.3e-4,0.001 8.3e-4,0.0019 0.001,0.0029 -4.4e-4,-10e-4 -8.4e-4,-0.0019 -0.001,-0.0029 m 0.005,0.01326 c 5.1e-4,0.0012 9.5e-4,0.0022 0.002,0.0036 -5.2e-4,-0.0012 -9.6e-4,-0.0022 -0.002,-0.0036 m 0.005,0.01359 c 4.3e-4,0.001 9.5e-4,0.0022 0.002,0.0036 -4.3e-4,-0.001 -0.001,-0.0026 -0.002,-0.0036 m 0.005,0.01305 c 5.2e-4,0.0012 8.8e-4,0.0027 0.001,0.004 -5.1e-4,-0.0012 -8.7e-4,-0.0027 -0.001,-0.004 m 0.005,0.01326 c 7.5e-4,0.0017 10e-4,0.0029 0.002,0.0042 -5.1e-4,-0.0012 -0.001,-0.0026 -0.002,-0.0042 m 0.005,0.01339 c 5.2e-4,0.0012 0.001,0.0029 0.002,0.0043 -2.8e-4,-0.0013 -0.001,-0.003 -0.002,-0.0043 m 0.006,0.01338 c 2.6e-4,0.0013 0.001,0.003 0.002,0.0043 -7.5e-4,-0.0017 -0.001,-0.0029 -0.002,-0.0043 m 0.005,0.01305 c 2.8e-4,0.0013 0.001,0.003 0.002,0.0046 -7.5e-4,-0.0017 -0.001,-0.0029 -0.002,-0.0046 m 0.006,0.01338 c 2.7e-4,0.0013 0.001,0.003 0.002,0.0046 -7.5e-4,-0.0017 -0.001,-0.0029 -0.002,-0.0046 m 0.005,0.01305 c 7.5e-4,0.0017 0.001,0.0033 0.002,0.005 -7.5e-4,-0.0017 -0.001,-0.0033 -0.002,-0.005 m 0.005,0.01338 c 7.5e-4,0.0017 0.001,0.0032 0.002,0.0049 -8.3e-4,-0.0019 -0.001,-0.0032 -0.002,-0.0049 m 0.005,0.01305 c 7.5e-4,0.0017 0.002,0.0036 0.002,0.0049 -7.5e-4,-0.0017 -0.001,-0.0032 -0.002,-0.0049 m 0.006,0.0136 c 7.5e-4,0.0017 0.001,0.0032 0.002,0.0045 -7.5e-4,-0.0017 -0.001,-0.0029 -0.002,-0.0045 m 0.006,0.01371 c 5.2e-4,0.0012 0.001,0.0029 0.002,0.0042 -7.6e-4,-0.0017 -0.001,-0.0029 -0.002,-0.0042 m 0.006,0.0136 c 5.1e-4,0.0012 0.001,0.0026 0.002,0.0039 -5.1e-4,-0.0012 -0.001,-0.0026 -0.002,-0.0039 m 0.007,0.01683 c 0.002,0.0039 0.003,0.0078 0.005,0.01166 -0.002,-0.0039 -0.003,-0.0078 -0.005,-0.01134 v 0 m 0.006,0.01458 c 0.001,0.0029 0.003,0.0062 0.004,0.0094 -0.001,-0.0032 -0.003,-0.0065 -0.004,-0.0094 m 0.005,0.01166 c 0.002,0.0039 0.004,0.0077 0.005,0.01155 -0.002,-0.0036 -0.004,-0.0077 -0.005,-0.01155 m 0.006,0.01318 c 0.001,0.0032 0.003,0.0068 0.004,0.01037 -0.002,-0.0036 -0.003,-0.0072 -0.004,-0.01037 m 0.006,0.01294 c 0.003,0.0078 0.007,0.01575 0.0105,0.02352 -0.003,-0.0078 -0.007,-0.01575 -0.0105,-0.02352 m 0.0113,0.02547 c 0.002,0.0036 0.003,0.0071 0.005,0.01058 -0.002,-0.0036 -0.003,-0.0072 -0.005,-0.01058 m 0.006,0.01221 c 0.002,0.0039 0.004,0.0077 0.005,0.01186 -0.002,-0.0042 -0.004,-0.008 -0.005,-0.01186 m 0.006,0.01317 c 0.002,0.0036 0.003,0.0067 0.005,0.01058 -0.002,-0.0036 -0.003,-0.0071 -0.005,-0.01058 m 0.006,0.01253 c 0.004,0.008 0.007,0.01575 0.0111,0.02366 -0.004,-0.0077 -0.007,-0.01575 -0.0111,-0.02366 m 0.0118,0.02526 c 0.002,0.0035 0.003,0.0073 0.005,0.01069 -0.002,-0.0035 -0.003,-0.0073 -0.005,-0.01069 m 0.006,0.012 c 0.002,0.0039 0.004,0.008 0.006,0.0122 -0.002,-0.0042 -0.004,-0.008 -0.006,-0.0122 m 0.006,0.0122 c 0.002,0.0041 0.004,0.0077 0.006,0.01166 -0.002,-0.0037 -0.004,-0.008 -0.006,-0.01166 m 0.007,0.01329 c 0.004,0.008 0.008,0.01555 0.0113,0.02357 -0.004,-0.008 -0.008,-0.01554 -0.0113,-0.02357 m 0.012,0.02518 c 0.002,0.0038 0.004,0.0071 0.006,0.01103 -0.002,-0.0039 -0.004,-0.0077 -0.006,-0.01103 m 0.006,0.01165 c 0.004,0.0078 0.008,0.01612 0.0116,0.02421 -0.004,-0.0083 -0.008,-0.01589 -0.0116,-0.02421 m 0.013,0.02511 c 0.004,0.0077 0.008,0.0158 0.0114,0.02389 -0.004,-0.008 -0.008,-0.0158 -0.0114,-0.02389 m 0.0118,0.02486 c 0.002,0.0037 0.004,0.0071 0.006,0.01126 -0.002,-0.0038 -0.004,-0.0078 -0.006,-0.01126 m 0.006,0.01191 c 0.004,0.0078 0.008,0.0158 0.0123,0.02349 -0.004,-0.0078 -0.008,-0.0158 -0.0123,-0.02349 m 0.013,0.02511 c 0.004,0.0075 0.008,0.0158 0.0123,0.02349 -0.004,-0.0078 -0.008,-0.0158 -0.0123,-0.02349 m 0.0126,0.02414 c 0.002,0.0037 0.004,0.0075 0.006,0.01126 -0.002,-0.0038 -0.004,-0.0075 -0.006,-0.01126 m 0.006,0.01191 c 0.004,0.0078 0.009,0.01572 0.0123,0.02349 -0.004,-0.0078 -0.009,-0.01541 -0.0123,-0.02349 m 0.0129,0.02479 c 0.004,0.0078 0.009,0.01541 0.0123,0.02349 -0.004,-0.0078 -0.009,-0.01541 -0.0123,-0.02349 m 0.0127,0.02447 c 0.002,0.0035 0.004,0.0068 0.006,0.01029 -0.002,-0.0035 -0.004,-0.0068 -0.006,-0.01029 m 0.006,0.01223 c 0.004,0.0075 0.009,0.01475 0.0119,0.02252 -0.004,-0.0075 -0.009,-0.01475 -0.0119,-0.02252 m 0.0137,0.02407 c 0.002,0.0037 0.004,0.0071 0.006,0.0106 -0.002,-0.0035 -0.004,-0.0068 -0.006,-0.0106 m 0.006,0.01126 c 0.002,0.0037 0.004,0.0075 0.006,0.01157 -0.002,-0.0041 -0.004,-0.0078 -0.006,-0.01157 m 0.007,0.01352 c 0.002,0.0031 0.004,0.0062 0.005,0.0093 -0.002,-0.0029 -0.004,-0.0061 -0.005,-0.0093 m 0.006,0.01126 c 0.004,0.0074 0.009,0.01475 0.0128,0.02212 -0.004,-0.0075 -0.009,-0.01475 -0.0128,-0.02212 m 0.0138,0.02439 c 0.002,0.0033 0.004,0.0064 0.005,0.01 -0.002,-0.0035 -0.004,-0.0068 -0.005,-0.01 m 0.007,0.01086 c 0.002,0.0037 0.004,0.0071 0.006,0.01095 -0.002,-0.0035 -0.004,-0.007 -0.006,-0.01095 m 0.008,0.01281 c 0.002,0.0031 0.003,0.0058 0.005,0.009 -0.002,-0.0031 -0.003,-0.0058 -0.005,-0.009 m 0.006,0.01157 c 0.002,0.0035 0.004,0.007 0.007,0.01055 -0.002,-0.0035 -0.004,-0.007 -0.007,-0.01055 m 0.007,0.01086 c 0.002,0.0033 0.004,0.0068 0.006,0.0099 -0.002,-0.0033 -0.004,-0.0068 -0.006,-0.0099 m 0.008,0.01312 c 0.002,0.0028 0.003,0.0056 0.005,0.0083 -0.002,-0.0028 -0.003,-0.0055 -0.005,-0.0083 m 0.007,0.01055 c 0.002,0.0035 0.004,0.0068 0.006,0.01061 -0.002,-0.0038 -0.004,-0.007 -0.006,-0.01061 m 0.008,0.01312 c 0.002,0.0023 0.003,0.0047 0.004,0.0077 -0.002,-0.0028 -0.003,-0.0052 -0.004,-0.0077 m 0.007,0.01086 c 0.002,0.0031 0.003,0.0058 0.005,0.0087 -0.002,-0.0026 -0.003,-0.0054 -0.005,-0.0087 m 0.008,0.01249 c 0.001,0.0025 0.003,0.0052 0.004,0.0077 -0.001,-0.0025 -0.003,-0.0052 -0.004,-0.0077 m 0.007,0.01152 c 0.001,0.0025 0.003,0.0045 0.004,0.0068 -0.001,-0.0021 -0.003,-0.0046 -0.004,-0.0068 m 0.007,0.01055 c 0.002,0.0029 0.004,0.0061 0.006,0.0089 -0.002,-0.0031 -0.004,-0.0061 -0.006,-0.0089 m 0.008,0.01346 c 0.001,0.0018 0.003,0.0039 0.004,0.0058 -0.001,-0.0018 -0.002,-0.0035 -0.004,-0.0058 m 0.007,0.01055 c 0.001,0.0021 0.003,0.0039 0.004,0.0058 -0.001,-0.0018 -0.002,-0.0035 -0.004,-0.0058 m 0.008,0.01346 c 0.001,0.0018 0.002,0.0035 0.003,0.0055 -0.001,-0.0018 -0.002,-0.0035 -0.003,-0.0055 m 0.007,0.01086 c 5.2e-4,0.0012 0.002,0.0031 0.003,0.0042 -7.6e-4,-0.0011 -0.002,-0.0029 -0.003,-0.0042 m 0.006,0.0099 c 0,0 10e-5,2.42e-4 3.1e-4,7.28e-4 -10e-5,-2.42e-4 -3.1e-4,-7.28e-4 -3.1e-4,-7.28e-4 m 0.009,0.01404 c 7.6e-4,0.0011 0.002,0.0023 0.002,0.0035 -5.2e-4,-0.0012 -0.001,-0.0025 -0.002,-0.0035 m 0.006,0.0096 c 4.3e-4,0.001 0.001,0.0021 0.002,0.0033 -7.6e-4,-0.0011 -0.002,-0.0019 -0.002,-0.0033 m 0.01,0.01564 c 3.2e-4,7.29e-4 7.6e-4,0.0011 0.001,0.0018 -3.1e-4,-7.28e-4 -7.6e-4,-0.0011 -0.001,-0.0018 m 0.006,0.0086 c 3.2e-4,7.29e-4 0.001,0.0016 0.001,0.0021 -4.4e-4,-0.001 -7.5e-4,-0.0017 -0.001,-0.0021 m 0.0158,0.02392 c 3.1e-4,7.29e-4 7.6e-4,0.0011 0.001,0.0018 -3.1e-4,-7.28e-4 -7.6e-4,-0.0011 -0.001,-0.0018"
     style="fill:#1d456c;fill-opacity:1;fill-rule:nonzero;stroke:none;stroke-width:0.03527778"
     id="path848-1" />
  <path
     d="m 2.73827,15.942173 c 0.35326,-0.152748 0.71554,-0.257123 1.07907,-0.315921 -0.16413,0.584835 -0.24997,1.173867 -0.26292,1.756367 -0.48468,0.42481 -0.86651,0.943508 -1.12949,1.51574 -0.15521,-0.914504 -0.15628,-1.864521 0.0124,-2.813004 0.0975,-0.05098 0.19794,-0.09864 0.30092,-0.14317"
     style="fill:#333333;fill-opacity:1;fill-rule:nonzero;stroke:none;stroke-width:0.03527778"
     id="path852" />
  <path
     d="M 5.36472,24.367451 5.39002,23.954084 4.15265,23.83458 c -0.21533,0.0051 -0.38829,0.173994 -0.40236,0.384985 l 1.61439,0.147886"
     style="fill:#333333;fill-opacity:1;fill-rule:nonzero;stroke:none;stroke-width:0.03527778"
     id="path854" />
  <path
     d="m 4.17268,24.660347 1.16815,0.09985 0.0239,-0.392749 -1.61439,-0.147886 -8.8e-4,0.03804 c 0.005,0.227851 0.19501,0.408409 0.42321,0.40275"
     style="fill:#666666;fill-opacity:1;fill-rule:nonzero;stroke:none;stroke-width:0.03527778"
     id="path860" />
  <path
     d="m 2.01313,16.616233 0.31867,0.265001 -0.7605,0.983375 c -0.1512,0.1534 -0.39289,0.163346 -0.55609,0.02945 l 0.99792,-1.277823"
     style="fill:#333333;fill-opacity:1;fill-rule:nonzero;stroke:none;stroke-width:0.03527778"
     id="path862" />
  <path
     d="m 0.98337,17.284416 0.72725,-0.919804 0.30251,0.251621 -0.99792,1.277823 -0.0283,-0.02542 C 0.82452,17.708247 0.82293,17.446813 0.98291,17.284431"
     style="fill:#666666;fill-opacity:1;fill-rule:nonzero;stroke:none;stroke-width:0.03527778"
     id="path868" />
  <path
     d="m 5.83782,19.591493 0.19608,0.364518 -1.07288,0.62802 c -0.19742,0.08565 -0.42531,0.0048 -0.52658,-0.180483 l 1.4034,-0.812063"
     style="fill:#333333;fill-opacity:1;fill-rule:nonzero;stroke:none;stroke-width:0.03527778"
     id="path870" />
  <path
     d="m 4.63245,19.825974 1.01859,-0.581106 0.18681,0.346614 -1.40339,0.812058 -0.0168,-0.03386 c -0.0906,-0.209499 0.005,-0.452722 0.21462,-0.543632"
     style="fill:#666666;fill-opacity:1;fill-rule:nonzero;stroke:none;stroke-width:0.03527778"
     id="path876" />
  <path
     d="m 14.95586,0.048368 0.0428,0.03493 c 0.11388,0.112183 0.11508,0.295377 0.003,0.408917 L 2.33212,16.881224 2.01345,16.616223 14.95616,0.048366"
     style="fill:#17314a;fill-opacity:1;fill-rule:nonzero;stroke:none;stroke-width:0.03527778"
     id="path864" />
</svg>
