<?xml version="1.0" encoding="UTF-8" standalone="no"?>
<!-- Created with Inkscape (http://www.inkscape.org/) -->

<svg
   xmlns:dc="http://purl.org/dc/elements/1.1/"
   xmlns:cc="http://creativecommons.org/ns#"
   xmlns:rdf="http://www.w3.org/1999/02/22-rdf-syntax-ns#"
   xmlns:svg="http://www.w3.org/2000/svg"
   xmlns="http://www.w3.org/2000/svg"
   xmlns:sodipodi="http://sodipodi.sourceforge.net/DTD/sodipodi-0.dtd"
   xmlns:inkscape="http://www.inkscape.org/namespaces/inkscape"
   width="31.35207mm"
   height="12.504569mm"
   viewBox="0 0 31.35207 12.504569"
   version="1.1"
   id="svg36037"
   inkscape:version="0.92.3 (2405546, 2018-03-11)"
   sodipodi:docname="hud.svg">
  <defs
     id="defs36031" />
  <sodipodi:namedview
     id="base"
     pagecolor="#ffffff"
     bordercolor="#666666"
     borderopacity="1.0"
     inkscape:pageopacity="0.0"
     inkscape:pageshadow="2"
     inkscape:zoom="5.6"
     inkscape:cx="47.234243"
     inkscape:cy="27.046878"
     inkscape:document-units="mm"
     inkscape:current-layer="layer1"
     showgrid="false"
     inkscape:window-width="1920"
     inkscape:window-height="1013"
     inkscape:window-x="-9"
     inkscape:window-y="-9"
     inkscape:window-maximized="1" />
  <metadata
     id="metadata36034">
    <rdf:RDF>
      <cc:Work
         rdf:about="">
        <dc:format>image/svg+xml</dc:format>
        <dc:type
           rdf:resource="http://purl.org/dc/dcmitype/StillImage" />
        <dc:title></dc:title>
      </cc:Work>
    </rdf:RDF>
  </metadata>
  <g
     inkscape:label="Layer 1"
     inkscape:groupmode="layer"
     id="layer1"
     transform="translate(147.9677,-60.938192)">
    <path
       id="path2796"
       style="fill:#ffffff;fill-opacity:1;fill-rule:nonzero;stroke:none;stroke-width:0.03527778"
       d="m -145.10667,62.731712 c 0,0.59055 -0.47872,1.069269 -1.06927,1.069269 -0.59055,0 -1.06927,-0.478719 -1.06927,-1.069269 0,-0.59055 0.47872,-1.06962 1.06927,-1.06962 0.59055,0 1.06927,0.47907 1.06927,1.06962 z m -2.86103,-1.79352 v 5.277202 l 1.75436,1.753658 v -3.429707 h 1.70498 V 62.83437 h 4.44853 v -1.896178 h -6.15351 -1.75436"
       inkscape:connector-curvature="0" />
    <path
       id="path2798"
       style="fill:#ffffff;fill-opacity:1;fill-rule:nonzero;stroke:none;stroke-width:0.03527778"
       d="m -139.73986,62.83437 h 1.89618 v -1.896178 h -1.89618 v 1.896178"
       inkscape:connector-curvature="0" />
    <path
       id="path2800"
       style="fill:#ffffff;fill-opacity:1;fill-rule:nonzero;stroke:none;stroke-width:0.03527778"
       d="m -137.49091,62.83437 h 1.89618 v -1.896178 h -1.89618 v 1.896178"
       inkscape:connector-curvature="0" />
    <path
       id="path2802"
       style="fill:#ffffff;fill-opacity:1;fill-rule:nonzero;stroke:none;stroke-width:0.03527778"
       d="m -137.49091,64.076147 h 1.89618 v -0.947912 h -1.89618 v 0.947912"
       inkscape:connector-curvature="0" />
    <path
       id="path2804"
       style="fill:#ffffff;fill-opacity:1;fill-rule:nonzero;stroke:none;stroke-width:0.03527778"
       d="m -135.29733,62.83437 h 1.89618 v -1.896178 h -1.89618 v 1.896178"
       inkscape:connector-curvature="0" />
    <path
       id="path2806"
       style="fill:#ffffff;fill-opacity:1;fill-rule:nonzero;stroke:none;stroke-width:0.03527778"
       d="m -146.17594,63.095427 c 0.20108,0 0.36371,-0.162983 0.36371,-0.363715 0,-0.200729 -0.16263,-0.364067 -0.36371,-0.364067 -0.20038,0 -0.36372,0.163338 -0.36372,0.364067 0,0.200732 0.16334,0.363715 0.36372,0.363715"
       inkscape:connector-curvature="0" />
    <path
       id="path2808"
       style="fill:#ffffff;fill-opacity:1;fill-rule:nonzero;stroke:none;stroke-width:0.03527778"
       d="m -147.24521,67.479395 c -0.20955,0 -0.37888,0.169686 -0.37888,0.379236 0,0.209198 0.16933,0.379238 0.37888,0.379238 0.20955,0 0.37923,-0.17004 0.37923,-0.379238 0,-0.20955 -0.16968,-0.379236 -0.37923,-0.379236"
       inkscape:connector-curvature="0" />
    <path
       id="path2810"
       style="fill:#ffffff;fill-opacity:1;fill-rule:nonzero;stroke:none;stroke-width:0.03527778"
       d="m -147.24521,68.995987 c -0.20955,0 -0.37888,0.17004 -0.37888,0.37959 0,0.208843 0.16933,0.378883 0.37888,0.378883 0.20955,0 0.37923,-0.17004 0.37923,-0.378883 0,-0.20955 -0.16968,-0.37959 -0.37923,-0.37959"
       inkscape:connector-curvature="0" />
    <path
       id="path2812"
       style="fill:#ffffff;fill-opacity:1;fill-rule:nonzero;stroke:none;stroke-width:0.03527778"
       d="m -147.24521,70.512579 c -0.20955,0 -0.37888,0.17004 -0.37888,0.379235 0,0.20955 0.16933,0.37959 0.37888,0.37959 0.20955,0 0.37923,-0.17004 0.37923,-0.37959 0,-0.209195 -0.16968,-0.379235 -0.37923,-0.379235"
       inkscape:connector-curvature="0" />
    <path
       id="path2814"
       style="fill:#ffffff;fill-opacity:1;fill-rule:nonzero;stroke:none;stroke-width:0.03527778"
       d="m -147.24521,72.029523 c -0.20955,0 -0.37888,0.169688 -0.37888,0.378883 0,0.20955 0.16933,0.379238 0.37888,0.379238 0.20955,0 0.37923,-0.169688 0.37923,-0.379238 0,-0.209195 -0.16968,-0.378883 -0.37923,-0.378883"
       inkscape:connector-curvature="0" />
    <path
       id="path2816"
       style="fill:#ffffff;fill-opacity:1;fill-rule:nonzero;stroke:none;stroke-width:0.03527778"
       d="m -132.84129,62.83437 h 1.11901 v -1.11901 h -1.11901 v 1.11901"
       inkscape:connector-curvature="0" />
    <path
       id="path2818"
       style="fill:#ffffff;fill-opacity:1;fill-rule:nonzero;stroke:none;stroke-width:0.03527778"
       d="m -131.16278,62.83437 h 1.11901 v -1.11901 h -1.11901 v 1.11901"
       inkscape:connector-curvature="0" />
    <path
       id="path2820"
       style="fill:#ffffff;fill-opacity:1;fill-rule:nonzero;stroke:none;stroke-width:0.03527778"
       d="m -129.48426,62.83437 h 1.11901 v -1.11901 h -1.11901 v 1.11901"
       inkscape:connector-curvature="0" />
    <path
       id="path2822"
       style="fill:#ffffff;fill-opacity:1;fill-rule:nonzero;stroke:none;stroke-width:0.03527778"
       d="m -127.8061,62.83437 h 1.11937 v -1.11901 h -1.11937 v 1.11901"
       inkscape:connector-curvature="0" />
    <path
       id="path2824"
       style="fill:#ffffff;fill-opacity:1;fill-rule:nonzero;stroke:none;stroke-width:0.03527778"
       d="m -126.12723,62.83437 h 1.11901 v -1.11901 h -1.11901 v 1.11901"
       inkscape:connector-curvature="0" />
    <path
       id="path2826"
       style="fill:#ffffff;fill-opacity:1;fill-rule:nonzero;stroke:none;stroke-width:0.03527778"
       d="m -124.44871,62.83437 h 1.11901 v -1.11901 h -1.11901 v 1.11901"
       inkscape:connector-curvature="0" />
    <path
       id="path2828"
       style="fill:#ffffff;fill-opacity:1;fill-rule:nonzero;stroke:none;stroke-width:0.03527778"
       d="m -122.7702,62.83437 h 1.11902 v -1.11901 h -1.11902 v 1.11901"
       inkscape:connector-curvature="0" />
    <path
       id="path2830"
       style="fill:#ffffff;fill-opacity:1;fill-rule:nonzero;stroke:none;stroke-width:0.03527778"
       d="m -121.09133,62.83437 h 1.11901 v -1.11901 h -1.11901 v 1.11901"
       inkscape:connector-curvature="0" />
    <path
       id="path2832"
       style="fill:#ffffff;fill-opacity:1;fill-rule:nonzero;stroke:none;stroke-width:0.03527778"
       d="m -119.41281,62.83437 h 1.11866 v -1.11901 h -1.11866 v 1.11901"
       inkscape:connector-curvature="0" />
    <path
       id="path2834"
       style="fill:#ffffff;fill-opacity:1;fill-rule:nonzero;stroke:none;stroke-width:0.03527778"
       d="m -117.73465,61.71536 v 0 1.11901 h 1.11902 l -1.11902,-1.11901"
       inkscape:connector-curvature="0" />
  </g>
</svg>
