<?xml version="1.0" encoding="UTF-8" standalone="no"?>
<svg
   xmlns:dc="http://purl.org/dc/elements/1.1/"
   xmlns:cc="http://creativecommons.org/ns#"
   xmlns:rdf="http://www.w3.org/1999/02/22-rdf-syntax-ns#"
   xmlns:svg="http://www.w3.org/2000/svg"
   xmlns="http://www.w3.org/2000/svg"
   id="svg34137"
   version="1.1"
   viewBox="0 0 41.723339 41.757988"
   height="41.757988mm"
   width="41.723339mm">
  <defs
     id="defs34131" />
  <metadata
     id="metadata34134">
    <rdf:RDF>
      <cc:Work
         rdf:about="">
        <dc:format>image/svg+xml</dc:format>
        <dc:type
           rdf:resource="http://purl.org/dc/dcmitype/StillImage" />
        <dc:title></dc:title>
      </cc:Work>
    </rdf:RDF>
  </metadata>
  <g
     transform="translate(153.47919,-69.571962)"
     id="layer1">
    <g
       style="fill:#ffffff"
       id="g35223">
      <path
         id="path920"
         style="fill:#ffffff;fill-opacity:1;fill-rule:nonzero;stroke:none;stroke-width:0.03527778"
         d="m -125.78275,71.089257 c 0.0215,0.0067 0.0392,0.01024 0.0603,0.01024 0.0741,0 0.14111,-0.04586 0.1658,-0.116416 0.0317,-0.09172 -0.0141,-0.194027 -0.10583,-0.225777 -0.0921,-0.03175 -0.19438,0.01765 -0.22578,0.10936 -0.0318,0.09207 0.0141,0.1905 0.10548,0.222602" />
      <path
         id="path922"
         style="fill:#ffffff;fill-opacity:1;fill-rule:nonzero;stroke:none;stroke-width:0.03527778"
         d="m -121.12574,73.438405 c 0.0282,0.02117 0.0635,0.0321 0.0988,0.0321 0.0564,0 0.10901,-0.02822 0.14464,-0.07796 0.0565,-0.08079 0.0353,-0.190854 -0.0459,-0.243416 -0.0811,-0.05609 -0.1905,-0.03563 -0.24694,0.04586 -0.0529,0.08114 -0.0317,0.1905 0.0494,0.243416" />
      <path
         id="path924"
         style="fill:#ffffff;fill-opacity:1;fill-rule:nonzero;stroke:none;stroke-width:0.03527778"
         d="m -112.10874,89.560386 c 0.004,0.09564 0.0811,0.169368 0.17639,0.169368 0.004,0 0.004,0 0.007,0 0.0988,-0.0074 0.17287,-0.08819 0.16934,-0.183833 -0.007,-0.09839 -0.0882,-0.17639 -0.18345,-0.168944 -0.0991,0.0038 -0.17321,0.08488 -0.16933,0.183409" />
      <path
         id="path926"
         style="fill:#ffffff;fill-opacity:1;fill-rule:nonzero;stroke:none;stroke-width:0.03527778"
         d="m -124.16315,71.741897 c 0.0212,0.01058 0.0459,0.01376 0.0702,0.01376 0.0674,0 0.13088,-0.03881 0.16228,-0.101952 0.0392,-0.09207 0,-0.194029 -0.0882,-0.236363 -0.0882,-0.03951 -0.19368,0 -0.23637,0.0882 -0.0384,0.08819 0,0.194027 0.0921,0.236361" />
      <path
         id="path928"
         style="fill:#ffffff;fill-opacity:1;fill-rule:nonzero;stroke:none;stroke-width:0.03527778"
         d="m -129.14825,70.217545 c 0.0109,0 0.018,0 0.0282,0 0.085,0 0.1591,-0.05997 0.17321,-0.14464 0.0173,-0.0949 -0.0459,-0.186973 -0.14499,-0.20461 -0.0949,-0.01799 -0.18662,0.04974 -0.20073,0.144637 -0.018,0.09525 0.0459,0.187325 0.14428,0.204613" />
      <path
         id="path930"
         style="fill:#ffffff;fill-opacity:1;fill-rule:nonzero;stroke:none;stroke-width:0.03527778"
         d="m -127.44751,70.580905 c 0.0141,0.0032 0.0282,0.0074 0.0459,0.0074 0.0776,0 0.14781,-0.05292 0.16933,-0.134408 0.0243,-0.0949 -0.0318,-0.1905 -0.127,-0.215193 -0.0917,-0.02469 -0.1905,0.0321 -0.2152,0.127 -0.0247,0.09525 0.0318,0.190145 0.127,0.215193" />
      <path
         id="path932"
         style="fill:#ffffff;fill-opacity:1;fill-rule:nonzero;stroke:none;stroke-width:0.03527778"
         d="m -130.87651,69.998822 c 0.004,0 0.0106,0 0.0141,0 0.0917,0 0.16898,-0.07056 0.17638,-0.162277 0.007,-0.09843 -0.0635,-0.183091 -0.16227,-0.1905 -0.0956,-0.0071 -0.17992,0.0635 -0.1905,0.15875 -0.007,0.09878 0.0635,0.183796 0.16227,0.194027" />
      <path
         id="path934"
         style="fill:#ffffff;fill-opacity:1;fill-rule:nonzero;stroke:none;stroke-width:0.03527778"
         d="m -112.2569,87.824754 c 0.0102,0.08819 0.0882,0.155575 0.17639,0.155575 0.007,0 0.0141,-0.004 0.0212,-0.004 0.0953,-0.01045 0.16545,-0.09864 0.15134,-0.197451 -0.0102,-0.09521 -0.0984,-0.161925 -0.1972,-0.151304 -0.0956,0.01019 -0.16581,0.102235 -0.1517,0.197202" />
      <path
         id="path936"
         style="fill:#ffffff;fill-opacity:1;fill-rule:nonzero;stroke:none;stroke-width:0.03527778"
         d="m -116.11629,78.236182 c 0.0318,0.04586 0.0847,0.07056 0.14111,0.07056 0.0353,0 0.0702,-0.01024 0.10231,-0.03528 0.0811,-0.05645 0.0953,-0.165806 0.0388,-0.243064 -0.0568,-0.08149 -0.16934,-0.0956 -0.2473,-0.03916 -0.0773,0.06033 -0.0949,0.169333 -0.0384,0.246943 h 0.004" />
      <path
         id="path938"
         style="fill:#ffffff;fill-opacity:1;fill-rule:nonzero;stroke:none;stroke-width:0.03527778"
         d="m -117.07937,76.941489 c 0.0388,0 0.0811,-0.01376 0.11606,-0.04233 0.0709,-0.0635 0.078,-0.17639 0.0141,-0.250473 -0.0632,-0.07055 -0.17639,-0.07761 -0.24659,-0.0141 -0.0741,0.0635 -0.0811,0.17639 -0.018,0.250825 0.0356,0.03845 0.085,0.05609 0.13441,0.05609" />
      <path
         id="path940"
         style="fill:#ffffff;fill-opacity:1;fill-rule:nonzero;stroke:none;stroke-width:0.03527778"
         d="m -119.61585,74.514379 c 0.0529,0 0.10231,-0.02117 0.13724,-0.0635 0.06,-0.07761 0.0497,-0.190855 -0.0243,-0.250825 -0.004,0 -0.004,0 -0.004,0 -0.0741,-0.05962 -0.18662,-0.04868 -0.2466,0.02858 -0.06,0.07408 -0.0494,0.187325 0.0282,0.247295 0.0318,0.02469 0.0702,0.03845 0.10936,0.03845" />
      <path
         id="path942"
         style="fill:#ffffff;fill-opacity:1;fill-rule:nonzero;stroke:none;stroke-width:0.03527778"
         d="m -118.29646,75.67537 c 0.0459,0 0.0917,-0.01799 0.12665,-0.05292 0.0674,-0.07091 0.0639,-0.183446 -0.007,-0.250825 -0.0706,-0.06703 -0.17992,-0.06703 -0.24694,0.0035 -0.0706,0.07091 -0.067,0.183798 0.003,0.250473 0.0356,0.03175 0.078,0.04974 0.12382,0.04974" />
      <path
         id="path944"
         style="fill:#ffffff;fill-opacity:1;fill-rule:nonzero;stroke:none;stroke-width:0.03527778"
         d="m -122.61093,72.524357 c 0.0282,0.01447 0.0564,0.02188 0.0882,0.02188 0.06,0 0.11959,-0.0321 0.1517,-0.08819 0.0494,-0.08502 0.0176,-0.194029 -0.067,-0.240241 -0.0847,-0.04939 -0.1905,-0.01765 -0.23989,0.06703 -0.0459,0.08502 -0.018,0.190852 0.067,0.239535" />
      <path
         id="path946"
         style="fill:#ffffff;fill-opacity:1;fill-rule:nonzero;stroke:none;stroke-width:0.03527778"
         d="m -144.26796,73.512489 c 0.0353,0 0.067,-0.01058 0.0988,-0.03175 0.0811,-0.05257 0.10231,-0.162632 0.0459,-0.243417 -0.0529,-0.08114 -0.16227,-0.101952 -0.24341,-0.04586 -0.0811,0.05292 -0.10231,0.162629 -0.0459,0.243417 0.0317,0.04939 0.0882,0.07761 0.14464,0.07761" />
      <path
         id="path948"
         style="fill:#ffffff;fill-opacity:1;fill-rule:nonzero;stroke:none;stroke-width:0.03527778"
         d="m -149.3021,78.370239 c 0.0529,0 0.10937,-0.02506 0.14112,-0.07373 v 0.0032 c 0.06,-0.08114 0.0423,-0.1905 -0.0353,-0.247296 -0.0776,-0.05997 -0.1905,-0.04198 -0.24695,0.03563 -0.0564,0.08079 -0.0423,0.190855 0.0353,0.246947 0.0317,0.02469 0.0706,0.03528 0.10584,0.03528" />
      <path
         id="path950"
         style="fill:#ffffff;fill-opacity:1;fill-rule:nonzero;stroke:none;stroke-width:0.03527778"
         d="m -148.20143,76.998287 c 0.0494,0 0.0988,-0.01799 0.13053,-0.0568 0.067,-0.07373 0.0564,-0.186973 -0.0141,-0.250119 -0.0741,-0.06386 -0.18697,-0.0568 -0.25047,0.01765 -0.0635,0.07056 -0.0565,0.183092 0.0176,0.246947 0.0318,0.02787 0.0741,0.04233 0.11642,0.04233" />
      <path
         id="path952"
         style="fill:#ffffff;fill-opacity:1;fill-rule:nonzero;stroke:none;stroke-width:0.03527778"
         d="m -142.77571,72.58433 c 0.0282,0 0.06,-0.0067 0.0847,-0.02045 0.0847,-0.04974 0.11642,-0.155929 0.067,-0.239889 -0.0459,-0.08502 -0.15522,-0.116417 -0.23988,-0.06738 -0.0847,0.04586 -0.11642,0.155575 -0.067,0.239538 0.0317,0.0568 0.0917,0.08819 0.15522,0.08819" />
      <path
         id="path954"
         style="fill:#ffffff;fill-opacity:1;fill-rule:nonzero;stroke:none;stroke-width:0.03527778"
         d="m -146.9914,75.727932 c 0.0459,0 0.0882,-0.01728 0.12347,-0.04939 0.0706,-0.06738 0.0706,-0.179564 0.004,-0.250121 -0.067,-0.07055 -0.17992,-0.07055 -0.24695,-0.0039 -0.0705,0.06738 -0.0741,0.180269 -0.007,0.250825 0.0353,0.03528 0.0811,0.05256 0.127,0.05256" />
      <path
         id="path956"
         style="fill:#ffffff;fill-opacity:1;fill-rule:nonzero;stroke:none;stroke-width:0.03527778"
         d="m -136.19287,70.231304 c 0.0106,0 0.0212,0 0.0317,-0.0032 0.0953,-0.0141 0.15875,-0.105834 0.14111,-0.201438 -0.0176,-0.09843 -0.10936,-0.161925 -0.20461,-0.143934 -0.0953,0.01765 -0.15875,0.109009 -0.14111,0.204259 0.0141,0.08467 0.0882,0.144288 0.17286,0.144288" />
      <path
         id="path958"
         style="fill:#ffffff;fill-opacity:1;fill-rule:nonzero;stroke:none;stroke-width:0.03527778"
         d="m -132.69685,69.924739 c 0.0141,0 0.0282,-0.0035 0.0388,-0.0035 0.0141,0 0.0282,0.0035 0.0423,0.0035 0.0952,0 0.17639,-0.07726 0.17639,-0.17639 0,-0.09843 -0.0811,-0.176387 -0.17639,-0.176387 -0.0141,0 -0.0282,0.0035 -0.0423,0.0035 -0.0106,-0.0035 -0.0247,-0.0035 -0.0388,-0.0035 -0.0991,0 -0.17638,0.08149 -0.17638,0.176387 0,0.09913 0.0773,0.17639 0.17638,0.17639" />
      <path
         id="path960"
         style="fill:#ffffff;fill-opacity:1;fill-rule:nonzero;stroke:none;stroke-width:0.03527778"
         d="m -134.45015,70.00623 c 0.004,0 0.0106,0 0.0141,0 0.0952,-0.01093 0.16933,-0.0956 0.15875,-0.194026 -0.007,-0.0956 -0.0917,-0.169688 -0.1905,-0.15875 -0.0952,0.0067 -0.16933,0.09137 -0.15875,0.190145 0.007,0.09208 0.0847,0.162631 0.17639,0.162631" />
      <path
         id="path962"
         style="fill:#ffffff;fill-opacity:1;fill-rule:nonzero;stroke:none;stroke-width:0.03527778"
         d="m -141.2129,71.787757 c 0.0247,0 0.0494,-0.0039 0.0741,-0.01447 0.0882,-0.04269 0.127,-0.144639 0.0882,-0.236363 -0.0423,-0.08819 -0.14817,-0.127 -0.23636,-0.08467 -0.0882,0.03881 -0.127,0.14464 -0.0847,0.232834 0.0282,0.0635 0.0917,0.102658 0.15875,0.102658" />
      <path
         id="path964"
         style="fill:#ffffff;fill-opacity:1;fill-rule:nonzero;stroke:none;stroke-width:0.03527778"
         d="m -139.5866,71.127712 c 0.0212,0 0.0388,-0.0032 0.06,-0.01024 0.0917,-0.03246 0.13759,-0.134408 0.10584,-0.226131 -0.0317,-0.09137 -0.13406,-0.137229 -0.22578,-0.105834 -0.0917,0.03211 -0.13758,0.134057 -0.10583,0.22578 0.0247,0.07091 0.0952,0.116416 0.1658,0.116416" />
      <path
         id="path966"
         style="fill:#ffffff;fill-opacity:1;fill-rule:nonzero;stroke:none;stroke-width:0.03527778"
         d="m -137.90737,70.609129 c 0.0141,0 0.0282,-0.0032 0.0423,-0.0071 0.0952,-0.02434 0.15169,-0.123474 0.127,-0.215194 -0.0247,-0.09561 -0.11995,-0.151342 -0.2152,-0.127 -0.0952,0.02469 -0.15169,0.123825 -0.127,0.215194 0.0212,0.08078 0.0917,0.134056 0.17286,0.134056" />
      <path
         id="path968"
         style="fill:#ffffff;fill-opacity:1;fill-rule:nonzero;stroke:none;stroke-width:0.03527778"
         d="m -145.67554,74.56412 c 0.0388,0 0.0776,-0.01447 0.11289,-0.04233 h -0.004 c 0.0776,-0.06033 0.0882,-0.169333 0.0282,-0.247298 -0.0635,-0.07444 -0.17286,-0.08819 -0.25047,-0.02469 -0.0741,0.06033 -0.0847,0.17286 -0.0247,0.246944 0.0353,0.04233 0.0847,0.06738 0.13758,0.06738" />
      <path
         id="path970"
         style="fill:#ffffff;fill-opacity:1;fill-rule:nonzero;stroke:none;stroke-width:0.03527778"
         d="m -148.24023,104.03489 c -0.0741,0.0631 -0.0811,0.17639 -0.0177,0.24695 0.0353,0.0387 0.0847,0.0599 0.13405,0.0599 0.0423,0 0.0811,-0.0142 0.11642,-0.0423 0.0741,-0.0671 0.0776,-0.17639 0.0141,-0.25026 -0.0635,-0.0744 -0.17639,-0.0815 -0.24694,-0.0143" />
      <path
         id="path972"
         style="fill:#ffffff;fill-opacity:1;fill-rule:nonzero;stroke:none;stroke-width:0.03527778"
         d="m -117.18874,103.99242 c -0.067,0.0746 -0.0564,0.18358 0.0141,0.25096 0.0349,0.0278 0.0773,0.0423 0.11642,0.0423 0.049,0 0.0988,-0.0215 0.13406,-0.0601 0.0632,-0.0744 0.0564,-0.18729 -0.0177,-0.25082 -0.0741,-0.0634 -0.1838,-0.0563 -0.24695,0.0177" />
      <path
         id="path974"
         style="fill:#ffffff;fill-opacity:1;fill-rule:nonzero;stroke:none;stroke-width:0.03527778"
         d="m -116.09548,102.63465 c -0.06,0.0808 -0.042,0.19018 0.0356,0.24652 0.0318,0.0248 0.0667,0.0353 0.10584,0.0353 0.0529,0 0.10583,-0.0247 0.14111,-0.0705 0.0564,-0.0776 0.0423,-0.19001 -0.0353,-0.24719 -0.0811,-0.0597 -0.19085,-0.0421 -0.2473,0.0359" />
      <path
         id="path976"
         style="fill:#ffffff;fill-opacity:1;fill-rule:nonzero;stroke:none;stroke-width:0.03527778"
         d="m -130.83771,110.90027 c -0.0953,0.0106 -0.1658,0.0948 -0.15875,0.1936 0.007,0.0882 0.0843,0.15917 0.17639,0.15917 0.003,0 0.0102,0 0.0141,0 0.0952,-0.0113 0.16934,-0.0954 0.16228,-0.19085 -0.0106,-0.0988 -0.0953,-0.16909 -0.19403,-0.16192" />
      <path
         id="path978"
         style="fill:#ffffff;fill-opacity:1;fill-rule:nonzero;stroke:none;stroke-width:0.03527778"
         d="m -132.5769,110.97717 c -0.0952,0 -0.17639,0.078 -0.17639,0.17639 0,0.0995 0.0811,0.17639 0.17639,0.17639 0.0988,0 0.17639,-0.0807 0.17639,-0.17639 0,-0.0984 -0.0776,-0.17639 -0.17639,-0.17639" />
      <path
         id="path980"
         style="fill:#ffffff;fill-opacity:1;fill-rule:nonzero;stroke:none;stroke-width:0.03527778"
         d="m -129.1091,110.67756 c -0.0952,0.0177 -0.16227,0.10943 -0.14463,0.20464 0.0141,0.0848 0.0917,0.14813 0.17638,0.14813 0.007,0 0.0173,-0.003 0.0282,-0.003 0.0952,-0.0176 0.15875,-0.10943 0.14464,-0.20422 -0.0177,-0.0956 -0.10936,-0.15889 -0.20461,-0.14513" />
      <path
         id="path982"
         style="fill:#ffffff;fill-opacity:1;fill-rule:nonzero;stroke:none;stroke-width:0.03527778"
         d="m -122.57565,108.35984 c -0.0847,0.0459 -0.11642,0.15201 -0.0705,0.24021 0.0353,0.0558 0.0917,0.0882 0.15487,0.0882 0.0286,0 0.06,-0.007 0.0882,-0.0215 0.085,-0.0489 0.11324,-0.15487 0.0674,-0.23975 -0.0494,-0.0844 -0.15558,-0.11645 -0.23989,-0.0671" />
      <path
         id="path984"
         style="fill:#ffffff;fill-opacity:1;fill-rule:nonzero;stroke:none;stroke-width:0.03527778"
         d="m -119.45004,106.43047 c -0.0635,-0.0779 -0.17321,-0.0882 -0.25047,-0.025 -0.0741,0.0599 -0.085,0.16936 -0.0247,0.24694 0.0353,0.0426 0.0847,0.0631 0.13758,0.0631 0.0388,0 0.0776,-0.0102 0.11289,-0.038 -0.004,0 -0.004,0 -0.004,0 0.078,-0.0604 0.0882,-0.17321 0.0286,-0.24708" />
      <path
         id="path986"
         style="fill:#ffffff;fill-opacity:1;fill-rule:nonzero;stroke:none;stroke-width:0.03527778"
         d="m -125.7436,109.79963 c -0.0917,0.031 -0.14146,0.1305 -0.10583,0.22529 0.0247,0.0703 0.0917,0.11645 0.16581,0.11645 0.0173,0 0.0388,-0.003 0.06,-0.0102 0.0882,-0.0318 0.13758,-0.13434 0.10548,-0.22613 -0.0314,-0.0918 -0.13406,-0.14069 -0.22543,-0.10541" />
      <path
         id="path988"
         style="fill:#ffffff;fill-opacity:1;fill-rule:nonzero;stroke:none;stroke-width:0.03527778"
         d="m -124.1314,109.147 c -0.0882,0.038 -0.127,0.14428 -0.0847,0.23247 0.0282,0.0634 0.0917,0.10252 0.15875,0.10252 0.0243,0 0.0494,-0.004 0.0741,-0.0143 0.0882,-0.0421 0.12665,-0.14429 0.0882,-0.23248 -0.0423,-0.0922 -0.14464,-0.13091 -0.23636,-0.0882" />
      <path
         id="path990"
         style="fill:#ffffff;fill-opacity:1;fill-rule:nonzero;stroke:none;stroke-width:0.03527778"
         d="m -118.39524,105.25197 c -0.0705,0.067 -0.0705,0.18024 -0.004,0.24695 0.0353,0.0387 0.0811,0.0563 0.12665,0.0563 0.0462,0 0.0882,-0.0177 0.12383,-0.0493 0.0705,-0.0706 0.0705,-0.17999 0.003,-0.25012 -0.0674,-0.071 -0.17992,-0.0744 -0.25048,-0.004" />
      <path
         id="path992"
         style="fill:#ffffff;fill-opacity:1;fill-rule:nonzero;stroke:none;stroke-width:0.03527778"
         d="m -127.40871,110.31102 c -0.0917,0.0248 -0.14816,0.11959 -0.12382,0.21498 0.018,0.0776 0.0921,0.1305 0.16968,0.1305 0.0141,0 0.0282,0 0.0459,-0.004 0.0917,-0.0285 0.14817,-0.12348 0.12312,-0.21509 -0.0243,-0.0954 -0.11959,-0.15173 -0.21484,-0.12679" />
      <path
         id="path994"
         style="fill:#ffffff;fill-opacity:1;fill-rule:nonzero;stroke:none;stroke-width:0.03527778"
         d="m -145.7214,106.47925 c -0.0635,0.0744 -0.0494,0.18768 0.0247,0.24719 0.0353,0.0248 0.0741,0.0393 0.11289,0.0393 0.0494,0 0.1023,-0.0219 0.13758,-0.0674 0.06,-0.0737 0.0459,-0.187 -0.0282,-0.24736 -0.0776,-0.0599 -0.18697,-0.0486 -0.24694,0.0283" />
      <path
         id="path996"
         style="fill:#ffffff;fill-opacity:1;fill-rule:nonzero;stroke:none;stroke-width:0.03527778"
         d="m -144.07393,107.48534 c -0.0811,-0.0533 -0.1905,-0.0318 -0.24342,0.0491 -0.0529,0.0776 -0.0317,0.19085 0.0494,0.24377 0.0282,0.0208 0.0635,0.0281 0.0952,0.0281 0.0564,0 0.11289,-0.0249 0.14817,-0.0779 0.0529,-0.0776 0.0317,-0.19085 -0.0494,-0.2431" />
      <path
         id="path998"
         style="fill:#ffffff;fill-opacity:1;fill-rule:nonzero;stroke:none;stroke-width:0.03527778"
         d="m -114.87804,101.13534 c -0.0847,-0.0533 -0.19085,-0.0247 -0.24342,0.0564 -0.0529,0.0841 -0.0247,0.19015 0.0564,0.24306 0.0279,0.0174 0.06,0.0249 0.0917,0.0249 0.06,0 0.11995,-0.0283 0.1517,-0.0812 0.0529,-0.0848 0.0247,-0.19402 -0.0564,-0.2431" />
      <path
         id="path1000"
         style="fill:#ffffff;fill-opacity:1;fill-rule:nonzero;stroke:none;stroke-width:0.03527778"
         d="m -134.3161,110.90686 c -0.0988,-0.007 -0.18344,0.0671 -0.1905,0.16263 -0.007,0.0985 0.0635,0.18355 0.16228,0.19015 0.0949,0.007 0.1831,-0.0634 0.1905,-0.16217 0.007,-0.0952 -0.0674,-0.17999 -0.16228,-0.19061" />
      <path
         id="path1002"
         style="fill:#ffffff;fill-opacity:1;fill-rule:nonzero;stroke:none;stroke-width:0.03527778"
         d="m -142.58873,108.39554 c -0.0847,-0.0463 -0.1905,-0.0145 -0.23989,0.0701 -0.0459,0.0848 -0.0177,0.19018 0.0706,0.24035 0.0247,0.0141 0.0564,0.0208 0.0847,0.0208 0.06,0 0.11994,-0.0314 0.15522,-0.0915 0.0459,-0.0849 0.0141,-0.19071 -0.0705,-0.23978" />
      <path
         id="path1004"
         style="fill:#ffffff;fill-opacity:1;fill-rule:nonzero;stroke:none;stroke-width:0.03527778"
         d="m -147.03373,105.30874 c -0.067,0.0701 -0.0635,0.18298 0.007,0.25012 0.0318,0.0317 0.0776,0.0497 0.11994,0.0497 0.0459,0 0.0952,-0.0215 0.127,-0.0568 0.067,-0.071 0.0635,-0.18317 -0.004,-0.25012 -0.0705,-0.0674 -0.18344,-0.064 -0.25047,0.007" />
      <path
         id="path1006"
         style="fill:#ffffff;fill-opacity:1;fill-rule:nonzero;stroke:none;stroke-width:0.03527778"
         d="m -137.74862,110.33155 h 0.004 c -0.0953,-0.024 -0.19403,0.0324 -0.2152,0.12774 -0.0247,0.0914 0.0317,0.19018 0.12348,0.21484 0.0177,0.003 0.0317,0.003 0.0459,0.003 0.0776,0 0.15169,-0.0532 0.16933,-0.13007 0.0247,-0.0954 -0.0318,-0.19445 -0.127,-0.21593" />
      <path
         id="path1008"
         style="fill:#ffffff;fill-opacity:1;fill-rule:nonzero;stroke:none;stroke-width:0.03527778"
         d="m -136.04471,110.69177 c -0.0952,-0.0142 -0.18697,0.0493 -0.20108,0.14496 -0.0177,0.095 0.0459,0.18658 0.14464,0.20465 0.007,0 0.0177,0 0.0282,0 0.0847,0 0.15875,-0.0601 0.17286,-0.14496 0.0177,-0.0956 -0.0494,-0.18701 -0.14464,-0.20465" />
      <path
         id="path1010"
         style="fill:#ffffff;fill-opacity:1;fill-rule:nonzero;stroke:none;stroke-width:0.03527778"
         d="m -139.41373,109.82387 c -0.0917,-0.0317 -0.19403,0.0181 -0.22578,0.10943 -0.0317,0.0916 0.0177,0.19403 0.10936,0.22613 0.0212,0.007 0.0388,0.0102 0.06,0.0102 0.0706,0 0.14111,-0.0459 0.16581,-0.11987 0.0318,-0.0915 -0.0177,-0.19403 -0.10936,-0.22589" />
      <path
         id="path1012"
         style="fill:#ffffff;fill-opacity:1;fill-rule:nonzero;stroke:none;stroke-width:0.03527778"
         d="m -114.99093,79.763712 c 0.0318,0 0.0635,-0.01058 0.0917,-0.02822 0.0847,-0.05292 0.10936,-0.15875 0.06,-0.243769 -0.0533,-0.08079 -0.16228,-0.109008 -0.24377,-0.05609 -0.0843,0.04974 -0.10901,0.15875 -0.0596,0.243769 0.0353,0.05292 0.0917,0.08432 0.1517,0.08432" />
      <path
         id="path1014"
         style="fill:#ffffff;fill-opacity:1;fill-rule:nonzero;stroke:none;stroke-width:0.03527778"
         d="m -141.02946,109.17825 c -0.0917,-0.0387 -0.19402,0 -0.23636,0.0882 -0.0388,0.0882 0,0.19403 0.0882,0.23333 0.0247,0.0102 0.0494,0.0175 0.0741,0.0175 0.067,0 0.13053,-0.0394 0.16228,-0.10569 0.0388,-0.0882 0,-0.19417 -0.0882,-0.23333" />
      <path
         id="path1016"
         style="fill:#ffffff;fill-opacity:1;fill-rule:nonzero;stroke:none;stroke-width:0.03527778"
         d="m -112.05582,92.883516 c -0.0953,-0.01019 -0.18344,0.05652 -0.19403,0.15173 -0.0141,0.09839 0.0564,0.186584 0.15135,0.197451 0.007,0.0036 0.0141,0.0036 0.0215,0.0036 0.0882,0 0.1658,-0.06696 0.17639,-0.155152 0.0106,-0.09881 -0.0564,-0.183832 -0.15523,-0.197627" />
      <path
         id="path1018"
         style="fill:#ffffff;fill-opacity:1;fill-rule:nonzero;stroke:none;stroke-width:0.03527778"
         d="m -112.82135,84.547341 c 0.0173,0 0.0353,0 0.0529,-0.0066 0.0917,-0.02826 0.14464,-0.127495 0.11642,-0.222284 0,0.0032 0,0.0032 0,0.0032 -0.0282,-0.09564 -0.127,-0.148132 -0.21872,-0.119629 -0.0956,0.02826 -0.14817,0.126648 -0.11995,0.222287 0.0243,0.07373 0.0952,0.123047 0.16934,0.123047" />
      <path
         id="path1020"
         style="fill:#ffffff;fill-opacity:1;fill-rule:nonzero;stroke:none;stroke-width:0.03527778"
         d="m -153.30965,89.810504 c 0,0 0.004,0 0.007,0 0.0953,0 0.17286,-0.07373 0.17639,-0.168944 0.004,-0.09881 -0.0741,-0.179705 -0.16933,-0.183832 -0.0988,-0.0032 -0.17992,0.0708 -0.18345,0.169613 -0.004,0.09497 0.0706,0.179988 0.16934,0.183163" />
      <path
         id="path1022"
         style="fill:#ffffff;fill-opacity:1;fill-rule:nonzero;stroke:none;stroke-width:0.03527778"
         d="m -112.75785,96.323099 c -0.0917,-0.02826 -0.1905,0.02125 -0.21872,0.116454 -0.0282,0.09161 0.0243,0.190428 0.11642,0.219109 0.0177,0.007 0.0353,0.01019 0.0529,0.01019 0.0741,0 0.14464,-0.04949 0.16933,-0.127068 0.0282,-0.09162 -0.0247,-0.190432 -0.11994,-0.218689" />
      <path
         id="path1024"
         style="fill:#ffffff;fill-opacity:1;fill-rule:nonzero;stroke:none;stroke-width:0.03527778"
         d="m -153.18265,88.057904 c 0.007,0 0.0141,0.0032 0.0212,0.0032 0.0882,0 0.1658,-0.06671 0.17638,-0.154905 0.0106,-0.09906 -0.0564,-0.187254 -0.15522,-0.197871 -0.0952,-0.01035 -0.18344,0.05676 -0.19755,0.151728 -0.0106,0.09839 0.06,0.186584 0.15522,0.197873" />
      <path
         id="path1026"
         style="fill:#ffffff;fill-opacity:1;fill-rule:nonzero;stroke:none;stroke-width:0.03527778"
         d="m -152.67465,94.830814 c -0.0212,-0.09522 -0.11289,-0.155151 -0.20814,-0.133667 -0.0952,0.02125 -0.15522,0.116451 -0.13406,0.211243 -0.004,0 -0.004,0 -0.004,0 0.0212,0.0816 0.0917,0.137689 0.17286,0.137689 0.0141,0 0.0247,0 0.0388,-0.0036 0.0952,-0.02106 0.15522,-0.112572 0.13406,-0.208068 v -0.0036" />
      <path
         id="path1028"
         style="fill:#ffffff;fill-opacity:1;fill-rule:nonzero;stroke:none;stroke-width:0.03527778"
         d="m -152.97098,93.11642 c -0.0141,-0.09497 -0.10231,-0.161925 -0.19756,-0.15173 -0.0952,0.01405 -0.16581,0.102235 -0.15169,0.197204 0.0106,0.08819 0.0882,0.155575 0.17286,0.155575 0.0106,0 0.0177,0 0.0247,-0.0032 0.0952,-0.01103 0.16581,-0.09924 0.1517,-0.197874" />
      <path
         id="path1030"
         style="fill:#ffffff;fill-opacity:1;fill-rule:nonzero;stroke:none;stroke-width:0.03527778"
         d="m -153.28848,91.567621 c 0.0952,-0.007 0.16933,-0.0882 0.1658,-0.183409 v -0.0036 c -0.004,-0.09479 -0.0847,-0.172791 -0.18344,-0.165772 -0.0988,0.0036 -0.17286,0.08477 -0.16934,0.183163 0.007,0.09564 0.0847,0.169617 0.17992,0.169617 0,0 0.004,0 0.007,0" />
      <path
         id="path1032"
         style="fill:#ffffff;fill-opacity:1;fill-rule:nonzero;stroke:none;stroke-width:0.03527778"
         d="m -151.16123,99.664292 c -0.0882,0.04188 -0.12348,0.148132 -0.0776,0.236325 0.0318,0.05969 0.0917,0.09497 0.15523,0.09497 0.0282,0 0.0564,-0.0032 0.0811,-0.01765 0.0882,-0.0459 0.11994,-0.15173 0.0776,-0.236503 -0.0459,-0.08819 -0.1517,-0.12347 -0.23636,-0.07715" />
      <path
         id="path1034"
         style="fill:#ffffff;fill-opacity:1;fill-rule:nonzero;stroke:none;stroke-width:0.03527778"
         d="m -121.09751,107.44262 c -0.0811,0.0529 -0.10231,0.16235 -0.0459,0.2431 0.0349,0.0533 0.0882,0.078 0.14463,0.078 0.0353,0 0.0706,-0.0104 0.0988,-0.0278 0.0811,-0.0569 0.10231,-0.16619 0.0494,-0.24709 -0.0564,-0.0815 -0.1658,-0.10251 -0.24694,-0.0462" />
      <path
         id="path1036"
         style="fill:#ffffff;fill-opacity:1;fill-rule:nonzero;stroke:none;stroke-width:0.03527778"
         d="m -151.21415,81.343838 c 0.0247,0.01447 0.0529,0.01789 0.0776,0.01789 0.0635,0 0.127,-0.03528 0.15875,-0.09479 0.0423,-0.08819 0.007,-0.194061 -0.0776,-0.236394 -0.0882,-0.04586 -0.19403,-0.01093 -0.23989,0.07722 -0.0423,0.0882 -0.007,0.19403 0.0811,0.23608" />
      <path
         id="path1038"
         style="fill:#ffffff;fill-opacity:1;fill-rule:nonzero;stroke:none;stroke-width:0.03527778"
         d="m -150.37454,79.802516 c 0.0282,0.01799 0.06,0.02468 0.0917,0.02468 0.06,0 0.11642,-0.02822 0.15169,-0.08467 0.0494,-0.08079 0.0247,-0.190855 -0.06,-0.243417 -0.0811,-0.04939 -0.1905,-0.02469 -0.23988,0.05997 -0.0529,0.08502 -0.0282,0.190855 0.0564,0.243417" />
      <path
         id="path1040"
         style="fill:#ffffff;fill-opacity:1;fill-rule:nonzero;stroke:none;stroke-width:0.03527778"
         d="m -151.91971,82.953245 c 0.0212,0.01019 0.0423,0.01405 0.0635,0.01405 0.0706,0 0.13759,-0.0423 0.16581,-0.109681 0.0353,-0.09137 -0.0106,-0.194027 -0.0988,-0.229303 -0.0917,-0.03846 -0.19403,0.0074 -0.2293,0.09564 -0.0353,0.09095 0.007,0.193606 0.0988,0.229306" />
      <path
         id="path1042"
         style="fill:#ffffff;fill-opacity:1;fill-rule:nonzero;stroke:none;stroke-width:0.03527778"
         d="m -112.33099,94.615727 c -0.0953,-0.01765 -0.1905,0.0423 -0.21166,0.137795 -0.0212,0.09536 0.0423,0.190145 0.13758,0.208208 0.0106,0.0036 0.0247,0.0036 0.0353,0.0036 0.0808,0 0.15487,-0.05694 0.17286,-0.137936 0.0212,-0.09539 -0.0388,-0.190182 -0.13405,-0.211666" />
      <path
         id="path1044"
         style="fill:#ffffff;fill-opacity:1;fill-rule:nonzero;stroke:none;stroke-width:0.03527778"
         d="m -152.90748,86.322272 c 0.0106,0.0032 0.0247,0.0032 0.0353,0.0032 0.0811,0 0.15523,-0.05652 0.17286,-0.137689 0.0212,-0.09521 -0.0388,-0.190429 -0.13405,-0.208068 -0.0952,-0.02125 -0.1905,0.03845 -0.21167,0.134091 -0.0212,0.09521 0.0423,0.190854 0.13759,0.208491" />
      <path
         id="path1046"
         style="fill:#ffffff;fill-opacity:1;fill-rule:nonzero;stroke:none;stroke-width:0.03527778"
         d="m -112.3772,86.247697 c 0.0109,0 0.0251,0 0.0356,-0.0034 0.0949,-0.02125 0.15487,-0.116028 0.13759,-0.208243 0,-0.0034 0,-0.0034 0,-0.0034 -0.0212,-0.09521 -0.11642,-0.154903 -0.21167,-0.133668 -0.0956,0.02082 -0.15522,0.11603 -0.13405,0.207399 0.0177,0.08502 0.0917,0.141359 0.1725,0.141359" />
      <path
         id="path1048"
         style="fill:#ffffff;fill-opacity:1;fill-rule:nonzero;stroke:none;stroke-width:0.03527778"
         d="m -114.13015,81.295189 c 0.0247,0 0.0529,-0.0074 0.0773,-0.02167 0.0882,-0.04188 0.12382,-0.148133 0.078,-0.236292 -0.0423,-0.08819 -0.14817,-0.119943 -0.23636,-0.07726 -0.0882,0.04551 -0.12348,0.151376 -0.078,0.235974 0.0321,0.06382 0.0921,0.09923 0.1591,0.09923" />
      <path
         id="path1050"
         style="fill:#ffffff;fill-opacity:1;fill-rule:nonzero;stroke:none;stroke-width:0.03527778"
         d="m -149.33737,102.6629 c -0.0776,0.0561 -0.0952,0.16535 -0.0353,0.24653 0,-0.003 0,-0.003 0,-0.003 0.0353,0.0496 0.0882,0.074 0.14111,0.074 0.0353,0 0.0741,-0.014 0.10583,-0.0353 0.0776,-0.0595 0.0917,-0.16962 0.0353,-0.24653 -0.06,-0.0776 -0.16933,-0.0954 -0.24694,-0.0353" />
      <path
         id="path1052"
         style="fill:#ffffff;fill-opacity:1;fill-rule:nonzero;stroke:none;stroke-width:0.03527778"
         d="m -151.87737,98.058731 c -0.0882,0.03888 -0.13406,0.141534 -0.0952,0.22973 0.0247,0.07013 0.0917,0.112853 0.16227,0.112853 0.0212,0 0.0459,-0.0074 0.067,-0.01405 0.0882,-0.0357 0.13406,-0.14111 0.0953,-0.229304 -0.0353,-0.09222 -0.13758,-0.13409 -0.2293,-0.09924" />
      <path
         id="path1054"
         style="fill:#ffffff;fill-opacity:1;fill-rule:nonzero;stroke:none;stroke-width:0.03527778"
         d="m -114.0349,99.593314 c -0.0882,-0.04547 -0.19438,-0.01061 -0.23636,0.07758 -0.0462,0.08819 -0.0106,0.193781 0.0776,0.236501 0.0247,0.01447 0.0526,0.01722 0.0776,0.01722 0.067,0 0.127,-0.03485 0.15875,-0.09497 0.0423,-0.0882 0.007,-0.193606 -0.0776,-0.236326" />
      <path
         id="path1056"
         style="fill:#ffffff;fill-opacity:1;fill-rule:nonzero;stroke:none;stroke-width:0.03527778"
         d="m -113.40731,82.892886 c 0.0215,0 0.0459,-0.0036 0.0674,-0.01378 0.0882,-0.03595 0.13406,-0.137935 0.0949,-0.229727 -0.0349,-0.09162 -0.13723,-0.133916 -0.22896,-0.09479 -0.0882,0.03528 -0.13405,0.137266 -0.0956,0.228883 0.0286,0.06713 0.0921,0.109432 0.16228,0.109432" />
      <path
         id="path1058"
         style="fill:#ffffff;fill-opacity:1;fill-rule:nonzero;stroke:none;stroke-width:0.03527778"
         d="m -113.32582,97.98433 c -0.0917,-0.03485 -0.19403,0.0074 -0.2293,0.09906 -0.0353,0.09179 0.007,0.193781 0.0988,0.22973 0.0208,0.0068 0.0423,0.01379 0.0631,0.01379 0.0709,0 0.13793,-0.0423 0.16616,-0.112853 0.0353,-0.09137 -0.0106,-0.194029 -0.0988,-0.22973" />
      <path
         id="path1060"
         style="fill:#ffffff;fill-opacity:1;fill-rule:nonzero;stroke:none;stroke-width:0.03527778"
         d="m -152.48768,84.618321 c 0.0177,0.0066 0.0353,0.0066 0.0529,0.0066 0.0741,0 0.14464,-0.04889 0.16933,-0.12347 0.0282,-0.09479 -0.0247,-0.193606 -0.11994,-0.22211 -0.0917,-0.02826 -0.1905,0.02466 -0.21873,0.120298 -0.0282,0.09095 0.0247,0.190005 0.11642,0.218686" />
      <path
         id="path1062"
         style="fill:#ffffff;fill-opacity:1;fill-rule:nonzero;stroke:none;stroke-width:0.03527778"
         d="m -150.31457,101.20205 c -0.0811,0.0497 -0.10583,0.15875 -0.0564,0.24335 0.0353,0.0529 0.0917,0.0812 0.1517,0.0812 0.0318,0 0.0635,-0.007 0.0917,-0.0247 0.0811,-0.0529 0.10936,-0.16193 0.0565,-0.24352 -0.0529,-0.0846 -0.15875,-0.10926 -0.24342,-0.0563" />
      <path
         id="path1064"
         style="fill:#ffffff;fill-opacity:1;fill-rule:nonzero;stroke:none;stroke-width:0.03527778"
         d="m -111.92211,91.133421 c -0.0984,-0.0032 -0.17957,0.0708 -0.18663,0.166193 -0.004,0.09839 0.0741,0.179811 0.16934,0.186584 0.003,0 0.007,0 0.007,0 0.0952,0 0.17251,-0.0769 0.17639,-0.168944 0.004,-0.09881 -0.0706,-0.179705 -0.16616,-0.183833" />
      <path
         id="path1066"
         style="fill:#ffffff;fill-opacity:1;fill-rule:nonzero;stroke:none;stroke-width:0.03527778"
         d="m -152.4524,96.401098 c -0.0917,0.02812 -0.14464,0.126648 -0.11642,0.218265 0.0247,0.07775 0.0917,0.127493 0.16934,0.127493 0.0177,0 0.0353,-0.004 0.0529,-0.01103 0.0917,-0.02826 0.14464,-0.126894 0.11642,-0.218405 -0.0317,-0.0955 -0.13053,-0.144569 -0.22225,-0.116311" />
    </g>
  </g>
</svg>
