<?xml version="1.0" standalone="no"?>
<!DOCTYPE svg PUBLIC "-//W3C//DTD SVG 20010904//EN"
 "http://www.w3.org/TR/2001/REC-SVG-20010904/DTD/svg10.dtd">
<svg version="1.0" xmlns="http://www.w3.org/2000/svg"
 width="700.000000pt" height="700.000000pt" viewBox="0 0 700.000000 700.000000"
 preserveAspectRatio="xMidYMid meet">
<metadata>
Created by potrace 1.11, written by Peter Selinger 2001-2013
</metadata>
<g transform="translate(0.000000,700.000000) scale(0.100000,-0.100000)"
fill="#000000" stroke="none">
<path d="M5979 6996 c-2 -2 -50 -7 -106 -10 -56 -4 -112 -9 -125 -11 -13 -2
-49 -6 -82 -10 -65 -7 -63 -7 -196 -30 -52 -9 -108 -19 -124 -22 -17 -3 -102
-23 -190 -44 -518 -128 -1028 -359 -1505 -684 -75 -51 -322 -233 -331 -244 -3
-4 -30 -26 -60 -51 -212 -173 -447 -400 -700 -676 -162 -175 -417 -496 -593
-746 -31 -44 -52 -65 -62 -62 -23 9 -197 11 -266 3 -121 -14 -154 -20 -245
-44 -222 -58 -456 -179 -640 -331 -26 -21 -198 -188 -381 -371 -366 -364 -380
-382 -370 -474 7 -64 40 -120 89 -152 58 -38 116 -42 223 -16 138 32 203 44
380 66 74 10 421 10 430 1 5 -5 -118 -260 -246 -508 -25 -50 -20 -146 10 -189
12 -17 99 -108 192 -201 93 -93 169 -172 169 -176 0 -7 -48 -83 -60 -94 -3 -3
-31 -44 -63 -92 -280 -420 -420 -819 -339 -963 43 -76 113 -107 227 -101 209
11 531 157 870 393 66 46 124 84 129 84 5 1 93 -82 196 -185 113 -112 202
-192 224 -201 49 -21 124 -19 166 3 19 10 130 67 245 127 116 59 216 112 223
118 14 11 15 0 15 -148 0 -84 -9 -250 -18 -320 -2 -16 -7 -59 -11 -95 -3 -36
-8 -73 -10 -84 -2 -10 -6 -43 -10 -74 -3 -30 -8 -63 -9 -71 -24 -128 -13 -182
48 -245 43 -45 92 -66 152 -66 71 1 110 33 438 363 177 177 343 347 368 377
193 229 322 535 364 860 6 54 7 246 1 277 -4 19 7 31 62 70 350 249 714 555
1002 843 249 249 415 437 581 660 542 726 846 1477 934 2315 3 33 8 74 11 90
9 56 12 640 4 737 -21 245 -26 264 -92 323 -56 51 -60 52 -268 71 -56 6 -647
14 -651 10z"/>
</g>
</svg>
