<?xml version="1.0" standalone="no"?>
<!DOCTYPE svg PUBLIC "-//W3C//DTD SVG 20010904//EN"
 "http://www.w3.org/TR/2001/REC-SVG-20010904/DTD/svg10.dtd">
<svg version="1.0" xmlns="http://www.w3.org/2000/svg"
 width="864.000000pt" height="864.000000pt" viewBox="0 0 864.000000 864.000000"
 preserveAspectRatio="xMidYMid meet">
<metadata>
Created by potrace 1.11, written by Peter Selinger 2001-2013
</metadata>
<g transform="translate(0.000000,864.000000) scale(0.100000,-0.100000)"
fill="#000000" stroke="none">
<path d="M4303 8619 c-10 -11 -35 -39 -55 -61 -21 -22 -38 -43 -38 -47 0 -3
-18 -26 -40 -51 -22 -25 -43 -49 -47 -55 -16 -20 -159 -211 -180 -240 -108
-145 -371 -546 -417 -637 -4 -7 -12 -22 -19 -33 -40 -66 -125 -219 -166 -300
-17 -33 -35 -67 -41 -75 -22 -34 -161 -335 -220 -475 -34 -82 -68 -163 -75
-180 -7 -16 -19 -48 -26 -70 -7 -22 -16 -44 -20 -50 -11 -17 -142 -423 -155
-480 -1 -5 -7 -28 -13 -50 -6 -22 -11 -43 -11 -47 -1 -4 -6 -22 -11 -40 -12
-39 -18 -64 -25 -98 -3 -14 -7 -33 -10 -42 -3 -9 -7 -26 -9 -37 -3 -12 -7 -31
-10 -43 -11 -46 -56 -304 -60 -343 -3 -22 -7 -56 -10 -75 -3 -19 -7 -60 -10
-90 -4 -30 -8 -71 -10 -90 -28 -225 -22 -896 11 -1240 3 -36 7 -81 8 -100 5
-55 17 -173 21 -200 2 -14 6 -47 9 -75 7 -72 15 -132 25 -192 l8 -53 -126 -97
c-69 -53 -128 -100 -131 -103 -3 -4 -12 -11 -21 -16 -9 -5 -32 -21 -50 -36
-19 -15 -72 -57 -119 -93 -47 -36 -96 -74 -110 -85 -14 -11 -97 -76 -185 -143
l-160 -123 -2 -1175 -2 -1174 22 26 c28 34 38 46 117 149 35 47 67 87 70 90 3
3 25 32 50 65 24 33 49 65 55 72 5 6 20 24 31 40 22 29 175 226 197 253 7 8
28 35 47 60 19 25 38 46 42 48 5 2 8 7 8 12 0 5 9 19 20 32 11 12 56 70 101
128 44 58 85 112 92 120 7 8 43 56 82 105 38 50 73 91 77 93 4 2 8 8 8 14 0 5
6 15 13 22 6 7 22 26 35 42 12 16 59 76 103 134 44 58 85 106 89 108 4 2 17
-21 28 -50 31 -81 98 -231 157 -349 l53 -106 -20 -49 c-11 -27 -24 -58 -29
-69 -5 -11 -38 -96 -74 -190 -37 -93 -69 -176 -72 -182 -4 -10 243 -13 1217
-13 1160 0 1222 1 1215 18 -4 9 -16 40 -27 67 -10 28 -23 60 -28 73 -15 33
-23 53 -83 207 l-55 140 53 105 c65 129 102 211 145 317 19 46 36 83 40 83 3
0 30 -33 60 -73 30 -39 57 -74 60 -77 3 -3 25 -32 50 -65 25 -33 52 -69 62
-80 9 -11 58 -74 109 -140 51 -66 96 -122 99 -125 4 -3 11 -12 16 -21 5 -9 21
-32 36 -50 15 -19 72 -92 128 -164 55 -71 106 -137 113 -145 6 -9 32 -42 57
-75 25 -33 48 -62 51 -65 5 -4 57 -72 107 -138 9 -12 22 -28 27 -35 6 -6 49
-61 95 -122 46 -60 89 -115 95 -122 24 -29 34 -41 63 -82 l32 -44 0 1176 0
1175 -101 79 c-56 43 -127 98 -158 123 -32 25 -70 54 -85 65 -15 11 -37 28
-49 37 -25 20 -25 20 -87 68 -25 19 -46 38 -48 42 -2 5 -8 8 -13 8 -8 0 -31
17 -63 45 -6 6 -40 33 -76 60 -36 27 -69 53 -75 58 -5 4 -41 32 -80 63 -38 30
-70 58 -70 62 1 13 17 126 22 157 8 48 11 79 18 147 3 34 8 81 11 103 2 22 6
63 9 90 2 28 6 84 10 125 41 496 37 1127 -9 1405 -9 54 -28 179 -30 205 -2 14
-5 36 -9 50 -3 14 -10 50 -16 80 -6 30 -13 66 -15 80 -3 14 -12 52 -20 85 -14
59 -15 63 -17 68 0 1 -2 11 -4 22 -6 39 -67 260 -80 292 -8 18 -12 33 -10 33
4 0 -97 306 -114 345 -5 11 -16 38 -24 60 -34 88 -79 202 -92 230 -7 17 -27
64 -45 105 -41 95 -216 451 -270 550 -61 111 -206 356 -251 425 -21 33 -42 68
-45 78 -4 9 -10 17 -15 17 -5 0 -9 7 -9 15 0 8 -3 15 -8 15 -4 0 -13 13 -20
28 -6 16 -21 38 -32 50 -11 12 -20 26 -20 32 0 5 -4 10 -10 10 -5 0 -10 4 -10
10 0 9 -195 288 -210 300 -3 3 -17 21 -30 40 -13 19 -27 37 -30 40 -3 3 -30
37 -60 75 -30 39 -64 81 -76 95 -13 14 -41 47 -63 73 l-41 48 -17 -22z"/>
</g>
</svg>
