<?xml version="1.0" encoding="UTF-8" standalone="no"?>
<svg
   xmlns:dc="http://purl.org/dc/elements/1.1/"
   xmlns:cc="http://creativecommons.org/ns#"
   xmlns:rdf="http://www.w3.org/1999/02/22-rdf-syntax-ns#"
   xmlns:svg="http://www.w3.org/2000/svg"
   xmlns="http://www.w3.org/2000/svg"
   version="1.1"
   id="svg2"
   xml:space="preserve"
   width="125.6388"
   height="153.15601"
   viewBox="0 0 125.6388 153.15601"><metadata
     id="metadata8"><rdf:RDF><cc:Work
         rdf:about=""><dc:format>image/svg+xml</dc:format><dc:type
           rdf:resource="http://purl.org/dc/dcmitype/StillImage" /><dc:title></dc:title></cc:Work></rdf:RDF></metadata><defs
     id="defs6" /><path
     d="m 84.306052,87.68266 c 0,11.86267 -9.61734,21.47867 -21.48,21.47867 -11.86267,0 -21.48,-9.616 -21.48,-21.47867 0,-11.86266 9.61733,-21.48 21.48,-21.48 11.86266,0 21.48,9.61734 21.48,21.48"
     style="fill:#f8f8f8;fill-opacity:1;fill-rule:nonzero;stroke:none;stroke-width:0.13333333"
     id="path368" /><path
     d="m 82.686052,87.68266 c 0,10.968 -8.892,19.86 -19.86,19.86 -10.968,0 -19.86,-8.892 -19.86,-19.86 0,-10.968 8.892,-19.86 19.86,-19.86 10.968,0 19.86,8.892 19.86,19.86"
     style="fill:#ffffff;fill-opacity:1;fill-rule:nonzero;stroke:none;stroke-width:0.13333333"
     id="path370" /><path
     d="m 68.694052,85.90133 h -11.736 c -0.984,0 -1.78134,0.79733 -1.78134,1.78133 0,0.98267 0.79734,1.78134 1.78134,1.78134 h 11.736 c 0.984,0 1.78133,-0.79867 1.78133,-1.78134 0,-0.984 -0.79733,-1.78133 -1.78133,-1.78133"
     style="fill:#bcbbb9;fill-opacity:1;fill-rule:nonzero;stroke:none;stroke-width:0.13333333"
     id="path372" /></svg>