<?xml version="1.0" encoding="UTF-8" standalone="no"?>
<svg
   xmlns:dc="http://purl.org/dc/elements/1.1/"
   xmlns:cc="http://creativecommons.org/ns#"
   xmlns:rdf="http://www.w3.org/1999/02/22-rdf-syntax-ns#"
   xmlns:svg="http://www.w3.org/2000/svg"
   xmlns="http://www.w3.org/2000/svg"
   id="svg5737"
   version="1.1"
   viewBox="0 0 16.96744 29.20407"
   height="29.204069mm"
   width="16.96744mm">
  <defs
     id="defs5731">
    <marker
       style="overflow:visible"
       id="marker8363"
       refX="0"
       refY="0"
       orient="auto">
      <path
         transform="matrix(0.8,0,0,0.8,10,0)"
         style="fill:#000000;fill-opacity:1;fill-rule:evenodd;stroke:#000000;stroke-width:1.00000003pt;stroke-opacity:1"
         d="M 0,0 5,-5 -12.5,0 5,5 Z"
         id="path8361" />
    </marker>
    <marker
       style="overflow:visible"
       id="marker8263"
       refX="0"
       refY="0"
       orient="auto">
      <path
         transform="matrix(0.8,0,0,0.8,10,0)"
         style="fill:#000000;fill-opacity:1;fill-rule:evenodd;stroke:#000000;stroke-width:1.00000003pt;stroke-opacity:1"
         d="M 0,0 5,-5 -12.5,0 5,5 Z"
         id="path8261" />
    </marker>
    <marker
       style="overflow:visible"
       id="marker8169"
       refX="0"
       refY="0"
       orient="auto">
      <path
         transform="matrix(0.8,0,0,0.8,10,0)"
         style="fill:#000000;fill-opacity:1;fill-rule:evenodd;stroke:#000000;stroke-width:1.00000003pt;stroke-opacity:1"
         d="M 0,0 5,-5 -12.5,0 5,5 Z"
         id="path8167" />
    </marker>
    <marker
       style="overflow:visible"
       id="marker8081"
       refX="0"
       refY="0"
       orient="auto">
      <path
         transform="matrix(0.8,0,0,0.8,10,0)"
         style="fill:#000000;fill-opacity:1;fill-rule:evenodd;stroke:#000000;stroke-width:1.00000003pt;stroke-opacity:1"
         d="M 0,0 5,-5 -12.5,0 5,5 Z"
         id="path8079" />
    </marker>
    <marker
       style="overflow:visible"
       id="marker7999"
       refX="0"
       refY="0"
       orient="auto">
      <path
         transform="matrix(0.8,0,0,0.8,10,0)"
         style="fill:#000000;fill-opacity:1;fill-rule:evenodd;stroke:#000000;stroke-width:1.00000003pt;stroke-opacity:1"
         d="M 0,0 5,-5 -12.5,0 5,5 Z"
         id="path7997" />
    </marker>
    <marker
       style="overflow:visible"
       id="marker7923"
       refX="0"
       refY="0"
       orient="auto">
      <path
         transform="matrix(0.8,0,0,0.8,10,0)"
         style="fill:#000000;fill-opacity:1;fill-rule:evenodd;stroke:#000000;stroke-width:1.00000003pt;stroke-opacity:1"
         d="M 0,0 5,-5 -12.5,0 5,5 Z"
         id="path7921" />
    </marker>
    <marker
       style="overflow:visible"
       id="marker7853"
       refX="0"
       refY="0"
       orient="auto">
      <path
         transform="matrix(0.8,0,0,0.8,10,0)"
         style="fill:#000000;fill-opacity:1;fill-rule:evenodd;stroke:#000000;stroke-width:1.00000003pt;stroke-opacity:1"
         d="M 0,0 5,-5 -12.5,0 5,5 Z"
         id="path7851" />
    </marker>
    <marker
       style="overflow:visible"
       id="marker7789"
       refX="0"
       refY="0"
       orient="auto">
      <path
         transform="matrix(0.8,0,0,0.8,10,0)"
         style="fill:#000000;fill-opacity:1;fill-rule:evenodd;stroke:#000000;stroke-width:1.00000003pt;stroke-opacity:1"
         d="M 0,0 5,-5 -12.5,0 5,5 Z"
         id="path7787" />
    </marker>
    <marker
       orient="auto"
       refY="0"
       refX="0"
       id="marker7601"
       style="overflow:visible">
      <path
         id="path7599"
         d="M 0,0 5,-5 -12.5,0 5,5 Z"
         style="fill:#000000;fill-opacity:1;fill-rule:evenodd;stroke:#000000;stroke-width:1.00000003pt;stroke-opacity:1"
         transform="matrix(0.8,0,0,0.8,10,0)" />
    </marker>
    <marker
       orient="auto"
       refY="0"
       refX="0"
       id="marker7549"
       style="overflow:visible">
      <path
         id="path7547"
         d="M 0,0 5,-5 -12.5,0 5,5 Z"
         style="fill:#000000;fill-opacity:1;fill-rule:evenodd;stroke:#000000;stroke-width:1.00000003pt;stroke-opacity:1"
         transform="matrix(0.8,0,0,0.8,10,0)" />
    </marker>
    <marker
       orient="auto"
       refY="0"
       refX="0"
       id="marker7503"
       style="overflow:visible">
      <path
         id="path7501"
         d="M 0,0 5,-5 -12.5,0 5,5 Z"
         style="fill:#000000;fill-opacity:1;fill-rule:evenodd;stroke:#000000;stroke-width:1.00000003pt;stroke-opacity:1"
         transform="matrix(0.8,0,0,0.8,10,0)" />
    </marker>
    <marker
       orient="auto"
       refY="0"
       refX="0"
       id="marker7463"
       style="overflow:visible">
      <path
         id="path7461"
         d="M 0,0 5,-5 -12.5,0 5,5 Z"
         style="fill:#000000;fill-opacity:1;fill-rule:evenodd;stroke:#000000;stroke-width:1.00000003pt;stroke-opacity:1"
         transform="matrix(0.8,0,0,0.8,10,0)" />
    </marker>
    <marker
       orient="auto"
       refY="0"
       refX="0"
       id="marker7429"
       style="overflow:visible">
      <path
         id="path7427"
         d="M 0,0 5,-5 -12.5,0 5,5 Z"
         style="fill:#000000;fill-opacity:1;fill-rule:evenodd;stroke:#000000;stroke-width:1.00000003pt;stroke-opacity:1"
         transform="matrix(0.8,0,0,0.8,10,0)" />
    </marker>
    <marker
       orient="auto"
       refY="0"
       refX="0"
       id="marker7401"
       style="overflow:visible">
      <path
         id="path7399"
         d="M 0,0 5,-5 -12.5,0 5,5 Z"
         style="fill:#000000;fill-opacity:1;fill-rule:evenodd;stroke:#000000;stroke-width:1.00000003pt;stroke-opacity:1"
         transform="matrix(0.8,0,0,0.8,10,0)" />
    </marker>
    <marker
       orient="auto"
       refY="0"
       refX="0"
       id="marker7379"
       style="overflow:visible">
      <path
         id="path7377"
         d="M 0,0 5,-5 -12.5,0 5,5 Z"
         style="fill:#000000;fill-opacity:1;fill-rule:evenodd;stroke:#000000;stroke-width:1.00000003pt;stroke-opacity:1"
         transform="matrix(0.8,0,0,0.8,10,0)" />
    </marker>
  </defs>
  <metadata
     id="metadata5734">
    <rdf:RDF>
      <cc:Work
         rdf:about="">
        <dc:format>image/svg+xml</dc:format>
        <dc:type
           rdf:resource="http://purl.org/dc/dcmitype/StillImage" />
        <dc:title></dc:title>
      </cc:Work>
    </rdf:RDF>
  </metadata>
  <g
     transform="translate(396.28735,-183.85797)"
     id="layer1">
    <path
       id="path156"
       transform="matrix(0.26458333,0,0,0.26458333,-396.15506,184.05336)"
       d="m 51.777344,69.996094 c -0.172143,1.157147 -0.358289,2.298325 -0.5625,3.416015 -0.08542,0.462652 -0.172963,0.920953 -0.263672,1.376953 -0.269329,1.365317 -0.562938,2.698771 -0.878906,3.996094 -0.210671,0.864 -0.431559,1.714258 -0.66211,2.544922 -0.114519,0.416013 -0.231373,0.827736 -0.351562,1.234375 -0.24,0.814677 -0.488708,1.611967 -0.746094,2.390625 -0.320402,0.966537 -0.654352,1.904515 -1.001953,2.8125 L 63.128906,108.17773 V 78.767578 Z"
       style="fill:none;fill-opacity:1;fill-rule:nonzero;stroke:#000000;stroke-width:1;stroke-miterlimit:4;stroke-dasharray:none;paint-order:normal" />
    <path
       id="path160"
       transform="matrix(0.26458333,0,0,0.26458333,-396.15506,184.05336)"
       d="M 11.351562,69.996094 0,78.767578 V 108.17773 L 15.830078,87.753906 c -0.06829,-0.178008 -0.143629,-0.339255 -0.210937,-0.519531 -0.274659,-0.741317 -0.544215,-1.500601 -0.802735,-2.279297 -0.25731,-0.778658 -0.506094,-1.575948 -0.746094,-2.390625 -0.119811,-0.406639 -0.237042,-0.818362 -0.351562,-1.234375 -0.230665,-0.830664 -0.45159,-1.680922 -0.662109,-2.544922 -0.12926,-0.528 -0.251724,-1.061543 -0.373047,-1.601562 -0.177411,-0.786671 -0.345986,-1.585221 -0.50586,-2.394532 -0.0892,-0.455999 -0.177813,-0.914301 -0.261718,-1.376953 -0.204869,-1.117694 -0.391994,-2.258865 -0.564454,-3.416015 z"
       style="fill:none;fill-opacity:1;fill-rule:nonzero;stroke:#000000;stroke-width:1;stroke-miterlimit:4;stroke-dasharray:none;paint-order:normal" />
    <path
       id="path218"
       d="m -390.89389,188.54456 c -0.13899,0.25647 -0.2774,0.5219 -0.41392,0.7953 -0.2166,0.43533 -0.42801,0.89097 -0.62839,1.36581 -0.16016,0.37994 -0.31341,0.77209 -0.45734,1.1746 -0.0716,0.20144 -0.14106,0.40513 -0.20774,0.61185 -0.53304,1.65312 -0.88883,3.47066 -0.88883,5.37848 0,1.28306 0.072,2.52519 0.20671,3.70417 0.0748,0.65476 0.16893,1.29014 0.28112,1.90221 0.0222,0.12241 0.0456,0.24367 0.0692,0.36432 0.0423,0.21413 0.0869,0.42541 0.13384,0.63355 0.0321,0.14288 0.0645,0.28405 0.0987,0.42375 0.0557,0.2286 0.11415,0.45356 0.17518,0.67334 0.0303,0.11007 0.0613,0.21901 0.093,0.3266 0.0635,0.21555 0.12932,0.4265 0.1974,0.63252 0.0684,0.20603 0.13972,0.40692 0.21239,0.60306 0.10972,0.29387 0.22441,0.5764 0.34365,0.84698 0.1591,0.36019 0.32645,0.69869 0.50178,1.01337 h 3.37343 3.37344 c 0.17533,-0.31468 0.34285,-0.65318 0.5023,-1.01337 0.19897,-0.45049 0.38478,-0.93498 0.55552,-1.45004 0.0681,-0.20602 0.1339,-0.41697 0.1974,-0.63252 0.0318,-0.10759 0.0627,-0.21653 0.093,-0.3266 0.061,-0.21978 0.11944,-0.44474 0.17518,-0.67334 0.0836,-0.34325 0.16129,-0.69606 0.23255,-1.0573 0.024,-0.12065 0.0472,-0.24191 0.0698,-0.36432 0.11183,-0.61207 0.20581,-1.24745 0.2806,-1.90221 0.13476,-1.17898 0.20671,-2.42111 0.20671,-3.70417 0,-1.90782 -0.35492,-3.72536 -0.88832,-5.37848 -0.0663,-0.20672 -0.13578,-0.41041 -0.20774,-0.61185 -0.14358,-0.40251 -0.29733,-0.79466 -0.45785,-1.1746 -0.20037,-0.47484 -0.41179,-0.93048 -0.62839,-1.36581 -0.13618,-0.2734 -0.27458,-0.53883 -0.41392,-0.7953 h -3.09026 z"
       style="fill:none;fill-opacity:1;fill-rule:nonzero;stroke:#000000;stroke-width:0.26458332;stroke-miterlimit:4;stroke-dasharray:none;paint-order:normal" />
    <path
       id="path220"
       d="m -387.80364,184.05336 c 0,0 -0.23428,0.25494 -0.60823,0.72554 -0.37394,0.47096 -0.88748,1.15732 -1.44487,2.01951 -0.12841,0.19897 -0.25926,0.40694 -0.39119,0.62425 -0.0441,0.0723 -0.0882,0.1457 -0.13229,0.22014 -0.0885,0.14853 -0.17775,0.30106 -0.26665,0.45734 -0.0826,0.14499 -0.16482,0.29343 -0.24702,0.44442 h 3.09025 3.09026 c -0.17075,-0.31397 -0.34276,-0.61529 -0.51315,-0.90176 -0.0444,-0.0744 -0.0881,-0.14782 -0.13229,-0.22014 -0.13194,-0.21731 -0.26295,-0.42528 -0.39171,-0.62425 -0.55704,-0.86219 -1.07042,-1.54855 -1.44436,-2.01951 -0.37395,-0.4706 -0.60875,-0.72554 -0.60875,-0.72554 z"
       style="fill:none;fill-opacity:1;fill-rule:nonzero;stroke:#000000;stroke-width:0.26458332;stroke-miterlimit:4;stroke-dasharray:none;paint-order:normal" />
    <path
       id="path230"
       transform="matrix(0.26458333,0,0,0.26458333,-396.15506,184.05336)"
       d="m 17.330078,91.345703 c 0.475994,1.023988 0.972363,1.999947 1.484375,2.919922 h 12.75 12.75 c 0.513336,-0.919975 1.009012,-1.895934 1.486328,-2.919922 H 31.564453 Z"
       style="fill:none;fill-opacity:1;fill-rule:nonzero;stroke:#000000;stroke-width:1;stroke-miterlimit:4;stroke-dasharray:none;paint-order:normal" />
    <path
       id="path234"
       transform="matrix(0.26458333,0,0,0.26458333,-396.15506,184.05336)"
       d="m 18.814453,94.066406 -2.548828,6.488284 h 15.298828 15.300781 l -2.550781,-6.488284 h -12.75 z"
       style="fill:none;fill-opacity:1;fill-rule:nonzero;stroke:#000000;stroke-width:1;stroke-miterlimit:4;stroke-dasharray:none;paint-order:normal" />
    <path
       id="path238"
       transform="matrix(0.26458333,0,0,0.26458333,-396.15506,184.05336)"
       d="m 31.564453,32.929688 c -7.844031,0 -14.201172,6.360454 -14.201172,14.203124 0,7.843994 6.357141,14.201172 14.201172,14.201172 7.842633,0 14.203125,-6.357178 14.203125,-14.201172 0,-7.84267 -6.360492,-14.203124 -14.203125,-14.203124 z"
       style="fill:none;fill-opacity:1;fill-rule:nonzero;stroke:#000000;stroke-width:1;stroke-miterlimit:4;stroke-dasharray:none;paint-order:normal" />
    <path
       id="path242"
       transform="matrix(0.26458333,0,0,0.26458333,-396.15506,184.05336)"
       d="m 31.564453,35.195312 c -6.592025,0 -11.935547,5.345475 -11.935547,11.9375 0,6.591988 5.343522,11.935547 11.935547,11.935547 6.591988,0 11.9375,-5.343559 11.9375,-11.935547 0,-6.592025 -5.345512,-11.9375 -11.9375,-11.9375 z"
       style="fill:none;fill-opacity:1;fill-rule:nonzero;stroke:#000000;stroke-width:1;stroke-miterlimit:4;stroke-dasharray:none;paint-order:normal" />
    <path
       d="m -389.27448,195.81391 c 0,0.22754 -0.1845,0.41204 -0.41204,0.41204 -0.22755,0 -0.41205,-0.1845 -0.41205,-0.41204 v -0.58879 c 0,-0.22754 0.1845,-0.41204 0.41205,-0.41204 0.22754,0 0.41204,0.1845 0.41204,0.41204 v 0.58879"
       style="fill:none;fill-opacity:1;fill-rule:nonzero;stroke:#000000;stroke-width:0.26458332;stroke-miterlimit:4;stroke-dasharray:none;paint-order:normal"
       id="path250" />
  </g>
</svg>
