<?xml version="1.0" encoding="UTF-8" standalone="no"?>
<svg
   xmlns:dc="http://purl.org/dc/elements/1.1/"
   xmlns:cc="http://creativecommons.org/ns#"
   xmlns:rdf="http://www.w3.org/1999/02/22-rdf-syntax-ns#"
   xmlns:svg="http://www.w3.org/2000/svg"
   xmlns="http://www.w3.org/2000/svg"
   id="svg6436"
   version="1.1"
   viewBox="0 0 17.434078 22.000279"
   height="22.000278mm"
   width="17.434078mm">
  <defs
     id="defs6430" />
  <metadata
     id="metadata6433">
    <rdf:RDF>
      <cc:Work
         rdf:about="">
        <dc:format>image/svg+xml</dc:format>
        <dc:type
           rdf:resource="http://purl.org/dc/dcmitype/StillImage" />
        <dc:title></dc:title>
      </cc:Work>
    </rdf:RDF>
  </metadata>
  <g
     transform="translate(689.07409,39.666064)"
     id="layer1">
    <path
       id="path252"
       transform="matrix(0.26458333,0,0,0.26458333,-690.6094,-39.666064)"
       d="M 17.109375,52.558594 5.8027344,65.402344 10.019531,78.349609 28.636719,70.039062 Z"
       style="fill:#ef2f3f;fill-opacity:1;fill-rule:nonzero;stroke:none;stroke-width:0.13333334" />
    <path
       id="path256"
       transform="matrix(0.26458333,0,0,0.26458333,-690.6094,-39.666064)"
       d="M 60.388672,52.558594 48.859375,70.039062 67.478516,78.349609 71.695312,65.402344 Z"
       style="fill:#ef2f3f;fill-opacity:1;fill-rule:nonzero;stroke:none;stroke-width:0.13333334" />
    <path
       d="m -686.23177,-22.757779 c 0.025,0.10654 0.0512,0.212373 0.0783,0.317148 0.0476,0.186619 0.0984,0.370062 0.15134,0.551392 0.036,0.124177 0.073,0.247295 0.11148,0.369004 0.0631,0.198966 0.12912,0.394406 0.19791,0.585965 0.0342,0.09596 0.0695,0.1905 0.10513,0.284339 0.072,0.187677 0.1464,0.371121 0.22366,0.550686 0.0769,0.17921 0.15698,0.354541 0.23953,0.524933 0.11148,0.231068 0.2279,0.453673 0.34855,0.667808 h 4.41889 v -16.849724 h -3.49179 c -0.15769,0.223308 -0.31397,0.454025 -0.46814,0.69215 -0.24482,0.378531 -0.48366,0.775758 -0.71014,1.188862 -0.18133,0.330904 -0.35454,0.672042 -0.51682,1.02235 -0.0815,0.175329 -0.15981,0.353129 -0.23495,0.533046 -0.60254,1.438981 -1.00436,3.020837 -1.00436,4.681714 0,1.116894 0.0815,2.198159 0.2339,3.22439 0.0843,0.570087 0.19085,1.123244 0.3175,1.655937"
       style="fill:#ffffff;fill-opacity:1;fill-rule:nonzero;stroke:none;stroke-width:0.03527778"
       id="path260" />
    <path
       d="m -680.35697,-35.756228 v -3.909836 c 0,0 -0.26529,0.22225 -0.68756,0.631825 -0.42263,0.409927 -1.00259,1.007182 -1.6323,1.75754 -0.14535,0.173212 -0.29352,0.354542 -0.44274,0.543629 -0.0497,0.06315 -0.0995,0.127 -0.14958,0.191558 -0.10019,0.129471 -0.20037,0.262115 -0.30092,0.398288 -0.0931,0.126294 -0.18591,0.25541 -0.27869,0.386996 h 3.49179"
       style="fill:#ef2f3f;fill-opacity:1;fill-rule:nonzero;stroke:none;stroke-width:0.03527778"
       id="path262" />
    <path
       d="m -675.93807,-18.906504 c 0.2099,-0.372533 0.4064,-0.770818 0.58808,-1.192741 0.0773,-0.179565 0.15169,-0.363009 0.22331,-0.550686 0.036,-0.09384 0.0713,-0.188383 0.10548,-0.284339 0.0688,-0.191559 0.13476,-0.386999 0.1979,-0.585965 0.0946,-0.298802 0.18239,-0.605719 0.26283,-0.920396 0.0268,-0.104775 0.0529,-0.210608 0.0783,-0.317148 0.12664,-0.532693 0.23318,-1.08585 0.3175,-1.655937 0.1524,-1.026231 0.23353,-2.107496 0.23353,-3.22439 0,-1.660877 -0.40146,-3.242733 -1.004,-4.681714 -0.0752,-0.179917 -0.15382,-0.357717 -0.23495,-0.533046 -0.16228,-0.350308 -0.3355,-0.691446 -0.51683,-1.02235 -0.22648,-0.413104 -0.46531,-0.810331 -0.71014,-1.188862 -0.15416,-0.238125 -0.31079,-0.468842 -0.46813,-0.69215 h -3.4918 v 16.849724 h 4.4189"
       style="fill:#dededc;fill-opacity:1;fill-rule:nonzero;stroke:none;stroke-width:0.03527778"
       id="path264" />
    <path
       d="m -685.39816,-20.179679 0.0342,0.08043 c 0.0769,0.17921 0.15698,0.354541 0.23953,0.524933 0.11148,0.231068 0.2279,0.453673 0.34855,0.667808 h 4.41889 v -1.273171 h -5.04119"
       style="fill:#ef2f3f;fill-opacity:1;fill-rule:nonzero;stroke:none;stroke-width:0.03527778"
       id="path266" />
    <path
       d="m -680.35697,-20.179679 v 1.273175 h 4.4189 c 0.2099,-0.372533 0.4064,-0.770818 0.58808,-1.192741 l 0.0342,-0.08043 h -5.0412"
       style="fill:#ce1f25;fill-opacity:1;fill-rule:nonzero;stroke:none;stroke-width:0.03527778"
       id="path268" />
    <path
       d="m -680.35697,-35.756228 h 3.4918 c -0.19262,-0.273754 -0.387,-0.535869 -0.57962,-0.785284 -0.0501,-0.06456 -0.0998,-0.12841 -0.14957,-0.191558 -0.14958,-0.189087 -0.2974,-0.370417 -0.44274,-0.543629 -0.62971,-0.750358 -1.20967,-1.347613 -1.6323,-1.75754 -0.42228,-0.409575 -0.68757,-0.631825 -0.68757,-0.631825 v 3.909836"
       style="fill:#ce1f25;fill-opacity:1;fill-rule:nonzero;stroke:none;stroke-width:0.03527778"
       id="path270" />
    <path
       d="m -682.1519,-25.759212 c 0,0.197908 -0.18556,0.358423 -0.41451,0.358423 -0.22896,0 -0.41487,-0.160515 -0.41487,-0.358423 v -0.512585 c 0,-0.198261 0.18591,-0.358775 0.41487,-0.358775 0.22895,0 0.41451,0.160514 0.41451,0.358775 v 0.512585"
       style="fill:#ffffff;fill-opacity:1;fill-rule:nonzero;stroke:none;stroke-width:0.03527778"
       id="path280" />
    <path
       d="m -681.05159,-32.46093 c 0,0.127706 -0.11994,0.231423 -0.26776,0.231423 -0.14781,0 -0.26775,-0.103717 -0.26775,-0.231423 v -0.330907 c 0,-0.127704 0.11994,-0.23142 0.26775,-0.23142 0.14782,0 0.26776,0.103716 0.26776,0.23142 v 0.330907"
       style="fill:#ffffff;fill-opacity:1;fill-rule:nonzero;stroke:none;stroke-width:0.03527778"
       id="path282" />
    <path
       d="m -684.77586,-18.906504 v 1.240719 h 4.41889 v -1.240719 h -4.41889"
       style="fill:#ffffff;fill-opacity:1;fill-rule:nonzero;stroke:none;stroke-width:0.03527778"
       id="path284" />
    <path
       d="m -675.93807,-18.906504 h -4.4189 v 1.240719 h 4.4189 v -1.240719"
       style="fill:#dededc;fill-opacity:1;fill-rule:nonzero;stroke:none;stroke-width:0.03527778"
       id="path286" />
    <path
       d="m -680.35697,-28.493945 v 7.4041 c 2.0447,0 3.70205,-1.657702 3.70205,-3.70205 0,-2.0447 -1.65735,-3.70205 -3.70205,-3.70205"
       style="fill:#ffffff;fill-opacity:1;fill-rule:nonzero;stroke:none;stroke-width:0.03527778"
       id="path288" />
    <path
       d="m -684.05902,-24.791895 c 0,2.044348 1.65735,3.70205 3.70205,3.70205 v -7.4041 c -2.0447,0 -3.70205,1.65735 -3.70205,3.70205"
       style="fill:#dededc;fill-opacity:1;fill-rule:nonzero;stroke:none;stroke-width:0.03527778"
       id="path290" />
    <path
       d="m -680.35697,-27.903395 c -1.71838,0 -3.1115,1.393121 -3.1115,3.1115 h 3.1115 v -3.1115"
       style="fill:#23437d;fill-opacity:1;fill-rule:nonzero;stroke:none;stroke-width:0.03527778"
       id="path292" />
    <path
       d="m -683.46847,-24.791895 v 0 c 0,1.718381 1.39312,3.1115 3.1115,3.1115 v -3.1115 h -3.1115"
       style="fill:#203763;fill-opacity:1;fill-rule:nonzero;stroke:none;stroke-width:0.03527778"
       id="path294" />
    <path
       d="m -680.35697,-27.903395 v 3.1115 h 3.1115 c 0,-1.718379 -1.39312,-3.1115 -3.1115,-3.1115"
       style="fill:#203763;fill-opacity:1;fill-rule:nonzero;stroke:none;stroke-width:0.03527778"
       id="path296" />
    <path
       d="m -680.35697,-24.791895 v 3.1115 c 1.71838,0 3.1115,-1.393119 3.1115,-3.1115 v 0 h -3.1115"
       style="fill:#23437d;fill-opacity:1;fill-rule:nonzero;stroke:none;stroke-width:0.03527778"
       id="path298" />
    <path
       d="m -681.80618,-25.491454 c 0,0.224367 -0.18168,0.406048 -0.40604,0.406048 -0.22402,0 -0.40605,-0.181681 -0.40605,-0.406048 v -0.579966 c 0,-0.224013 0.18203,-0.406046 0.40605,-0.406046 0.22436,0 0.40604,0.182033 0.40604,0.406046 v 0.579966"
       style="fill:#ffffff;fill-opacity:1;fill-rule:nonzero;stroke:none;stroke-width:0.03527778"
       id="path300" />
    <path
       d="m -680.35697,-34.168374 v 4.45276 c 1.22943,0 2.22638,-0.996598 2.22638,-2.226381 0,-1.229429 -0.99695,-2.226379 -2.22638,-2.226379"
       style="fill:#ffffff;fill-opacity:1;fill-rule:nonzero;stroke:none;stroke-width:0.03527778"
       id="path302" />
    <path
       d="m -682.58335,-31.941995 c 0,1.229783 0.99695,2.226381 2.22638,2.226381 v -4.45276 c -1.22943,0 -2.22638,0.99695 -2.22638,2.226379"
       style="fill:#dededc;fill-opacity:1;fill-rule:nonzero;stroke:none;stroke-width:0.03527778"
       id="path304" />
    <path
       d="m -680.35697,-33.715762 c -0.97966,0 -1.77376,0.794105 -1.77376,1.773767 h 1.77376 v -1.773767"
       style="fill:#23437d;fill-opacity:1;fill-rule:nonzero;stroke:none;stroke-width:0.03527778"
       id="path306" />
    <path
       d="m -682.13073,-31.941995 v 0 c 0,0.979665 0.7941,1.773767 1.77376,1.773767 v -1.773767 h -1.77376"
       style="fill:#203763;fill-opacity:1;fill-rule:nonzero;stroke:none;stroke-width:0.03527778"
       id="path308" />
    <path
       d="m -680.35697,-33.715762 v 1.773767 h 1.77377 c 0,-0.979662 -0.7941,-1.773767 -1.77377,-1.773767"
       style="fill:#203763;fill-opacity:1;fill-rule:nonzero;stroke:none;stroke-width:0.03527778"
       id="path310" />
    <path
       d="m -680.35697,-31.941995 v 1.773767 c 0.97967,0 1.77377,-0.794102 1.77377,-1.773767 h -1.77377"
       style="fill:#23437d;fill-opacity:1;fill-rule:nonzero;stroke:none;stroke-width:0.03527778"
       id="path312" />
    <path
       d="m -681.18317,-32.340632 c 0,0.127704 -0.10372,0.23142 -0.23143,0.23142 -0.1277,0 -0.23142,-0.103716 -0.23142,-0.23142 v -0.330555 c 0,-0.128058 0.10372,-0.23142 0.23142,-0.23142 0.12771,0 0.23143,0.103362 0.23143,0.23142 v 0.330555"
       style="fill:#ffffff;fill-opacity:1;fill-rule:nonzero;stroke:none;stroke-width:0.03527778"
       id="path314" />
  </g>
</svg>
