<?xml version="1.0" encoding="UTF-8" standalone="no"?>
<svg
   xmlns:dc="http://purl.org/dc/elements/1.1/"
   xmlns:cc="http://creativecommons.org/ns#"
   xmlns:rdf="http://www.w3.org/1999/02/22-rdf-syntax-ns#"
   xmlns:svg="http://www.w3.org/2000/svg"
   xmlns="http://www.w3.org/2000/svg"
   id="svg5737"
   version="1.1"
   viewBox="0 0 16.702971 28.622271"
   height="28.622271mm"
   width="16.702971mm">
  <defs
     id="defs5731" />
  <metadata
     id="metadata5734">
    <rdf:RDF>
      <cc:Work
         rdf:about="">
        <dc:format>image/svg+xml</dc:format>
        <dc:type
           rdf:resource="http://purl.org/dc/dcmitype/StillImage" />
        <dc:title></dc:title>
      </cc:Work>
    </rdf:RDF>
  </metadata>
  <g
     transform="translate(396.15506,-184.05336)"
     id="layer1">
    <path
       d="m -383.8417,207.01213 4.38961,5.6635 v -7.78157 l -4.38961,-3.39196 v 5.51003"
       style="fill:#ef2f3f;fill-opacity:1;fill-rule:nonzero;stroke:none;stroke-width:0.03527778"
       id="path156" />
    <path
       d="m -383.8417,203.81209 v 3.2004 l 2.93158,3.78213 v -4.71699 l -2.93158,-2.26554"
       style="fill:#ce1f25;fill-opacity:1;fill-rule:nonzero;stroke:none;stroke-width:0.03527778"
       id="path158" />
    <path
       d="m -391.76544,207.01213 -4.38962,5.6635 v -7.78157 l 4.38962,-3.39196 v 5.51003"
       style="fill:#ef2f3f;fill-opacity:1;fill-rule:nonzero;stroke:none;stroke-width:0.03527778"
       id="path160" />
    <path
       d="m -391.76544,203.81209 v 3.2004 l -2.93123,3.78213 v -4.71699 l 2.93123,-2.26554"
       style="fill:#ce1f25;fill-opacity:1;fill-rule:nonzero;stroke:none;stroke-width:0.03527778"
       id="path162" />
    <path
       d="m -390.64678,188.10007 c 0.0889,-0.15628 0.1778,-0.30868 0.26634,-0.4572 -0.0885,0.14852 -0.17744,0.30092 -0.26634,0.4572"
       style="fill:#f9b10c;fill-opacity:1;fill-rule:nonzero;stroke:none;stroke-width:0.03527778"
       id="path164" />
    <path
       d="m -391.93619,190.70569 c 0.20038,-0.47484 0.4117,-0.93063 0.6283,-1.36596 -0.2166,0.43533 -0.42792,0.89112 -0.6283,1.36596"
       style="fill:#f9b10c;fill-opacity:1;fill-rule:nonzero;stroke:none;stroke-width:0.03527778"
       id="path166" />
    <path
       d="m -390.24814,187.42274 c 0.13193,-0.21731 0.26317,-0.42545 0.39158,-0.62442 -0.12841,0.19897 -0.25965,0.40711 -0.39158,0.62442"
       style="fill:#ee1f3d;fill-opacity:1;fill-rule:nonzero;stroke:none;stroke-width:0.03527778"
       id="path168" />
    <path
       d="m -392.39374,191.88008 c 0.14393,-0.40251 0.29739,-0.79445 0.45755,-1.17439 -0.16016,0.37994 -0.31362,0.77188 -0.45755,1.17439"
       style="fill:#ffffff;fill-opacity:1;fill-rule:nonzero;stroke:none;stroke-width:0.03527778"
       id="path170" />
    <path
       d="m -387.19485,184.77902 c 0.37394,0.47096 0.88723,1.15711 1.44427,2.0193 -0.55704,-0.86219 -1.07033,-1.54834 -1.44427,-2.0193"
       style="fill:#dd1d37;fill-opacity:1;fill-rule:nonzero;stroke:none;stroke-width:0.03527778"
       id="path172" />
    <path
       d="m -385.75058,186.79832 c 0.12876,0.19897 0.25964,0.40711 0.39158,0.62442 -0.13194,-0.21731 -0.26282,-0.42545 -0.39158,-0.62442"
       style="fill:#dd1d37;fill-opacity:1;fill-rule:nonzero;stroke:none;stroke-width:0.03527778"
       id="path174" />
    <path
       d="m -382.3237,201.57477 c -0.0748,0.65476 -0.16898,1.29011 -0.28081,1.90218 0.11183,-0.61207 0.20602,-1.24742 0.28081,-1.90218"
       style="fill:#f9b10c;fill-opacity:1;fill-rule:nonzero;stroke:none;stroke-width:0.03527778"
       id="path176" />
    <path
       d="m -392.60153,192.49215 c 0.0667,-0.20672 0.13618,-0.41063 0.20779,-0.61207 -0.0716,0.20144 -0.14111,0.40535 -0.20779,0.61207"
       style="fill:#f9b10c;fill-opacity:1;fill-rule:nonzero;stroke:none;stroke-width:0.03527778"
       id="path178" />
    <path
       d="m -392.02262,207.13419 c -0.0727,-0.19614 -0.14358,-0.39722 -0.21202,-0.60325 0.0684,0.20603 0.13935,0.40711 0.21202,0.60325"
       style="fill:#f9b10c;fill-opacity:1;fill-rule:nonzero;stroke:none;stroke-width:0.03527778"
       id="path180" />
    <path
       d="m -384.29925,189.33973 c 0.2166,0.43533 0.42792,0.89112 0.62829,1.36596 -0.20037,-0.47484 -0.41169,-0.93063 -0.62829,-1.36596"
       style="fill:#f9b10c;fill-opacity:1;fill-rule:nonzero;stroke:none;stroke-width:0.03527778"
       id="path182" />
    <path
       d="m -383.17495,205.89841 c -0.0635,0.21555 -0.12947,0.42651 -0.19756,0.63253 0.0681,-0.20602 0.13406,-0.41698 0.19756,-0.63253"
       style="fill:#f9b10c;fill-opacity:1;fill-rule:nonzero;stroke:none;stroke-width:0.03527778"
       id="path184" />
    <path
       d="m -393.00228,203.47695 c -0.11219,-0.61207 -0.20638,-1.24742 -0.28116,-1.90218 0.0748,0.65476 0.16897,1.29011 0.28116,1.90218"
       style="fill:#f9b10c;fill-opacity:1;fill-rule:nonzero;stroke:none;stroke-width:0.03527778"
       id="path186" />
    <path
       d="m -392.79908,204.4746 c -0.0469,-0.20814 -0.0917,-0.4191 -0.13406,-0.63323 0.0423,0.21413 0.0871,0.42509 0.13406,0.63323"
       style="fill:#f9b10c;fill-opacity:1;fill-rule:nonzero;stroke:none;stroke-width:0.03527778"
       id="path188" />
    <path
       d="m -392.23464,206.53094 c -0.0681,-0.20602 -0.13405,-0.41698 -0.19755,-0.63253 0.0635,0.21555 0.12947,0.42651 0.19755,0.63253"
       style="fill:#f9b10c;fill-opacity:1;fill-rule:nonzero;stroke:none;stroke-width:0.03527778"
       id="path190" />
    <path
       d="m -389.85656,186.79832 c 0.55739,-0.86219 1.07068,-1.54834 1.44462,-2.0193 -0.37394,0.47096 -0.88723,1.15711 -1.44462,2.0193"
       style="fill:#f9b10c;fill-opacity:1;fill-rule:nonzero;stroke:none;stroke-width:0.03527778"
       id="path192" />
    <path
       d="m -390.64678,188.10007 c -0.0826,0.14499 -0.16475,0.29351 -0.24695,0.4445 0.0822,-0.15099 0.1644,-0.29951 0.24695,-0.4445"
       style="fill:#f9b10c;fill-opacity:1;fill-rule:nonzero;stroke:none;stroke-width:0.03527778"
       id="path194" />
    <path
       d="m -387.19485,184.77902 c -0.37395,-0.4706 -0.60854,-0.72566 -0.60854,-0.72566 0,0 -0.2346,0.25506 -0.60855,0.72566 0.37395,-0.4706 0.60855,-0.72566 0.60855,-0.72566 0,0 0.23459,0.25506 0.60854,0.72566"
       style="fill:#f9b10c;fill-opacity:1;fill-rule:nonzero;stroke:none;stroke-width:0.03527778"
       id="path196" />
    <path
       d="m -383.67096,190.70569 c 0.16052,0.37994 0.31398,0.77188 0.45756,1.17439 -0.14358,-0.40251 -0.29704,-0.79445 -0.45756,-1.17439"
       style="fill:#f9b10c;fill-opacity:1;fill-rule:nonzero;stroke:none;stroke-width:0.03527778"
       id="path198" />
    <path
       d="m -390.89373,188.54457 c -0.13899,0.25647 -0.27764,0.52176 -0.41416,0.79516 0.13652,-0.2734 0.27517,-0.53869 0.41416,-0.79516"
       style="fill:#f9b10c;fill-opacity:1;fill-rule:nonzero;stroke:none;stroke-width:0.03527778"
       id="path200" />
    <path
       d="m -392.60153,192.49215 c -0.53304,1.65312 -0.88864,3.47063 -0.88864,5.37845 0,1.28306 0.072,2.52519 0.20673,3.70417 -0.13477,-1.17898 -0.20673,-2.42111 -0.20673,-3.70417 0,-1.90782 0.3556,-3.72533 0.88864,-5.37845"
       style="fill:#f9b10c;fill-opacity:1;fill-rule:nonzero;stroke:none;stroke-width:0.03527778"
       id="path202" />
    <path
       d="m -383.2134,191.88008 c 0.072,0.20144 0.14146,0.40535 0.20778,0.61207 -0.0663,-0.20672 -0.13582,-0.41063 -0.20778,-0.61207"
       style="fill:#f9b10c;fill-opacity:1;fill-rule:nonzero;stroke:none;stroke-width:0.03527778"
       id="path204" />
    <path
       d="m -387.80339,208.99439 h -3.37362 c -0.17533,-0.31468 -0.3429,-0.65299 -0.502,-1.01318 0.1591,0.36019 0.32667,0.6985 0.502,1.01318 h 6.74688 c 0.17533,-0.31468 0.3429,-0.65299 0.50235,-1.01318 -0.15945,0.36019 -0.32702,0.6985 -0.50235,1.01318 h -3.37326"
       style="fill:#f9b10c;fill-opacity:1;fill-rule:nonzero;stroke:none;stroke-width:0.03527778"
       id="path206" />
    <path
       d="m -384.29925,189.33973 c -0.13618,-0.2734 -0.27482,-0.53869 -0.41416,-0.79516 0.13934,0.25647 0.27798,0.52176 0.41416,0.79516"
       style="fill:#f9b10c;fill-opacity:1;fill-rule:nonzero;stroke:none;stroke-width:0.03527778"
       id="path208" />
    <path
       d="m -382.11697,197.8706 c 0,1.28306 -0.072,2.52519 -0.20673,3.70417 0.13476,-1.17898 0.20673,-2.42111 0.20673,-3.70417 0,-1.90782 -0.35525,-3.72533 -0.88865,-5.37845 0.5334,1.65312 0.88865,3.47063 0.88865,5.37845"
       style="fill:#f9b10c;fill-opacity:1;fill-rule:nonzero;stroke:none;stroke-width:0.03527778"
       id="path210" />
    <path
       d="m -384.71341,188.54457 c -0.17075,-0.31397 -0.34255,-0.61524 -0.51294,-0.9017 0.17039,0.28646 0.34219,0.58773 0.51294,0.9017"
       style="fill:#f9b10c;fill-opacity:1;fill-rule:nonzero;stroke:none;stroke-width:0.03527778"
       id="path212" />
    <path
       d="m -392.52533,205.57174 c -0.061,-0.21978 -0.11924,-0.4445 -0.17497,-0.6731 0.0557,0.2286 0.11394,0.45332 0.17497,0.6731"
       style="fill:#f9b10c;fill-opacity:1;fill-rule:nonzero;stroke:none;stroke-width:0.03527778"
       id="path214" />
    <path
       d="m -392.7003,204.89864 c -0.0342,-0.1397 -0.0667,-0.28116 -0.0988,-0.42404 0.0321,0.14288 0.0646,0.28434 0.0988,0.42404"
       style="fill:#f9b10c;fill-opacity:1;fill-rule:nonzero;stroke:none;stroke-width:0.03527778"
       id="path216" />
    <path
       d="m -387.80339,208.99439 v -20.44982 h -3.09034 c -0.13899,0.25647 -0.27764,0.52176 -0.41416,0.79516 -0.2166,0.43533 -0.42792,0.89112 -0.6283,1.36596 -0.16016,0.37994 -0.31362,0.77188 -0.45755,1.17439 -0.0716,0.20144 -0.14111,0.40535 -0.20779,0.61207 -0.53304,1.65312 -0.88864,3.47063 -0.88864,5.37845 0,1.28306 0.072,2.52519 0.20673,3.70417 0.0748,0.65476 0.16897,1.29011 0.28116,1.90218 0.0222,0.12241 0.0455,0.24377 0.0691,0.36442 0.0423,0.21413 0.0871,0.42509 0.13406,0.63323 0.0321,0.14288 0.0646,0.28434 0.0988,0.42404 0.0557,0.2286 0.11394,0.45332 0.17497,0.6731 0.0303,0.11007 0.0614,0.21908 0.0931,0.32667 0.0635,0.21555 0.12947,0.42651 0.19755,0.63253 0.0684,0.20603 0.13935,0.40711 0.21202,0.60325 0.10972,0.29387 0.22437,0.57644 0.34361,0.84702 0.1591,0.36019 0.32667,0.6985 0.502,1.01318 h 3.37362"
       style="fill:#ffffff;fill-opacity:1;fill-rule:nonzero;stroke:none;stroke-width:0.03527778"
       id="path218" />
    <path
       d="m -387.80339,188.54457 v -4.49121 c 0,0 -0.2346,0.25506 -0.60855,0.72566 -0.37394,0.47096 -0.88723,1.15711 -1.44462,2.0193 -0.12841,0.19897 -0.25965,0.40711 -0.39158,0.62442 -0.0441,0.0723 -0.0882,0.14569 -0.1323,0.22013 -0.0885,0.14852 -0.17744,0.30092 -0.26634,0.4572 -0.0826,0.14499 -0.16475,0.29351 -0.24695,0.4445 h 3.09034"
       style="fill:#ef2f3f;fill-opacity:1;fill-rule:nonzero;stroke:none;stroke-width:0.03527778"
       id="path220" />
    <path
       d="m -382.90649,204.89864 c -0.0557,0.2286 -0.1143,0.45332 -0.17533,0.6731 0.061,-0.21978 0.11959,-0.4445 0.17533,-0.6731"
       style="fill:#f78f11;fill-opacity:1;fill-rule:nonzero;stroke:none;stroke-width:0.03527778"
       id="path222" />
    <path
       d="m -382.67401,203.84137 c -0.0713,0.36124 -0.14887,0.71402 -0.23248,1.05727 0.0836,-0.34325 0.16122,-0.69603 0.23248,-1.05727"
       style="fill:#f78f11;fill-opacity:1;fill-rule:nonzero;stroke:none;stroke-width:0.03527778"
       id="path224" />
    <path
       d="m -383.00562,192.49215 c -0.0663,-0.20672 -0.13582,-0.41063 -0.20778,-0.61207 -0.14358,-0.40251 -0.29704,-0.79445 -0.45756,-1.17439 -0.20037,-0.47484 -0.41169,-0.93063 -0.62829,-1.36596 -0.13618,-0.2734 -0.27482,-0.53869 -0.41416,-0.79516 h -3.08998 v 20.44982 h 3.37326 c 0.17533,-0.31468 0.3429,-0.65299 0.50235,-1.01318 0.19897,-0.45049 0.38453,-0.93521 0.55527,-1.45027 0.0681,-0.20602 0.13406,-0.41698 0.19756,-0.63253 0.0318,-0.10759 0.0628,-0.2166 0.0931,-0.32667 0.061,-0.21978 0.11959,-0.4445 0.17533,-0.6731 0.0836,-0.34325 0.16122,-0.69603 0.23248,-1.05727 0.024,-0.12065 0.0469,-0.24201 0.0695,-0.36442 0.11183,-0.61207 0.20602,-1.24742 0.28081,-1.90218 0.13476,-1.17898 0.20673,-2.42111 0.20673,-3.70417 0,-1.90782 -0.35525,-3.72533 -0.88865,-5.37845"
       style="fill:#dededc;fill-opacity:1;fill-rule:nonzero;stroke:none;stroke-width:0.03527778"
       id="path226" />
    <path
       d="m -387.80339,188.54457 h 3.08998 c -0.17075,-0.31397 -0.34255,-0.61524 -0.51294,-0.9017 -0.0444,-0.0744 -0.0885,-0.14781 -0.13265,-0.22013 -0.13194,-0.21731 -0.26282,-0.42545 -0.39158,-0.62442 -0.55704,-0.86219 -1.07033,-1.54834 -1.44427,-2.0193 -0.37395,-0.4706 -0.60854,-0.72566 -0.60854,-0.72566 v 4.49121"
       style="fill:#ce1f25;fill-opacity:1;fill-rule:nonzero;stroke:none;stroke-width:0.03527778"
       id="path228" />
    <path
       d="m -391.56965,208.22181 c 0.12594,0.27093 0.25717,0.52917 0.39264,0.77258 h 3.37362 v -0.77258 h -3.76626"
       style="fill:#fac009;fill-opacity:1;fill-rule:nonzero;stroke:none;stroke-width:0.03527778"
       id="path230" />
    <path
       d="m -384.03714,208.22181 h -3.76625 v 0.77258 h 3.37326 c 0.13582,-0.24341 0.2667,-0.50165 0.39299,-0.77258"
       style="fill:#f8a10e;fill-opacity:1;fill-rule:nonzero;stroke:none;stroke-width:0.03527778"
       id="path232" />
    <path
       d="m -391.17701,208.94183 -0.67451,1.71661 h 4.04813 v -1.71661 h -3.37362"
       style="fill:#ef2f3f;fill-opacity:1;fill-rule:nonzero;stroke:none;stroke-width:0.03527778"
       id="path234" />
    <path
       d="m -384.43013,208.94183 h -3.37326 v 1.71661 h 4.04812 l -0.67486,-1.71661"
       style="fill:#ce1f25;fill-opacity:1;fill-rule:nonzero;stroke:none;stroke-width:0.03527778"
       id="path236" />
    <path
       d="m -387.80339,192.76626 v 7.51523 c 2.07503,0 3.75743,-1.6824 3.75743,-3.75779 0,-2.07504 -1.6824,-3.75744 -3.75743,-3.75744"
       style="fill:#ffffff;fill-opacity:1;fill-rule:nonzero;stroke:none;stroke-width:0.03527778"
       id="path238" />
    <path
       d="m -391.56118,196.5237 c 0,2.07539 1.68239,3.75779 3.75779,3.75779 v -7.51523 c -2.0754,0 -3.75779,1.6824 -3.75779,3.75744"
       style="fill:#dededc;fill-opacity:1;fill-rule:nonzero;stroke:none;stroke-width:0.03527778"
       id="path240" />
    <path
       d="m -387.80339,193.36563 c -1.74414,0 -3.15843,1.41393 -3.15843,3.15807 h 3.15843 v -3.15807"
       style="fill:#23437d;fill-opacity:1;fill-rule:nonzero;stroke:none;stroke-width:0.03527778"
       id="path242" />
    <path
       d="m -390.96182,196.5237 v 0 c 0,1.74413 1.41429,3.15806 3.15843,3.15806 v -3.15806 h -3.15843"
       style="fill:#203763;fill-opacity:1;fill-rule:nonzero;stroke:none;stroke-width:0.03527778"
       id="path244" />
    <path
       d="m -387.80339,193.36563 v 3.15807 h 3.15806 c 0,-1.74414 -1.41393,-3.15807 -3.15806,-3.15807"
       style="fill:#203763;fill-opacity:1;fill-rule:nonzero;stroke:none;stroke-width:0.03527778"
       id="path246" />
    <path
       d="m -387.80339,196.5237 v 3.15806 c 1.74413,0 3.15806,-1.41393 3.15806,-3.15806 h -3.15806"
       style="fill:#23437d;fill-opacity:1;fill-rule:nonzero;stroke:none;stroke-width:0.03527778"
       id="path248" />
    <path
       d="m -389.27448,195.81391 c 0,0.22754 -0.1845,0.41204 -0.41204,0.41204 -0.22755,0 -0.41205,-0.1845 -0.41205,-0.41204 v -0.58879 c 0,-0.22754 0.1845,-0.41204 0.41205,-0.41204 0.22754,0 0.41204,0.1845 0.41204,0.41204 v 0.58879"
       style="fill:#ffffff;fill-opacity:1;fill-rule:nonzero;stroke:none;stroke-width:0.03527778"
       id="path250" />
  </g>
</svg>
