<?xml version="1.0" encoding="UTF-8" standalone="no"?>
<svg
   xmlns:dc="http://purl.org/dc/elements/1.1/"
   xmlns:cc="http://creativecommons.org/ns#"
   xmlns:rdf="http://www.w3.org/1999/02/22-rdf-syntax-ns#"
   xmlns:svg="http://www.w3.org/2000/svg"
   xmlns="http://www.w3.org/2000/svg"
   id="svg34137"
   version="1.1"
   viewBox="0 0 41.723339 41.757988"
   height="41.757988mm"
   width="41.723339mm">
  <defs
     id="defs34131" />
  <metadata
     id="metadata34134">
    <rdf:RDF>
      <cc:Work
         rdf:about="">
        <dc:format>image/svg+xml</dc:format>
        <dc:type
           rdf:resource="http://purl.org/dc/dcmitype/StillImage" />
        <dc:title></dc:title>
      </cc:Work>
    </rdf:RDF>
  </metadata>
  <g
     transform="translate(153.47919,-69.571962)"
     id="layer1">
    <g
       style="fill:#ffffff"
       id="g35147">
      <path
         id="path1104"
         style="fill:#ffffff;fill-opacity:1;fill-rule:nonzero;stroke:none;stroke-width:0.03527778"
         d="m -143.8665,105.49324 c -0.0903,0 -0.16404,0.0733 -0.16404,0.16358 0,0.0907 0.0737,0.16411 0.16404,0.16411 0.0907,0 0.16405,-0.0735 0.16405,-0.16411 0,-0.0902 -0.0734,-0.16358 -0.16405,-0.16358" />
      <path
         id="path1116"
         style="fill:#ffffff;fill-opacity:1;fill-rule:nonzero;stroke:none;stroke-width:0.03527778"
         d="m -146.81042,102.76764 c 0,-0.0945 -0.0762,-0.17032 -0.1704,-0.17032 -0.0942,0 -0.17039,0.0758 -0.17039,0.17032 0,0.0943 0.0762,0.17004 0.17039,0.17004 0.0942,0 0.1704,-0.0758 0.1704,-0.17004" />
      <g
         id="g35101"
         style="fill:#ffffff">
        <path
           d="m -133.32514,109.35051 c 0,0.0109 0.009,0.0201 0.0198,0.0201 0.0113,0 0.0205,-0.009 0.0205,-0.0201 0,-0.0113 -0.009,-0.0201 -0.0205,-0.0201 -0.0109,0 -0.0198,0.009 -0.0198,0.0201"
           style="fill:#ffffff;fill-opacity:1;fill-rule:nonzero;stroke:none;stroke-width:0.03527778"
           id="path1072" />
        <path
           d="m -134.01412,109.27389 c -0.0205,0 -0.037,0.017 -0.037,0.0374 0,0.0201 0.0166,0.0371 0.037,0.0371 0.0204,0 0.0374,-0.017 0.0374,-0.0371 0,-0.0204 -0.0169,-0.0374 -0.0374,-0.0374"
           style="fill:#ffffff;fill-opacity:1;fill-rule:nonzero;stroke:none;stroke-width:0.03527778"
           id="path1074" />
        <path
           d="m -134.72108,109.19384 c -0.0286,0 -0.0519,0.0229 -0.0519,0.0518 0,0.0289 0.0233,0.0522 0.0519,0.0522 0.0289,0 0.0522,-0.0233 0.0522,-0.0522 0,-0.029 -0.0233,-0.0518 -0.0522,-0.0518"
           style="fill:#ffffff;fill-opacity:1;fill-rule:nonzero;stroke:none;stroke-width:0.03527778"
           id="path1076" />
        <path
           d="m -135.42487,109.08692 c -0.037,0 -0.067,0.03 -0.067,0.0671 0,0.0371 0.03,0.0674 0.067,0.0674 0.037,0 0.067,-0.0303 0.067,-0.0674 0,-0.0371 -0.03,-0.0671 -0.067,-0.0671"
           style="fill:#ffffff;fill-opacity:1;fill-rule:nonzero;stroke:none;stroke-width:0.03527778"
           id="path1078" />
        <path
           d="m -136.20698,109.03619 c 0,0.045 0.0367,0.0821 0.0822,0.0821 0.0452,0 0.0822,-0.0371 0.0822,-0.0821 0,-0.0456 -0.037,-0.0826 -0.0822,-0.0826 -0.0455,0 -0.0822,0.0369 -0.0822,0.0826"
           style="fill:#ffffff;fill-opacity:1;fill-rule:nonzero;stroke:none;stroke-width:0.03527778"
           id="path1080" />
        <path
           d="m -136.81976,108.79806 c -0.0519,0 -0.0938,0.0419 -0.0938,0.0934 0,0.0518 0.042,0.0938 0.0938,0.0938 0.0515,0 0.0935,-0.0421 0.0935,-0.0938 0,-0.0515 -0.042,-0.0934 -0.0935,-0.0934"
           style="fill:#ffffff;fill-opacity:1;fill-rule:nonzero;stroke:none;stroke-width:0.03527778"
           id="path1082" />
        <path
           d="m -137.50909,108.6185 c -0.0568,0 -0.10266,0.0462 -0.10266,0.10294 0,0.0568 0.0459,0.10308 0.10266,0.10308 0.0568,0 0.10302,-0.0463 0.10302,-0.10308 0,-0.0568 -0.0462,-0.10294 -0.10302,-0.10294"
           style="fill:#ffffff;fill-opacity:1;fill-rule:nonzero;stroke:none;stroke-width:0.03527778"
           id="path1084" />
        <path
           d="m -138.19101,108.41318 c -0.0621,0 -0.11218,0.05 -0.11218,0.11219 0,0.0617 0.0501,0.11214 0.11218,0.11214 0.0617,0 0.11184,-0.0504 0.11184,-0.11214 0,-0.0622 -0.0501,-0.11219 -0.11184,-0.11219"
           style="fill:#ffffff;fill-opacity:1;fill-rule:nonzero;stroke:none;stroke-width:0.03527778"
           id="path1086" />
        <path
           d="m -138.86552,108.18236 c -0.067,0 -0.12135,0.054 -0.12135,0.121 0,0.0671 0.0543,0.12139 0.12135,0.12139 0.067,0 0.12136,-0.0543 0.12136,-0.12139 0,-0.067 -0.0543,-0.121 -0.12136,-0.121"
           style="fill:#ffffff;fill-opacity:1;fill-rule:nonzero;stroke:none;stroke-width:0.03527778"
           id="path1088" />
        <path
           d="m -139.53262,108.18635 c 0.072,0 0.13053,-0.0583 0.13053,-0.13064 0,-0.0719 -0.0586,-0.13007 -0.13053,-0.13007 -0.072,0 -0.13053,0.0581 -0.13053,0.13007 0,0.0724 0.0586,0.13064 0.13053,0.13064"
           style="fill:#ffffff;fill-opacity:1;fill-rule:nonzero;stroke:none;stroke-width:0.03527778"
           id="path1090" />
        <path
           d="m -140.18773,107.6448 c -0.0769,0 -0.1397,0.0624 -0.1397,0.13973 0,0.0769 0.0628,0.13931 0.1397,0.13931 0.0773,0 0.1397,-0.0624 0.1397,-0.13931 0,-0.0773 -0.0624,-0.13973 -0.1397,-0.13973"
           style="fill:#ffffff;fill-opacity:1;fill-rule:nonzero;stroke:none;stroke-width:0.03527778"
           id="path1092" />
        <path
           d="m -140.83261,107.33929 c -0.0822,0 -0.14887,0.0662 -0.14887,0.1488 0,0.0823 0.0667,0.14898 0.14887,0.14898 0.0822,0 0.14888,-0.0667 0.14888,-0.14898 0,-0.0825 -0.0667,-0.1488 -0.14888,-0.1488"
           style="fill:#ffffff;fill-opacity:1;fill-rule:nonzero;stroke:none;stroke-width:0.03527778"
           id="path1094" />
        <path
           d="m -141.4662,107.01586 c -0.0836,0 -0.15169,0.068 -0.15169,0.15198 0,0.0839 0.0681,0.15173 0.15169,0.15173 0.0843,0 0.15205,-0.0678 0.15205,-0.15173 0,-0.0839 -0.0677,-0.15198 -0.15205,-0.15198"
           style="fill:#ffffff;fill-opacity:1;fill-rule:nonzero;stroke:none;stroke-width:0.03527778"
           id="path1096" />
        <path
           d="m -142.08673,106.6694 c -0.0857,0 -0.15487,0.069 -0.15487,0.15448 0,0.0857 0.0691,0.15491 0.15487,0.15491 0.0854,0 0.15487,-0.0692 0.15487,-0.15491 0,-0.0854 -0.0695,-0.15448 -0.15487,-0.15448"
           style="fill:#ffffff;fill-opacity:1;fill-rule:nonzero;stroke:none;stroke-width:0.03527778"
           id="path1098" />
        <path
           d="m -142.69457,106.61497 c 0.0871,0 0.15805,-0.0706 0.15805,-0.15762 0,-0.0875 -0.0709,-0.15808 -0.15805,-0.15808 -0.0871,0 -0.15769,0.0706 -0.15769,0.15808 0,0.0871 0.0705,0.15762 0.15769,0.15762"
           style="fill:#ffffff;fill-opacity:1;fill-rule:nonzero;stroke:none;stroke-width:0.03527778"
           id="path1100" />
        <path
           d="m -143.28794,105.90694 c -0.0889,0 -0.16087,0.0721 -0.16087,0.16094 0,0.0889 0.072,0.16083 0.16087,0.16083 0.0889,0 0.16087,-0.0719 0.16087,-0.16083 0,-0.0889 -0.072,-0.16094 -0.16087,-0.16094"
           style="fill:#ffffff;fill-opacity:1;fill-rule:nonzero;stroke:none;stroke-width:0.03527778"
           id="path1102" />
        <path
           d="m -144.26196,105.22467 c 0,-0.0923 -0.0748,-0.16715 -0.16721,-0.16715 -0.0921,0 -0.16687,0.0748 -0.16687,0.16715 0,0.0925 0.0748,0.1669 0.16687,0.1669 0.0924,0 0.16721,-0.0744 0.16721,-0.1669"
           style="fill:#ffffff;fill-opacity:1;fill-rule:nonzero;stroke:none;stroke-width:0.03527778"
           id="path1106" />
        <path
           d="m -144.97527,104.60167 c -0.0942,0 -0.17004,0.0762 -0.17004,0.17046 0,0.0934 0.0759,0.16965 0.17004,0.16965 0.0938,0 0.17003,-0.0762 0.17003,-0.16965 0,-0.0943 -0.0762,-0.17046 -0.17003,-0.17046"
           style="fill:#ffffff;fill-opacity:1;fill-rule:nonzero;stroke:none;stroke-width:0.03527778"
           id="path1108" />
        <path
           d="m -145.50444,104.12584 c -0.0956,0 -0.17322,0.0776 -0.17322,0.17321 0,0.0956 0.0776,0.17322 0.17322,0.17322 0.0959,0 0.17321,-0.0776 0.17321,-0.17322 0,-0.0956 -0.0773,-0.17321 -0.17321,-0.17321"
           style="fill:#ffffff;fill-opacity:1;fill-rule:nonzero;stroke:none;stroke-width:0.03527778"
           id="path1110" />
        <path
           d="m -146.01526,103.63057 c -0.0974,0 -0.17639,0.0789 -0.17639,0.17639 0,0.0973 0.079,0.17597 0.17639,0.17597 0.0974,0 0.17603,-0.0787 0.17603,-0.17597 0,-0.0974 -0.0787,-0.17639 -0.17603,-0.17639"
           style="fill:#ffffff;fill-opacity:1;fill-rule:nonzero;stroke:none;stroke-width:0.03527778"
           id="path1112" />
        <path
           d="m -146.50774,103.12247 c -0.096,0 -0.17357,0.078 -0.17357,0.17364 0,0.0959 0.0776,0.17349 0.17357,0.17349 0.096,0 0.17357,-0.0776 0.17357,-0.17349 0,-0.0956 -0.0776,-0.17364 -0.17357,-0.17364"
           style="fill:#ffffff;fill-opacity:1;fill-rule:nonzero;stroke:none;stroke-width:0.03527778"
           id="path1114" />
        <path
           d="m -147.43414,102.05436 c -0.0921,0 -0.16721,0.0747 -0.16721,0.16715 0,0.0925 0.0751,0.16757 0.16721,0.16757 0.0928,0 0.16757,-0.0751 0.16757,-0.16757 0,-0.0925 -0.0748,-0.16715 -0.16757,-0.16715"
           style="fill:#ffffff;fill-opacity:1;fill-rule:nonzero;stroke:none;stroke-width:0.03527778"
           id="path1118" />
        <path
           d="m -147.86629,101.49514 c -0.091,0 -0.16439,0.0734 -0.16439,0.16415 0,0.0905 0.0734,0.16425 0.16439,0.16425 0.0907,0 0.16439,-0.0737 0.16439,-0.16425 0,-0.0907 -0.0737,-0.16415 -0.16439,-0.16415"
           style="fill:#ffffff;fill-opacity:1;fill-rule:nonzero;stroke:none;stroke-width:0.03527778"
           id="path1120" />
        <path
           d="m -148.11641,101.08133 c 0,-0.0891 -0.072,-0.16122 -0.16122,-0.16122 -0.0889,0 -0.16122,0.0721 -0.16122,0.16122 0,0.0893 0.0723,0.16122 0.16122,0.16122 0.0892,0 0.16122,-0.0719 0.16122,-0.16122"
           style="fill:#ffffff;fill-opacity:1;fill-rule:nonzero;stroke:none;stroke-width:0.03527778"
           id="path1122" />
        <path
           d="m -148.6671,100.3303 c -0.0871,0 -0.15804,0.0706 -0.15804,0.15805 0,0.0875 0.0709,0.15808 0.15804,0.15808 0.0875,0 0.1584,-0.0705 0.1584,-0.15808 0,-0.0875 -0.0709,-0.15805 -0.1584,-0.15805"
           style="fill:#ffffff;fill-opacity:1;fill-rule:nonzero;stroke:none;stroke-width:0.03527778"
           id="path1124" />
        <path
           d="m -149.03398,99.72631 c -0.0857,0 -0.15523,0.06918 -0.15523,0.154871 0,0.08573 0.0695,0.155329 0.15523,0.155329 0.0857,0 0.15522,-0.0696 0.15522,-0.155329 0,-0.08569 -0.0695,-0.154871 -0.15522,-0.154871"
           style="fill:#ffffff;fill-opacity:1;fill-rule:nonzero;stroke:none;stroke-width:0.03527778"
           id="path1126" />
        <path
           d="m -149.2259,99.261067 c 0,-0.08431 -0.0681,-0.152117 -0.15204,-0.152117 -0.084,0 -0.15205,0.0678 -0.15205,0.152117 0,0.08393 0.0681,0.152013 0.15205,0.152013 0.084,0 0.15204,-0.06809 0.15204,-0.152013"
           style="fill:#ffffff;fill-opacity:1;fill-rule:nonzero;stroke:none;stroke-width:0.03527778"
           id="path1128" />
        <path
           d="m -149.69862,98.479313 c -0.0822,0 -0.14887,0.06657 -0.14887,0.149259 0,0.0817 0.0667,0.148413 0.14887,0.148413 0.0825,0 0.14923,-0.06671 0.14923,-0.148413 0,-0.08269 -0.0667,-0.149259 -0.14923,-0.149259"
           style="fill:#ffffff;fill-opacity:1;fill-rule:nonzero;stroke:none;stroke-width:0.03527778"
           id="path1130" />
        <path
           d="m -149.99495,97.843643 c -0.0776,0 -0.14041,0.06269 -0.14041,0.139981 0,0.07761 0.0628,0.140441 0.14041,0.140441 0.0773,0 0.1404,-0.06283 0.1404,-0.140441 0,-0.07729 -0.0632,-0.139981 -0.1404,-0.139981"
           style="fill:#ffffff;fill-opacity:1;fill-rule:nonzero;stroke:none;stroke-width:0.03527778"
           id="path1132" />
        <path
           d="m -150.2673,97.459714 c 0.0723,0 0.13124,-0.05884 0.13124,-0.131198 0,-0.07235 -0.0589,-0.130916 -0.13124,-0.130916 -0.0723,0 -0.13087,0.05856 -0.13087,0.130916 0,0.07235 0.0586,0.131198 0.13087,0.131198"
           style="fill:#ffffff;fill-opacity:1;fill-rule:nonzero;stroke:none;stroke-width:0.03527778"
           id="path1134" />
        <path
           d="m -150.51459,96.542211 c -0.067,0 -0.12171,0.05429 -0.12171,0.121248 0,0.0678 0.0547,0.122097 0.12171,0.122097 0.0674,0 0.12171,-0.05429 0.12171,-0.122097 0,-0.06696 -0.0543,-0.121248 -0.12171,-0.121248"
           style="fill:#ffffff;fill-opacity:1;fill-rule:nonzero;stroke:none;stroke-width:0.03527778"
           id="path1136" />
        <path
           d="m -150.73649,95.877578 c -0.0624,0 -0.11289,0.05002 -0.11289,0.112183 0,0.06241 0.0504,0.112429 0.11289,0.112429 0.0621,0 0.11218,-0.05002 0.11218,-0.112429 0,-0.06216 -0.0501,-0.112183 -0.11218,-0.112183"
           style="fill:#ffffff;fill-opacity:1;fill-rule:nonzero;stroke:none;stroke-width:0.03527778"
           id="path1138" />
        <path
           d="m -150.93334,95.204829 c -0.0572,0 -0.10336,0.04614 -0.10336,0.103328 0,0.05722 0.0462,0.103365 0.10336,0.103365 0.0571,0 0.10337,-0.04614 0.10337,-0.103365 0,-0.05718 -0.0462,-0.103328 -0.10337,-0.103328"
           style="fill:#ffffff;fill-opacity:1;fill-rule:nonzero;stroke:none;stroke-width:0.03527778"
           id="path1140" />
        <path
           d="m -151.19827,94.619571 c 0,0.05182 0.0423,0.09412 0.0942,0.09412 0.0519,0 0.0942,-0.0423 0.0942,-0.09412 0,-0.05196 -0.0423,-0.09426 -0.0942,-0.09426 -0.0519,0 -0.0942,0.0423 -0.0942,0.09426"
           style="fill:#ffffff;fill-opacity:1;fill-rule:nonzero;stroke:none;stroke-width:0.03527778"
           id="path1142" />
        <path
           d="m -151.16617,93.924916 c 0,-0.0459 -0.037,-0.08297 -0.0829,-0.08297 -0.0455,0 -0.0825,0.03708 -0.0825,0.08297 0,0.04547 0.037,0.08252 0.0825,0.08252 0.0459,0 0.0829,-0.03704 0.0829,-0.08252"
           style="fill:#ffffff;fill-opacity:1;fill-rule:nonzero;stroke:none;stroke-width:0.03527778"
           id="path1144" />
        <path
           d="m -151.30023,93.225005 c 0,-0.03708 -0.03,-0.06738 -0.0674,-0.06738 -0.0374,0 -0.0674,0.03031 -0.0674,0.06738 0,0.03732 0.03,0.0678 0.0674,0.0678 0.0374,0 0.0674,-0.03048 0.0674,-0.0678"
           style="fill:#ffffff;fill-opacity:1;fill-rule:nonzero;stroke:none;stroke-width:0.03527778"
           id="path1146" />
        <path
           d="m -151.40747,92.521214 c 0,-0.02893 -0.0236,-0.05221 -0.0526,-0.05221 -0.0289,0 -0.0522,0.02328 -0.0522,0.05221 0,0.02896 0.0233,0.05225 0.0522,0.05225 0.0289,0 0.0526,-0.02328 0.0526,-0.05225"
           style="fill:#ffffff;fill-opacity:1;fill-rule:nonzero;stroke:none;stroke-width:0.03527778"
           id="path1148" />
        <path
           d="m -151.48861,91.814564 c 0,-0.0204 -0.0169,-0.03708 -0.0374,-0.03708 -0.0204,0 -0.0374,0.0167 -0.0374,0.03708 0,0.02082 0.0169,0.0375 0.0374,0.0375 0.0205,0 0.0374,-0.01669 0.0374,-0.0375"
           style="fill:#ffffff;fill-opacity:1;fill-rule:nonzero;stroke:none;stroke-width:0.03527778"
           id="path1150" />
        <path
           d="m -151.56587,91.085725 c -0.0113,0 -0.0201,0.0088 -0.0201,0.02011 0,0.01132 0.009,0.02053 0.0201,0.02053 0.0113,0 0.0204,-0.0092 0.0204,-0.02053 0,-0.0113 -0.009,-0.02011 -0.0204,-0.02011"
           style="fill:#ffffff;fill-opacity:1;fill-rule:nonzero;stroke:none;stroke-width:0.03527778"
           id="path1152" />
        <path
           d="m -151.57963,90.900236 c 0.2667,0 0.4826,-0.215654 0.4826,-0.48232 0,-0.266345 -0.2159,-0.482176 -0.4826,-0.482176 -0.26634,0 -0.48224,0.215831 -0.48224,0.482176 0,0.266666 0.2159,0.48232 0.48224,0.48232"
           style="fill:#ffffff;fill-opacity:1;fill-rule:nonzero;stroke:none;stroke-width:0.03527778"
           id="path1166" />
        <path
           d="m -132.52963,108.84244 c -0.26634,0 -0.48224,0.21594 -0.48224,0.48232 0,0.26638 0.2159,0.48218 0.48224,0.48218 0.26635,0 0.4826,-0.2158 0.4826,-0.48218 0,-0.26638 -0.21625,-0.48232 -0.4826,-0.48232"
           style="fill:#ffffff;fill-opacity:1;fill-rule:nonzero;stroke:none;stroke-width:0.03527778"
           id="path1168" />
      </g>
    </g>
  </g>
</svg>
