<?xml version="1.0" encoding="UTF-8" standalone="no"?>
<!-- Created with Inkscape (http://www.inkscape.org/) -->

<svg
   xmlns:dc="http://purl.org/dc/elements/1.1/"
   xmlns:cc="http://creativecommons.org/ns#"
   xmlns:rdf="http://www.w3.org/1999/02/22-rdf-syntax-ns#"
   xmlns:svg="http://www.w3.org/2000/svg"
   xmlns="http://www.w3.org/2000/svg"
   xmlns:sodipodi="http://sodipodi.sourceforge.net/DTD/sodipodi-0.dtd"
   xmlns:inkscape="http://www.inkscape.org/namespaces/inkscape"
   width="41.723339mm"
   height="41.757988mm"
   viewBox="0 0 41.723339 41.757988"
   version="1.1"
   id="svg34137"
   inkscape:version="0.92.3 (2405546, 2018-03-11)">
  <defs
     id="defs34131" />
  <sodipodi:namedview
     id="base"
     pagecolor="#ffffff"
     bordercolor="#666666"
     borderopacity="1.0"
     inkscape:pageopacity="0.0"
     inkscape:pageshadow="2"
     inkscape:zoom="3.959798"
     inkscape:cx="79.667445"
     inkscape:cy="68.320016"
     inkscape:document-units="mm"
     inkscape:current-layer="layer1"
     showgrid="false"
     inkscape:window-width="1920"
     inkscape:window-height="1013"
     inkscape:window-x="-9"
     inkscape:window-y="606"
     inkscape:window-maximized="1" />
  <metadata
     id="metadata34134">
    <rdf:RDF>
      <cc:Work
         rdf:about="">
        <dc:format>image/svg+xml</dc:format>
        <dc:type
           rdf:resource="http://purl.org/dc/dcmitype/StillImage" />
        <dc:title></dc:title>
      </cc:Work>
    </rdf:RDF>
  </metadata>
  <g
     inkscape:label="Layer 1"
     inkscape:groupmode="layer"
     id="layer1"
     transform="translate(153.47919,-69.571962)">
    <g
       id="g35058"
       style="fill:#ffffff">
      <path
         inkscape:connector-curvature="0"
         d="m -131.99023,94.944797 c 0,-0.344665 -0.28081,-0.625509 -0.62583,-0.625509 -0.34501,0 -0.62583,0.280844 -0.62583,0.625509 0,0.345334 0.28082,0.626181 0.62583,0.626181 0.34502,0 0.62583,-0.280847 0.62583,-0.626181"
         style="fill:#ffffff;fill-opacity:1;fill-rule:nonzero;stroke:none;stroke-width:0.03527778"
         id="path914" />
      <path
         inkscape:connector-curvature="0"
         d="m -132.61606,84.732973 c 0.62759,0 1.13595,0.508355 1.13595,1.135909 0,0.627274 -0.50836,1.135663 -1.13595,1.135663 -0.62759,0 -1.13594,-0.508389 -1.13594,-1.135663 0,-0.627554 0.50835,-1.135909 1.13594,-1.135909 z m 2.70545,2.575949 c 0.084,0 0.1524,0.06808 0.1524,0.152011 0,0.08435 -0.0684,0.1524 -0.1524,0.1524 -0.084,0 -0.15204,-0.06805 -0.15204,-0.1524 0,-0.08393 0.0681,-0.152011 0.15204,-0.152011 z m 0.76236,-0.911296 c 0.16651,0 0.30127,0.134797 0.30127,0.301378 0,0.166476 -0.13476,0.301237 -0.30127,0.301237 -0.16616,0 -0.30127,-0.134761 -0.30127,-0.301237 0,-0.166581 0.13511,-0.301378 0.30127,-0.301378 z m -3.46816,0.931722 c 1.5755,0 2.87725,1.187167 3.06352,2.713215 h 2.82822 c -0.19473,-3.088466 -2.75414,-5.535438 -5.89174,-5.535438 -3.13725,0 -5.69701,2.446972 -5.89139,5.535438 h 2.82822 c 0.18627,-1.526048 1.48766,-2.713215 3.06317,-2.713215"
         style="fill:#ffffff;fill-opacity:1;fill-rule:nonzero;stroke:none;stroke-width:0.03527778"
         id="path916" />
      <path
         inkscape:connector-curvature="0"
         d="m -132.61641,87.682125 c -1.37548,0 -2.51284,1.030888 -2.6864,2.360438 h 0.17815 c 0.17251,-1.231832 1.22978,-2.184049 2.50825,-2.184049 1.27846,0 2.33609,0.952217 2.50895,2.184049 h 0.17816 c -0.17392,-1.32955 -1.31092,-2.360438 -2.68711,-2.360438"
         style="fill:#ffffff;fill-opacity:1;fill-rule:nonzero;stroke:none;stroke-width:0.03527778"
         id="path918" />
      <path
         inkscape:connector-curvature="0"
         d="m -132.61641,76.553432 v -1.41111 c -8.41269,0 -15.25729,6.845334 -15.25729,15.257709 h 1.41111 c 0,-7.634886 6.21136,-13.846599 13.84618,-13.846599"
         style="fill:#ffffff;fill-opacity:1;fill-rule:nonzero;stroke:none;stroke-width:0.03527778"
         id="path1068" />
      <path
         inkscape:connector-curvature="0"
         d="m -133.78375,94.944797 c 0,-0.644948 0.52246,-1.167342 1.16769,-1.167342 0.64453,0 1.1677,0.522394 1.1677,1.167342 0,0.644914 -0.52317,1.168011 -1.1677,1.168011 -0.64523,0 -1.16769,-0.523097 -1.16769,-1.168011 z m -7.86554,-4.561028 h -0.30868 c 0,-5.150556 4.19065,-9.341591 9.34156,-9.341591 v 0.308679 c 4.98087,0 9.03358,4.052396 9.03358,9.032912 h 0.30868 c 0,5.151507 -4.191,9.342541 -9.34226,9.342541 v -0.308679 c -2.36361,0 -4.51732,-0.914048 -6.12881,-2.40552 l 2.19287,-2.19329 c 1.04563,0.93599 2.42217,1.509924 3.93594,1.509924 3.15313,0 5.72205,-2.470822 5.89421,-5.580629 h -2.82399 c -0.16474,1.548096 -1.47849,2.758406 -3.07022,2.758406 -0.73307,0 -1.40688,-0.25781 -1.9371,-0.686118 l 0.28151,-0.28194 c 0.45861,0.355249 1.03223,0.568714 1.65559,0.568714 1.37619,0 2.51319,-1.030499 2.68711,-2.359062 h -0.17816 c -0.17286,1.231265 -1.23049,2.182673 -2.50895,2.182673 -0.57503,0 -1.1042,-0.194451 -1.53,-0.518301 l 0.71508,-0.714623 c 0.23601,0.150601 0.51471,0.240876 0.81527,0.240876 0.83961,0 1.52047,-0.680894 1.52047,-1.520825 0,-0.83961 -0.68086,-1.520084 -1.52047,-1.520084 -0.83996,0 -1.52047,0.680474 -1.52047,1.520084 0,0.28293 0.0822,0.544338 0.21661,0.771173 l -0.72355,0.723194 c -0.25083,-0.334468 -0.42051,-0.731626 -0.48119,-1.164167 h -0.17815 c 0.0628,0.480944 0.25188,0.921915 0.53375,1.290109 l -0.27834,0.277955 c -0.34643,-0.442632 -0.57644,-0.980334 -0.63924,-1.568064 h -2.82363 c 0.0755,1.366028 0.61207,2.606429 1.46085,3.5705 l -2.19463,2.194242 c -1.49154,-1.611487 -2.40524,-3.764809 -2.40524,-6.129089 z m 9.03288,17.264871 v -1.41111 c -4.24392,0 -8.09978,-1.68134 -10.94599,-4.40835 l 2.48109,-2.481013 c 2.20591,2.099733 5.18618,3.393013 8.4649,3.393013 v -0.35277 c -3.18135,0 -6.07378,-1.25374 -8.21549,-3.289655 l 1.58785,-1.587923 c 1.73955,1.618933 4.06929,2.612358 6.62764,2.612358 v -0.308684 c 5.2003,0 9.43045,-4.230441 9.43045,-9.430737 h 0.30868 c 0,-5.369666 -4.36879,-9.738466 -9.73913,-9.738466 v 0.308679 c -5.19959,0 -9.42975,4.230442 -9.42975,9.429787 h -0.30868 c 0,2.55859 0.99307,4.888442 2.61197,6.628342 l -1.58609,1.586405 c -1.99779,-2.135011 -3.22404,-4.999919 -3.22404,-8.147368 h -0.35278 c 0,3.244464 1.26612,6.197566 3.32705,8.396393 l -2.48214,2.482529 c -2.7178,-2.844831 -4.39244,-6.694378 -4.39244,-10.930039 h -1.41111 c 0,9.510783 7.73747,17.248609 17.24801,17.248609"
         style="fill:#ffffff;fill-opacity:1;fill-rule:nonzero;stroke:none;stroke-width:0.03527778"
         id="path1070" />
      <path
         inkscape:connector-curvature="0"
         d="m -132.61641,105.80827 c 8.49595,0 15.40827,-6.912363 15.40827,-15.408239 h -1.41111 c 0,7.717967 -6.27909,13.997129 -13.99716,13.997129 v 1.41111"
         style="fill:#ffffff;fill-opacity:1;fill-rule:nonzero;stroke:none;stroke-width:0.03527778"
         id="path1154" />
      <path
         inkscape:connector-curvature="0"
         d="m -124.09965,82.25651 c -0.33479,0 -0.60643,-0.271076 -0.60643,-0.60579 0,-0.335563 0.27164,-0.606779 0.60643,-0.606779 0.33479,0 0.60642,0.271216 0.60642,0.606779 0,0.334714 -0.27163,0.60579 -0.60642,0.60579 z m 3.90595,-3.381446 -2.53294,2.532557 -1.11936,-1.119682 2.53259,-2.53224 0.1972,-0.197202 c -3.054,-2.737908 -7.08519,-4.406548 -11.5002,-4.406548 v 1.411113 c 3.6329,0 6.98182,1.232604 9.65694,3.29706 l -2.43382,2.434167 c -0.0437,0.04374 -0.0773,0.09349 -0.115,0.140758 -2.00837,-1.429102 -4.46088,-2.273652 -7.10812,-2.273652 v 0.352777 c 2.57704,0 4.96394,0.823735 6.91656,2.217208 -0.31468,0.628298 -0.21731,1.410052 0.30656,1.934245 l 0.28928,0.289279 c 0.5394,0.539078 1.35043,0.626851 1.9872,0.278765 1.52788,2.005859 2.43734,4.507019 2.43734,7.217479 h 0.35278 c 0,-2.785144 -0.9324,-5.355907 -2.50014,-7.418951 0.0307,-0.02688 0.0653,-0.0477 0.0945,-0.07729 l 2.45992,-2.460238 c 2.18299,2.715013 3.49356,6.159148 3.49356,9.905365 h 1.41111 c 0,-4.52755 -1.75613,-8.650923 -4.61998,-11.731342 l -0.20602,0.206375"
         style="fill:#ffffff;fill-opacity:1;fill-rule:nonzero;stroke:none;stroke-width:0.03527778"
         id="path1156" />
      <path
         inkscape:connector-curvature="0"
         d="m -143.14577,90.451148 c 0,-5.806085 4.72334,-10.529393 10.52936,-10.529393 v -0.352777 c -6.0004,0 -10.88214,4.881775 -10.88214,10.88217 h 0.35278"
         style="fill:#ffffff;fill-opacity:1;fill-rule:nonzero;stroke:none;stroke-width:0.03527778"
         id="path1158" />
      <path
         inkscape:connector-curvature="0"
         d="m -132.61641,101.02139 v 0.35278 c 6.02297,0 10.9227,-4.900433 10.9227,-10.923022 h -0.35278 c 0,5.828279 -4.74133,10.570242 -10.56992,10.570242"
         style="fill:#ffffff;fill-opacity:1;fill-rule:nonzero;stroke:none;stroke-width:0.03527778"
         id="path1160" />
      <path
         inkscape:connector-curvature="0"
         d="m -132.25693,103.84788 v 0.0882 c 7.27463,0 13.19283,-5.917845 13.19283,-13.19251 h -0.0882 c 0,7.225876 -5.87869,13.10432 -13.10464,13.10432"
         style="fill:#ffffff;fill-opacity:1;fill-rule:nonzero;stroke:none;stroke-width:0.03527778"
         id="path1162" />
      <path
         inkscape:connector-curvature="0"
         d="m -132.57761,101.72307 v 0.0882 c 6.27945,0 11.38873,-5.108507 11.38873,-11.388376 h -0.0882 c 0,6.23108 -5.06941,11.300176 -11.30053,11.300176"
         style="fill:#ffffff;fill-opacity:1;fill-rule:nonzero;stroke:none;stroke-width:0.03527778"
         id="path1164" />
      <path
         inkscape:connector-curvature="0"
         d="m -127.93752,86.094344 c 0.33479,0 0.60642,-0.271356 0.60642,-0.606073 0,-0.33514 -0.27163,-0.606459 -0.60642,-0.606459 -0.33479,0 -0.60643,0.271319 -0.60643,0.606459 0,0.334717 0.27164,0.606073 0.60643,0.606073"
         style="fill:#ffffff;fill-opacity:1;fill-rule:nonzero;stroke:none;stroke-width:0.03527778"
         id="path1170" />
      <path
         inkscape:connector-curvature="0"
         d="m -132.04703,107.60359 h 0.42722 v -1.34525 h -0.42722 v 1.34525"
         style="fill:#ffffff;fill-opacity:1;fill-rule:nonzero;stroke:none;stroke-width:0.03527778"
         id="path1172" />
      <path
         inkscape:connector-curvature="0"
         d="m -130.66661,106.14838 0.11712,1.34014 0.42545,-0.0377 -0.11712,-1.33946 -0.42545,0.0371"
         style="fill:#ffffff;fill-opacity:1;fill-rule:nonzero;stroke:none;stroke-width:0.03527778"
         id="path1174" />
      <path
         inkscape:connector-curvature="0"
         d="m -129.30136,105.91866 0.23354,1.32429 0.42086,-0.074 -0.23354,-1.32443 -0.42086,0.0742"
         style="fill:#ffffff;fill-opacity:1;fill-rule:nonzero;stroke:none;stroke-width:0.03527778"
         id="path1176" />
      <path
         inkscape:connector-curvature="0"
         d="m -127.54841,105.46004 -0.41239,0.11039 0.34784,1.29935 0.41275,-0.11081 -0.3482,-1.29893"
         style="fill:#ffffff;fill-opacity:1;fill-rule:nonzero;stroke:none;stroke-width:0.03527778"
         id="path1178" />
      <path
         inkscape:connector-curvature="0"
         d="m -126.25477,104.96118 -0.40111,0.14609 0.46002,1.26365 0.40146,-0.14605 -0.46037,-1.26369"
         style="fill:#ffffff;fill-opacity:1;fill-rule:nonzero;stroke:none;stroke-width:0.03527778"
         id="path1180" />
      <path
         inkscape:connector-curvature="0"
         d="m -125.39646,104.53153 0.56832,1.21913 0.38735,-0.18094 -0.56832,-1.21884 -0.38735,0.18065"
         style="fill:#ffffff;fill-opacity:1;fill-rule:nonzero;stroke:none;stroke-width:0.03527778"
         id="path1182" />
      <path
         inkscape:connector-curvature="0"
         d="m -124.19173,103.84856 0.6724,1.16487 0.37006,-0.21347 -0.67239,-1.16484 -0.37007,0.21344"
         style="fill:#ffffff;fill-opacity:1;fill-rule:nonzero;stroke:none;stroke-width:0.03527778"
         id="path1184" />
      <path
         inkscape:connector-curvature="0"
         d="m -123.0512,103.06324 0.77118,1.10172 0.34995,-0.24472 -0.77117,-1.10176 -0.34996,0.24476"
         style="fill:#ffffff;fill-opacity:1;fill-rule:nonzero;stroke:none;stroke-width:0.03527778"
         id="path1186" />
      <path
         inkscape:connector-curvature="0"
         d="m -121.98369,102.18129 0.86466,1.0305 0.32738,-0.27481 -0.86466,-1.03008 -0.32738,0.27439"
         style="fill:#ffffff;fill-opacity:1;fill-rule:nonzero;stroke:none;stroke-width:0.03527778"
         id="path1188" />
      <path
         inkscape:connector-curvature="0"
         d="m -120.69464,100.90783 -0.30198,0.30195 0.95074,0.95109 0.30233,-0.30191 -0.95109,-0.95113"
         style="fill:#ffffff;fill-opacity:1;fill-rule:nonzero;stroke:none;stroke-width:0.03527778"
         id="path1190" />
      <path
         inkscape:connector-curvature="0"
         d="m -120.09845,100.15596 1.03047,0.86473 0.27446,-0.32741 -1.03047,-0.864592 -0.27446,0.327272"
         style="fill:#ffffff;fill-opacity:1;fill-rule:nonzero;stroke:none;stroke-width:0.03527778"
         id="path1192" />
      <path
         inkscape:connector-curvature="0"
         d="m -119.29552,99.027776 1.10172,0.771559 0.24518,-0.349885 -1.10172,-0.771559 -0.24518,0.349885"
         style="fill:#ffffff;fill-opacity:1;fill-rule:nonzero;stroke:none;stroke-width:0.03527778"
         id="path1194" />
      <path
         inkscape:connector-curvature="0"
         d="m -118.38006,97.463982 -0.21379,0.369994 1.16487,0.672748 0.21379,-0.370417 -1.16487,-0.672325"
         style="fill:#ffffff;fill-opacity:1;fill-rule:nonzero;stroke:none;stroke-width:0.03527778"
         id="path1196" />
      <path
         inkscape:connector-curvature="0"
         d="m -117.99871,96.583838 1.21885,0.56829 0.18097,-0.38735 -1.2192,-0.568325 -0.18062,0.387385"
         style="fill:#ffffff;fill-opacity:1;fill-rule:nonzero;stroke:none;stroke-width:0.03527778"
         id="path1198" />
      <path
         inkscape:connector-curvature="0"
         d="m -117.36865,94.884438 -0.1464,0.401566 1.264,0.460234 0.14605,-0.401674 -1.26365,-0.460126"
         style="fill:#ffffff;fill-opacity:1;fill-rule:nonzero;stroke:none;stroke-width:0.03527778"
         id="path1200" />
      <path
         inkscape:connector-curvature="0"
         d="m -117.14605,93.951374 1.29893,0.347805 0.11077,-0.412715 -1.29928,-0.34784 -0.11042,0.41275"
         style="fill:#ffffff;fill-opacity:1;fill-rule:nonzero;stroke:none;stroke-width:0.03527778"
         id="path1202" />
      <path
         inkscape:connector-curvature="0"
         d="m -116.89487,92.589299 1.32433,0.233857 0.0744,-0.421111 -1.32469,-0.233328 -0.0741,0.420582"
         style="fill:#ffffff;fill-opacity:1;fill-rule:nonzero;stroke:none;stroke-width:0.03527778"
         id="path1204" />
      <path
         inkscape:connector-curvature="0"
         d="m -116.76364,91.210997 1.33985,0.117123 0.0374,-0.425804 -1.3402,-0.117121 -0.037,0.425802"
         style="fill:#ffffff;fill-opacity:1;fill-rule:nonzero;stroke:none;stroke-width:0.03527778"
         id="path1206" />
    </g>
  </g>
</svg>
